<?xml version="1.0" encoding="utf-8"?>
<!-- Generator: Adobe Illustrator 27.5.0, SVG Export Plug-In . SVG Version: 6.00 Build 0)  -->
<svg version="1.1" id="Ñëîé_1" xmlns="http://www.w3.org/2000/svg" xmlns:xlink="http://www.w3.org/1999/xlink" x="0px" y="0px"
	 viewBox="100 0 600 350" xml:space="preserve">
<!-- <radialGradient id="SVGID_1_" cx="76.8336" cy="-1585.6246" r="532.6512" gradientTransform="matrix(1 0 0 0.9992 0 1413.9669)" gradientUnits="userSpaceOnUse">
	<stop  offset="0" style="stop-color:#2B237C"/>
	<stop  offset="0.31" style="stop-color:#251C72"/>
	<stop  offset="1" style="stop-color:#0F054C"/>
</radialGradient> -->
<!-- <rect x="0" style="fill:url(#SVGID_1_);" width="600" height="350"/> -->

<g>
	<path style="fill:#42E8E0;" d="M347.875,284.407c-2.637,0-5.155-0.531-7.034-1.616l-92.063-53.152
		c-1.846-1.065-2.863-2.549-2.863-4.177c0-1.953,1.461-3.917,4.01-5.388l175.581-101.372c4.773-2.756,12.027-3.054,16.169-0.662
		l92.063,53.152c1.846,1.066,2.863,2.549,2.863,4.177c0,1.953-1.461,3.917-4.009,5.388L357.01,282.128
		C354.402,283.634,351.052,284.407,347.875,284.407z M341.039,282.447c4.034,2.328,11.109,2.033,15.773-0.662l175.582-101.372
		c2.422-1.397,3.811-3.236,3.811-5.044c0-1.479-0.946-2.841-2.664-3.833l-92.063-53.152c-4.033-2.326-11.108-2.031-15.773,0.662
		L250.123,220.417c-2.422,1.398-3.811,3.236-3.812,5.044c0,1.48,0.946,2.841,2.665,3.833L341.039,282.447z"/>
</g>
<g>
	
		<linearGradient id="SVGID_00000013172727097264820250000007589257806769674633_" gradientUnits="userSpaceOnUse" x1="246.1137" y1="186.1269" x2="536.4027" y2="186.1269">
		<stop  offset="0" style="stop-color:#BCBEFF"/>
		<stop  offset="0.151" style="stop-color:#A3A7F5"/>
		<stop  offset="0.3866" style="stop-color:#8289E8"/>
		<stop  offset="0.6124" style="stop-color:#6A73DF"/>
		<stop  offset="0.8221" style="stop-color:#5C66D9"/>
		<stop  offset="1" style="stop-color:#5761D7"/>
	</linearGradient>
	<path style="fill:url(#SVGID_00000013172727097264820250000007589257806769674633_);" d="M536.403,150.817l-13.224,2.277
		l-81.602-47.113c-4.094-2.364-11.244-2.067-15.971,0.662l-156.113,90.132l-23.377,4.025l-0.002,8.288l0.011-0.002
		c-0.011,1.511,0.887,2.956,2.753,4.033l92.062,53.152c4.094,2.364,11.244,2.067,15.971-0.662l175.581-101.372
		c2.545-1.469,3.856-3.343,3.897-5.13l0.013-0.002V150.817z"/>
	<path style="fill:#24126A;" d="M340.94,257.928l-92.062-53.152c-4.094-2.364-3.58-6.492,1.147-9.221L425.605,94.183
		c4.727-2.729,11.878-3.026,15.971-0.662l92.063,53.152c4.094,2.364,3.58,6.492-1.147,9.221L356.911,257.266
		C352.184,259.995,345.034,260.291,340.94,257.928z"/>
	<path style="fill:#FFFFFF;" d="M532.492,155.894L356.911,257.266c-4.727,2.729-11.878,3.026-15.971,0.662l-92.062-53.152
		c-1.642-0.948-2.53-2.181-2.715-3.492c-0.254,1.702,0.63,3.364,2.715,4.568l92.062,53.152c4.094,2.364,11.244,2.067,15.971-0.662
		l175.581-101.372c2.831-1.635,4.138-3.77,3.862-5.729C536.11,152.879,534.812,154.555,532.492,155.894z"/>
	<path style="opacity:0.51;fill:#453C9E;" d="M341.121,255.868l-88.781-51.272c-3.961-2.287-3.465-6.282,1.11-8.923l172.324-99.465
		c4.574-2.641,11.493-2.928,15.455-0.641l88.781,51.272c3.961,2.287,3.465,6.282-1.11,8.923l-172.324,99.465
		C352.002,257.868,345.083,258.155,341.121,255.868z"/>
</g>
<g>
	
		<linearGradient id="SVGID_00000159437779163852708530000008520346037004492966_" gradientUnits="userSpaceOnUse" x1="431.6909" y1="227.1957" x2="350.6589" y2="119.6627">
		<stop  offset="0" style="stop-color:#42E8E0"/>
		<stop  offset="0.1055" style="stop-color:#37B6BF"/>
		<stop  offset="0.2197" style="stop-color:#2C87A1"/>
		<stop  offset="0.338" style="stop-color:#235F87"/>
		<stop  offset="0.4587" style="stop-color:#1C3F72"/>
		<stop  offset="0.5824" style="stop-color:#162561"/>
		<stop  offset="0.7105" style="stop-color:#121355"/>
		<stop  offset="0.8458" style="stop-color:#10084E"/>
		<stop  offset="1" style="stop-color:#0F054C"/>
	</linearGradient>
	<path style="opacity:0.8;fill:url(#SVGID_00000159437779163852708530000008520346037004492966_);" d="M347.831,255.402
		c-2.569,0-5.022-0.518-6.853-1.574l-88.781-51.272c-1.817-1.049-2.817-2.514-2.817-4.123c0-1.925,1.431-3.854,3.927-5.296
		l172.324-99.465c4.645-2.682,11.706-2.97,15.741-0.641l88.781,51.272c1.817,1.049,2.817,2.514,2.817,4.123
		c0.001,1.924-1.431,3.855-3.927,5.296l-172.324,99.465C354.181,254.652,350.923,255.402,347.831,255.402z M341.264,253.331
		c3.876,2.239,10.681,1.951,15.168-0.641l172.324-99.465c2.314-1.336,3.641-3.086,3.641-4.8c0-1.396-0.899-2.685-2.531-3.627
		l-88.781-51.272c-3.876-2.239-10.682-1.951-15.169,0.641l-172.324,99.465c-2.314,1.336-3.641,3.085-3.641,4.8
		c0,1.396,0.899,2.685,2.531,3.627L341.264,253.331z"/>
</g>

<g style="opacity:0.1;">
	<defs>
		<path id="SVGID_00000154397884749441905860000014274837923696460479_" style="opacity:0.1;" d="M341.121,253.579l-88.781-51.272
			c-3.961-2.287-3.465-6.282,1.11-8.923l172.324-99.465c4.574-2.641,11.493-2.928,15.455-0.641l88.781,51.272
			c3.961,2.287,3.465,6.282-1.11,8.923l-172.324,99.465C352.002,255.579,345.083,255.866,341.121,253.579z"/>
	</defs>
	
		<radialGradient id="SVGID_00000126304869540794994390000013064477499952066978_" cx="384.054" cy="176.1744" r="227.2106" gradientUnits="userSpaceOnUse">
		<stop  offset="0" style="stop-color:#42E8E0"/>
		<stop  offset="0.1055" style="stop-color:#37B6BF"/>
		<stop  offset="0.2197" style="stop-color:#2C87A1"/>
		<stop  offset="0.338" style="stop-color:#235F87"/>
		<stop  offset="0.4587" style="stop-color:#1C3F72"/>
		<stop  offset="0.5824" style="stop-color:#162561"/>
		<stop  offset="0.7105" style="stop-color:#121355"/>
		<stop  offset="0.8458" style="stop-color:#10084E"/>
		<stop  offset="1" style="stop-color:#0F054C"/>
	</radialGradient>
	
		<use xlink:href="#SVGID_00000154397884749441905860000014274837923696460479_"  style="overflow:visible;opacity:0.5;fill:url(#SVGID_00000126304869540794994390000013064477499952066978_);"/>
	<clipPath id="SVGID_00000056413073802172820350000015318953665682227125_">
		<use xlink:href="#SVGID_00000154397884749441905860000014274837923696460479_"  style="overflow:visible;opacity:0.5;"/>
	</clipPath>
	<g style="clip-path:url(#SVGID_00000056413073802172820350000015318953665682227125_);">
		<path style="fill:#9FFFF8;" d="M439.185,234.327c0-11.151-7.829-24.711-17.486-30.286c-4.838-2.793-9.216-3.052-12.382-1.214
			v-0.001l-3.306,1.934l0.96,0.09c-1.743,2.134-2.758,5.279-2.758,9.286c0,11.151,7.829,24.711,17.486,30.286
			c3.318,1.916,6.421,2.64,9.064,2.312l-0.074,0.886l3.356-1.964c0.014-0.008,0.027-0.016,0.041-0.024l0.136-0.079l-0.007-0.002
			C437.288,243.687,439.185,239.811,439.185,234.327z"/>
		
			<ellipse transform="matrix(0.866 -0.5 0.5 0.866 -57.0441 239.4953)" style="fill:#42E8E0;" cx="418.355" cy="226.187" rx="14.277" ry="24.729"/>
	</g>
</g>
<path style="opacity:0.4;fill:#24126A;" d="M511.049,153.061c-1.355,0.782-3.552,0.782-4.907,0c-1.355-0.782-1.355-2.051,0-2.833
	c1.355-0.782,3.552-0.782,4.907,0C512.404,151.01,512.404,152.279,511.049,153.061z"/>
<path style="opacity:0.4;fill:#24126A;" d="M492.317,139.413l9.606,5.546c1.174,0.678,1.026,1.861-0.329,2.644l0,0
	c-1.355,0.782-3.405,0.867-4.579,0.19l-9.607-5.546c-1.174-0.678-1.026-1.861,0.329-2.643h0
	C489.093,138.821,491.143,138.736,492.317,139.413z"/>
<path style="opacity:0.4;fill:#24126A;" d="M437.517,106.147l9.607,5.546c1.174,0.677,1.026,1.861-0.329,2.643l0,0
	c-1.355,0.782-3.405,0.867-4.579,0.19l-9.606-5.546c-1.174-0.678-1.026-1.861,0.329-2.644l0,0
	C434.293,105.554,436.343,105.469,437.517,106.147z"/>
<path style="fill:#42E8E0;" d="M511.049,149.618c-1.355,0.782-3.552,0.782-4.907,0c-1.355-0.782-1.355-2.051,0-2.833
	c1.355-0.782,3.552-0.782,4.907,0S512.404,148.835,511.049,149.618z"/>
<path style="fill:#42E8E0;" d="M492.317,135.969l9.606,5.546c1.174,0.678,1.026,1.861-0.329,2.644l0,0
	c-1.355,0.782-3.405,0.867-4.579,0.19l-9.607-5.546c-1.174-0.678-1.026-1.861,0.329-2.643h0
	C489.093,135.377,491.143,135.292,492.317,135.969z"/>
<path style="fill:#42E8E0;" d="M437.517,102.703l9.607,5.546c1.174,0.678,1.026,1.861-0.329,2.644l0,0
	c-1.355,0.782-3.405,0.867-4.579,0.19l-9.606-5.546c-1.174-0.678-1.026-1.861,0.329-2.644l0,0
	C434.293,102.11,436.343,102.025,437.517,102.703z"/>
<g style="opacity:0.3;">
	
		<linearGradient id="SVGID_00000160177627993357403590000006816955704184555408_" gradientUnits="userSpaceOnUse" x1="518.5662" y1="257.3128" x2="559.3759" y2="280.8743">
		<stop  offset="0" style="stop-color:#BCBEFF"/>
		<stop  offset="0.2271" style="stop-color:#AAADF8"/>
		<stop  offset="0.6802" style="stop-color:#7C83E5"/>
		<stop  offset="1" style="stop-color:#5761D7"/>
	</linearGradient>
	<path style="fill:url(#SVGID_00000160177627993357403590000006816955704184555408_);" d="M564.885,270.701v-4.482l-1.24-0.689
		c-0.35,2.115-2.839,3.509-4.921,3.798l-14.174,8.289l-6.186,2.234l-19.744-10.189l0.456-0.263
		c-1.687-0.788-2.596-2.591-3.509-4.236l-1.329,0.793l-0.79,0.222v4.596h0c0,0.878,0.579,1.756,1.737,2.425l19.781,11.42
		c2.316,1.337,6.085,1.337,8.401,0l19.78-11.42c1.139-0.658,1.718-1.518,1.736-2.382c0.001-0.039-0.001-0.077-0.002-0.116
		L564.885,270.701z"/>
	<path style="opacity:0.3;fill:#0F054C;" d="M558.724,269.328l-14.174,8.289l-5.384,1.944v6.06c1.521,0,3.043-0.334,4.201-1.003
		l19.78-11.42c1.139-0.658,1.718-1.518,1.736-2.382c0.001-0.039-0.001-0.077-0.002-0.116l0.003,0.001v-4.482l-1.133-0.63h-0.118
		C563.247,267.671,560.786,269.041,558.724,269.328z"/>
	<g>
		
			<linearGradient id="SVGID_00000125577901584024691520000002683163302180204471_" gradientUnits="userSpaceOnUse" x1="513.449" y1="266.219" x2="564.8847" y2="266.219">
			<stop  offset="0" style="stop-color:#E9E9FD"/>
			<stop  offset="0.3601" style="stop-color:#D3D2F9"/>
			<stop  offset="0.7062" style="stop-color:#C5C4F7"/>
			<stop  offset="1" style="stop-color:#C0BFF6"/>
		</linearGradient>
		<path style="fill:url(#SVGID_00000125577901584024691520000002683163302180204471_);" d="M534.967,280.064l-19.781-11.42
			c-2.316-1.337-2.316-3.513,0-4.85l19.78-11.42c2.316-1.337,6.084-1.337,8.401,0l19.781,11.42c2.316,1.337,2.316,3.513,0,4.85
			l-19.78,11.42C541.052,281.401,537.283,281.401,534.967,280.064z"/>
	</g>
	<g style="opacity:0.3;">
		<path style="fill:#0F054C;" d="M534.967,280.064l-19.781-11.42c-2.316-1.337-2.316-3.513,0-4.85l19.78-11.42
			c2.316-1.337,6.084-1.337,8.401,0l19.781,11.42c2.316,1.337,2.316,3.513,0,4.85l-19.78,11.42
			C541.052,281.401,537.283,281.401,534.967,280.064z"/>
	</g>
</g>
<g>
	<g>
		<path style="fill:#42E8E0;" d="M539.167,265.629c-1.35,0-2.7-0.297-3.728-0.89l-19.781-11.42
			c-1.028-0.594-1.593-1.393-1.593-2.254c0-0.859,0.566-1.659,1.593-2.252l19.779-11.421c2.056-1.185,5.401-1.187,7.457,0
			l19.781,11.421c1.027,0.593,1.593,1.394,1.593,2.253c0,0.859-0.565,1.66-1.593,2.253l-19.78,11.42
			C541.867,265.332,540.517,265.629,539.167,265.629z M539.167,236.845c-1.288,0-2.575,0.282-3.556,0.849l-19.78,11.421
			c-0.915,0.528-1.419,1.221-1.419,1.951c0,0.73,0.504,1.425,1.42,1.953l19.78,11.42c1.961,1.133,5.149,1.133,7.11,0l19.78-11.42
			c0.915-0.528,1.419-1.222,1.419-1.952s-0.504-1.424-1.419-1.952l-19.781-11.421C541.742,237.127,540.454,236.845,539.167,236.845z
			"/>
		<g>
			<path style="opacity:0.4;fill:#42E8E0;" d="M564.885,246.683v-6.773l-1.24-0.689c-0.35,2.115-2.839,3.509-4.921,3.799
				l-14.174,8.288l-6.186,2.234l-19.744-10.189l0.456-0.264c-1.687-0.788-2.596-2.591-3.509-4.236l-1.329,0.793l-0.79,0.222v6.888h0
				c0,0.878,0.579,1.756,1.737,2.425l19.781,11.421c2.316,1.337,6.085,1.337,8.401,0l19.78-11.42
				c1.139-0.658,1.718-1.518,1.736-2.382c0.001-0.038-0.001-0.077-0.002-0.116L564.885,246.683z"/>
			<g>
				<g>
					
						<linearGradient id="SVGID_00000016788044019157820540000005874506084134381229_" gradientUnits="userSpaceOnUse" x1="518.5662" y1="227.2746" x2="559.376" y2="250.8361">
						<stop  offset="0" style="stop-color:#BCBEFF"/>
						<stop  offset="0.2271" style="stop-color:#AAADF8"/>
						<stop  offset="0.6802" style="stop-color:#7C83E5"/>
						<stop  offset="1" style="stop-color:#5761D7"/>
					</linearGradient>
					<path style="fill:url(#SVGID_00000016788044019157820540000005874506084134381229_);" d="M564.885,240.662v-4.482l-1.24-0.689
						c-0.35,2.115-2.839,3.509-4.921,3.798l-14.174,8.288l-6.186,2.234l-19.744-10.189l0.456-0.263
						c-1.687-0.788-2.596-2.591-3.509-4.236l-1.329,0.793l-0.79,0.222v4.596h0c0,0.878,0.579,1.756,1.737,2.425l19.781,11.421
						c2.316,1.337,6.085,1.337,8.401,0l19.78-11.42c1.139-0.658,1.718-1.518,1.736-2.382c0.001-0.038-0.001-0.077-0.002-0.116
						L564.885,240.662z"/>
					<path style="opacity:0.3;fill:#0F054C;" d="M558.724,239.29l-14.174,8.288l-5.384,1.944v6.06c1.521,0,3.043-0.334,4.201-1.003
						l19.78-11.42c1.139-0.658,1.718-1.518,1.736-2.382c0.001-0.038-0.001-0.077-0.002-0.116l0.003,0.001v-4.482l-1.133-0.63h-0.118
						C563.247,237.632,560.786,239.003,558.724,239.29z"/>
					<g>
						
							<linearGradient id="SVGID_00000151512417058450715970000008145128434645040545_" gradientUnits="userSpaceOnUse" x1="513.4491" y1="236.1808" x2="564.8847" y2="236.1808">
							<stop  offset="0" style="stop-color:#E9E9FD"/>
							<stop  offset="0.3601" style="stop-color:#D3D2F9"/>
							<stop  offset="0.7062" style="stop-color:#C5C4F7"/>
							<stop  offset="1" style="stop-color:#C0BFF6"/>
						</linearGradient>
						<path style="fill:url(#SVGID_00000151512417058450715970000008145128434645040545_);" d="M534.967,250.026l-19.781-11.42
							c-2.316-1.337-2.316-3.513,0-4.85l19.78-11.42c2.316-1.337,6.084-1.337,8.401,0l19.781,11.421c2.316,1.337,2.316,3.513,0,4.85
							l-19.78,11.42C541.052,251.363,537.283,251.363,534.967,250.026z"/>
					</g>
					<g>
						<path style="fill:#FFFFFF;" d="M563.148,238.606l-19.78,11.42c-2.316,1.337-6.085,1.337-8.401,0l-19.781-11.42
							c-1.035-0.598-1.606-1.363-1.716-2.146c-0.136,0.969,0.435,1.965,1.716,2.704l19.781,11.421c2.316,1.337,6.085,1.337,8.401,0
							l19.78-11.42c1.281-0.74,1.852-1.735,1.716-2.704C564.754,237.243,564.183,238.008,563.148,238.606z"/>
					</g>
				</g>
			</g>
		</g>
	</g>
</g>
<g style="opacity:0.3;">
	
		<linearGradient id="SVGID_00000182520773411502263860000016012191470413016482_" gradientUnits="userSpaceOnUse" x1="430.4973" y1="283.9649" x2="471.307" y2="307.5264">
		<stop  offset="0" style="stop-color:#BCBEFF"/>
		<stop  offset="0.2271" style="stop-color:#AAADF8"/>
		<stop  offset="0.6802" style="stop-color:#7C83E5"/>
		<stop  offset="1" style="stop-color:#5761D7"/>
	</linearGradient>
	<path style="fill:url(#SVGID_00000182520773411502263860000016012191470413016482_);" d="M476.816,297.353l0-4.482l-1.24-0.689
		c-0.35,2.115-2.84,3.509-4.921,3.798l-14.174,8.289l-6.186,2.234l-19.744-10.189l0.456-0.263c-1.688-0.788-2.596-2.591-3.509-4.236
		l-1.329,0.793l-0.79,0.222v4.596h0c0,0.878,0.579,1.756,1.737,2.425l19.781,11.42c2.316,1.337,6.085,1.337,8.401,0l19.78-11.42
		c1.139-0.658,1.718-1.518,1.736-2.382c0.001-0.039-0.001-0.077-0.002-0.116L476.816,297.353z"/>
	<path style="opacity:0.3;fill:#0F054C;" d="M470.655,295.98l-14.174,8.289l-5.384,1.944v6.06c1.521,0,3.043-0.334,4.201-1.003
		l19.78-11.42c1.139-0.658,1.718-1.518,1.736-2.382c0.001-0.039-0.001-0.077-0.002-0.116l0.003,0.001l0-4.482l-1.133-0.63h-0.118
		C475.178,294.323,472.717,295.693,470.655,295.98z"/>
	<g>
		
			<linearGradient id="SVGID_00000152948707450338888490000009714558471577718679_" gradientUnits="userSpaceOnUse" x1="425.3801" y1="292.8711" x2="476.8158" y2="292.8711">
			<stop  offset="0" style="stop-color:#E9E9FD"/>
			<stop  offset="0.3601" style="stop-color:#D3D2F9"/>
			<stop  offset="0.7062" style="stop-color:#C5C4F7"/>
			<stop  offset="1" style="stop-color:#C0BFF6"/>
		</linearGradient>
		<path style="fill:url(#SVGID_00000152948707450338888490000009714558471577718679_);" d="M446.898,306.716l-19.781-11.42
			c-2.316-1.337-2.316-3.513,0-4.85l19.78-11.42c2.316-1.337,6.084-1.337,8.401,0l19.781,11.42c2.316,1.337,2.316,3.513,0,4.85
			l-19.78,11.42C452.983,308.054,449.214,308.054,446.898,306.716z"/>
	</g>
	<g style="opacity:0.3;">
		<path style="fill:#0F054C;" d="M446.898,306.716l-19.781-11.42c-2.316-1.337-2.316-3.513,0-4.85l19.78-11.42
			c2.316-1.337,6.084-1.337,8.401,0l19.781,11.42c2.316,1.337,2.316,3.513,0,4.85l-19.78,11.42
			C452.983,308.054,449.214,308.054,446.898,306.716z"/>
	</g>
</g>
<g>
	<g>
		<path style="fill:#42E8E0;" d="M451.098,290.102c-1.35,0-2.7-0.297-3.727-0.89l-19.781-11.421
			c-1.027-0.593-1.593-1.393-1.593-2.253s0.565-1.66,1.593-2.253l19.78-11.42c2.056-1.185,5.4-1.185,7.456,0l19.781,11.42
			c1.027,0.594,1.593,1.393,1.593,2.254c0,0.859-0.566,1.659-1.593,2.252l-19.78,11.42
			C453.799,289.805,452.448,290.102,451.098,290.102z M447.543,288.912c1.96,1.132,5.15,1.131,7.11-0.001l19.781-11.42
			c0.915-0.528,1.419-1.221,1.419-1.951c0-0.73-0.504-1.425-1.419-1.953l-19.781-11.42c-1.961-1.133-5.15-1.133-7.11,0l-19.78,11.42
			c-0.915,0.528-1.419,1.222-1.419,1.952c0,0.73,0.504,1.424,1.419,1.952L447.543,288.912z"/>
		<g>
			<path style="opacity:0.4;fill:#42E8E0;" d="M476.816,271.155v-6.774l-1.24-0.689c-0.35,2.115-2.84,3.509-4.921,3.798
				l-14.174,8.288l-6.186,2.234l-19.744-10.189l0.456-0.263c-1.687-0.788-2.596-2.592-3.509-4.236l-1.329,0.793l-0.79,0.222v6.888h0
				c0,0.878,0.579,1.756,1.737,2.425l19.781,11.42c2.316,1.337,6.085,1.337,8.401,0l19.78-11.42
				c1.139-0.658,1.718-1.518,1.736-2.382c0.001-0.039-0.001-0.077-0.002-0.116L476.816,271.155z"/>
			<g>
				<g>
					
						<linearGradient id="SVGID_00000092456708369458618690000014285215386266960547_" gradientUnits="userSpaceOnUse" x1="430.4973" y1="251.7467" x2="471.307" y2="275.3082">
						<stop  offset="0" style="stop-color:#BCBEFF"/>
						<stop  offset="0.2271" style="stop-color:#AAADF8"/>
						<stop  offset="0.6802" style="stop-color:#7C83E5"/>
						<stop  offset="1" style="stop-color:#5761D7"/>
					</linearGradient>
					<path style="fill:url(#SVGID_00000092456708369458618690000014285215386266960547_);" d="M476.816,265.135v-4.482l-1.24-0.689
						c-0.35,2.115-2.84,3.509-4.921,3.798l-14.174,8.288l-6.186,2.234l-19.744-10.189l0.456-0.263
						c-1.687-0.788-2.596-2.591-3.509-4.236l-1.329,0.793l-0.79,0.222v4.596h0c0,0.878,0.579,1.756,1.737,2.425l19.781,11.42
						c2.316,1.337,6.085,1.337,8.401,0l19.78-11.42c1.139-0.658,1.718-1.518,1.736-2.382c0.001-0.039-0.001-0.077-0.002-0.116
						L476.816,265.135z"/>
					<path style="opacity:0.3;fill:#0F054C;" d="M470.655,263.762l-14.174,8.288l-5.384,1.944v6.06c1.521,0,3.043-0.334,4.201-1.003
						l19.78-11.42c1.139-0.658,1.718-1.518,1.736-2.382c0.001-0.039-0.001-0.077-0.002-0.116l0.003,0.001v-4.482l-1.133-0.63h-0.118
						C475.178,262.104,472.717,263.475,470.655,263.762z"/>
					<g>
						
							<linearGradient id="SVGID_00000088099293125947595500000004340164179666586791_" gradientUnits="userSpaceOnUse" x1="425.3801" y1="260.6529" x2="476.8158" y2="260.6529">
							<stop  offset="0" style="stop-color:#E9E9FD"/>
							<stop  offset="0.3601" style="stop-color:#D3D2F9"/>
							<stop  offset="0.7062" style="stop-color:#C5C4F7"/>
							<stop  offset="1" style="stop-color:#C0BFF6"/>
						</linearGradient>
						<path style="fill:url(#SVGID_00000088099293125947595500000004340164179666586791_);" d="M446.898,274.498l-19.781-11.42
							c-2.316-1.337-2.316-3.513,0-4.85l19.78-11.42c2.316-1.337,6.084-1.337,8.401,0l19.781,11.42c2.316,1.337,2.316,3.513,0,4.85
							l-19.78,11.42C452.983,275.835,449.214,275.835,446.898,274.498z"/>
					</g>
					<g>
						<path style="fill:#5351AF;" d="M451.098,272.424c-1.22,0-2.439-0.268-3.368-0.804l-15.454-8.923
							c-0.931-0.538-1.444-1.264-1.444-2.045c0-0.781,0.513-1.507,1.444-2.045l15.454-8.923c1.857-1.071,4.879-1.07,6.736,0.001
							l15.454,8.922c0.932,0.538,1.444,1.265,1.444,2.046c0,0.78-0.513,1.507-1.444,2.044l-15.454,8.923
							C453.538,272.156,452.318,272.424,451.098,272.424z M447.903,271.32c1.762,1.018,4.629,1.018,6.39,0l15.454-8.923
							c0.819-0.473,1.27-1.092,1.271-1.743c0-0.652-0.451-1.272-1.271-1.745l-15.454-8.922c-1.762-1.017-4.627-1.018-6.39-0.001
							l-15.454,8.923c-0.819,0.473-1.271,1.093-1.271,1.744c0,0.651,0.452,1.271,1.271,1.744L447.903,271.32z"/>
					</g>
					<g>
						<path style="fill:#FFFFFF;" d="M475.079,263.078l-19.78,11.42c-2.316,1.337-6.085,1.337-8.401,0l-19.781-11.42
							c-1.035-0.598-1.606-1.363-1.716-2.146c-0.136,0.969,0.435,1.965,1.716,2.704l19.781,11.42c2.316,1.337,6.085,1.337,8.401,0
							l19.78-11.42c1.281-0.74,1.852-1.735,1.716-2.704C476.685,261.715,476.114,262.48,475.079,263.078z"/>
					</g>
				</g>
			</g>
		</g>
	</g>
</g>
<g style="opacity:0.3;">
	
		<linearGradient id="SVGID_00000174588081439311392540000012774117835424846218_" gradientUnits="userSpaceOnUse" x1="261.3302" y1="124.9799" x2="302.14" y2="148.5414">
		<stop  offset="0" style="stop-color:#BCBEFF"/>
		<stop  offset="0.2271" style="stop-color:#AAADF8"/>
		<stop  offset="0.6802" style="stop-color:#7C83E5"/>
		<stop  offset="1" style="stop-color:#5761D7"/>
	</linearGradient>
	<path style="fill:url(#SVGID_00000174588081439311392540000012774117835424846218_);" d="M307.649,138.368v-4.482l-1.24-0.689
		c-0.35,2.115-2.839,3.509-4.921,3.798l-14.174,8.288l-6.186,2.234l-19.744-10.189l0.456-0.264
		c-1.687-0.788-2.596-2.591-3.509-4.236l-1.329,0.793l-0.79,0.222v4.596l0,0c0,0.878,0.579,1.756,1.737,2.425l19.781,11.42
		c2.316,1.337,6.085,1.337,8.401,0l19.78-11.42c1.139-0.658,1.718-1.518,1.736-2.382c0.001-0.039-0.001-0.077-0.002-0.116
		L307.649,138.368z"/>
	<path style="opacity:0.3;fill:#0F054C;" d="M301.488,136.995l-14.174,8.288l-5.384,1.944v6.06c1.521,0,3.042-0.334,4.201-1.003
		l19.78-11.42c1.139-0.658,1.718-1.518,1.736-2.382c0.001-0.039-0.001-0.077-0.002-0.116l0.003,0.001v-4.482l-1.133-0.63h-0.118
		C306.011,135.338,303.55,136.708,301.488,136.995z"/>
	<g>
		
			<linearGradient id="SVGID_00000161626954197647211570000003784024142856947354_" gradientUnits="userSpaceOnUse" x1="256.2131" y1="133.8861" x2="307.6487" y2="133.8861">
			<stop  offset="0" style="stop-color:#E9E9FD"/>
			<stop  offset="0.3601" style="stop-color:#D3D2F9"/>
			<stop  offset="0.7062" style="stop-color:#C5C4F7"/>
			<stop  offset="1" style="stop-color:#C0BFF6"/>
		</linearGradient>
		<path style="fill:url(#SVGID_00000161626954197647211570000003784024142856947354_);" d="M277.731,147.731l-19.781-11.42
			c-2.316-1.337-2.316-3.513,0-4.85l19.78-11.42c2.316-1.337,6.084-1.337,8.401,0l19.781,11.42c2.316,1.337,2.316,3.513,0,4.85
			l-19.78,11.42C283.815,149.069,280.047,149.069,277.731,147.731z"/>
	</g>
	<g style="opacity:0.3;">
		<path style="fill:#0F054C;" d="M277.731,147.731l-19.781-11.42c-2.316-1.337-2.316-3.513,0-4.85l19.78-11.42
			c2.316-1.337,6.084-1.337,8.401,0l19.781,11.42c2.316,1.337,2.316,3.513,0,4.85l-19.78,11.42
			C283.815,149.069,280.047,149.069,277.731,147.731z"/>
	</g>
</g>
<g>
	<g>
		<path style="fill:#42E8E0;" d="M281.931,134.048c-1.351,0-2.7-0.297-3.729-0.891l-19.781-11.42
			c-1.027-0.593-1.593-1.394-1.593-2.253c0-0.859,0.565-1.66,1.593-2.253l19.78-11.42c2.056-1.185,5.4-1.185,7.456,0l19.781,11.42
			c1.027,0.593,1.593,1.394,1.593,2.253c0,0.859-0.565,1.66-1.593,2.253l-19.78,11.42
			C284.632,133.751,283.282,134.048,281.931,134.048z M281.931,105.264c-1.288,0-2.575,0.282-3.555,0.849l-19.78,11.42
			c-0.915,0.528-1.419,1.222-1.419,1.952c0,0.73,0.504,1.424,1.419,1.952l19.782,11.42c1.959,1.133,5.149,1.133,7.109,0
			l19.781-11.42c0.915-0.528,1.419-1.222,1.419-1.952c0-0.73-0.504-1.424-1.42-1.952l-19.781-11.42
			C284.505,105.546,283.218,105.264,281.931,105.264z"/>
		<g>
			<path style="opacity:0.4;fill:#42E8E0;" d="M307.649,115.102v-6.773l-1.24-0.689c-0.35,2.115-2.839,3.509-4.921,3.799
				l-14.174,8.288l-6.186,2.234l-19.744-10.189l0.456-0.264c-1.687-0.788-2.596-2.591-3.509-4.236l-1.329,0.793l-0.79,0.222v6.888
				l0,0c0,0.878,0.579,1.756,1.737,2.425l19.781,11.421c2.316,1.337,6.085,1.337,8.401,0l19.78-11.42
				c1.139-0.658,1.718-1.518,1.736-2.382c0.001-0.039-0.001-0.077-0.002-0.116L307.649,115.102z"/>
			<g>
				<g>
					
						<linearGradient id="SVGID_00000158727448115952714360000004730784237350103948_" gradientUnits="userSpaceOnUse" x1="261.3303" y1="95.6929" x2="302.14" y2="119.2544">
						<stop  offset="0" style="stop-color:#BCBEFF"/>
						<stop  offset="0.2271" style="stop-color:#AAADF8"/>
						<stop  offset="0.6802" style="stop-color:#7C83E5"/>
						<stop  offset="1" style="stop-color:#5761D7"/>
					</linearGradient>
					<path style="fill:url(#SVGID_00000158727448115952714360000004730784237350103948_);" d="M307.649,109.081v-4.482l-1.24-0.689
						c-0.35,2.115-2.839,3.509-4.921,3.799l-14.174,8.288l-6.186,2.234l-19.744-10.189l0.456-0.263
						c-1.687-0.788-2.596-2.591-3.509-4.236l-1.329,0.793l-0.79,0.222v4.596l0,0c0,0.878,0.579,1.756,1.737,2.425l19.781,11.421
						c2.316,1.337,6.085,1.337,8.401,0l19.78-11.42c1.139-0.658,1.718-1.518,1.736-2.382c0.001-0.039-0.001-0.077-0.002-0.116
						L307.649,109.081z"/>
					<path style="opacity:0.3;fill:#0F054C;" d="M301.488,107.708l-14.174,8.288l-5.384,1.944v6.06c1.521,0,3.042-0.334,4.201-1.003
						l19.78-11.42c1.139-0.658,1.718-1.518,1.736-2.382c0.001-0.039-0.001-0.077-0.002-0.116l0.003,0.001v-4.482l-1.133-0.63h-0.118
						C306.011,106.051,303.55,107.421,301.488,107.708z"/>
					
						<linearGradient id="SVGID_00000059304773237386258320000000405657963289446833_" gradientUnits="userSpaceOnUse" x1="263.7794" y1="94.1062" x2="300.1736" y2="115.1184">
						<stop  offset="0.2421" style="stop-color:#5761D7"/>
						<stop  offset="0.3923" style="stop-color:#7A82E5"/>
						<stop  offset="0.5463" style="stop-color:#979CF0"/>
						<stop  offset="0.7" style="stop-color:#ACAFF8"/>
						<stop  offset="0.8519" style="stop-color:#B8BAFD"/>
						<stop  offset="1" style="stop-color:#BCBEFF"/>
					</linearGradient>
					<path style="fill:url(#SVGID_00000059304773237386258320000000405657963289446833_);" d="M261.841,107.778l18.745-10.822
						c0.742-0.428,1.948-0.428,2.69,0l18.417,10.633l-0.204,0.119c2.081-0.29,4.571-1.683,4.921-3.799L285.74,92.414l-6.014-1.589
						l-4.897,2.878l-16.497,9.839C259.245,105.186,260.154,106.99,261.841,107.778z"/>
					<path style="opacity:0.3;fill:#0F054C;" d="M281.931,91.407l-2.205-0.583l-4.897,2.878l-16.497,9.839
						c0.913,1.645,1.822,3.448,3.509,4.236l18.745-10.822c0.371-0.214,0.858-0.321,1.345-0.321V91.407z"/>
					<g>
						
							<linearGradient id="SVGID_00000015341675353015904900000007754944483523479471_" gradientUnits="userSpaceOnUse" x1="256.2131" y1="104.5991" x2="307.6487" y2="104.5991">
							<stop  offset="0" style="stop-color:#E9E9FD"/>
							<stop  offset="0.3601" style="stop-color:#D3D2F9"/>
							<stop  offset="0.7062" style="stop-color:#C5C4F7"/>
							<stop  offset="1" style="stop-color:#C0BFF6"/>
						</linearGradient>
						<path style="fill:url(#SVGID_00000015341675353015904900000007754944483523479471_);" d="M277.731,118.444l-19.781-11.42
							c-2.316-1.337-2.316-3.513,0-4.85l19.78-11.42c2.316-1.337,6.084-1.337,8.401,0l19.781,11.421c2.316,1.337,2.316,3.513,0,4.85
							l-19.78,11.42C283.815,119.782,280.047,119.782,277.731,118.444z M283.276,92.402c-0.742-0.428-1.948-0.428-2.69,0
							l-19.78,11.42c-0.742,0.428-0.742,1.125,0,1.553l19.781,11.421c0.742,0.428,1.948,0.428,2.69,0l19.78-11.42
							c0.742-0.428,0.742-1.125,0-1.553L283.276,92.402z"/>
					</g>
					<g>
						<path style="fill:#FFFFFF;" d="M303.056,103.823l-19.781-11.421c-0.742-0.428-1.948-0.428-2.69,0l-19.78,11.42
							c-0.495,0.286-0.658,0.69-0.492,1.056c0.083-0.182,0.245-0.355,0.492-0.497l19.78-11.42c0.742-0.428,1.948-0.428,2.69,0
							l19.781,11.42c0.247,0.142,0.41,0.315,0.492,0.497C303.714,104.513,303.551,104.108,303.056,103.823z"/>
						<path style="fill:#FFFFFF;" d="M305.912,107.024l-19.78,11.42c-2.316,1.337-6.085,1.337-8.401,0l-19.781-11.42
							c-1.035-0.598-1.606-1.363-1.716-2.146c-0.136,0.969,0.435,1.965,1.716,2.704l19.781,11.42c2.316,1.337,6.085,1.337,8.401,0
							l19.78-11.42c1.281-0.74,1.852-1.735,1.716-2.704C307.518,105.661,306.947,106.427,305.912,107.024z"/>
					</g>
					<g>
						
							<linearGradient id="SVGID_00000125593724652814938160000004309650164617787063_" gradientUnits="userSpaceOnUse" x1="257.0027" y1="104.5991" x2="306.859" y2="104.5991">
							<stop  offset="0" style="stop-color:#E9E9FD"/>
							<stop  offset="0.3601" style="stop-color:#D3D2F9"/>
							<stop  offset="0.7062" style="stop-color:#C5C4F7"/>
							<stop  offset="1" style="stop-color:#C0BFF6"/>
						</linearGradient>
						<path style="fill:url(#SVGID_00000125593724652814938160000004309650164617787063_);" d="M278.29,118.122l-19.781-11.421
							c-2.008-1.159-2.008-3.046,0-4.205l19.78-11.42c2.008-1.159,5.275-1.159,7.283,0l19.781,11.42
							c2.008,1.159,2.008,3.046,0,4.205l-19.78,11.42C283.565,119.281,280.298,119.281,278.29,118.122z M283.834,92.08
							c-1.05-0.606-2.758-0.606-3.807,0l-19.78,11.42c-1.05,0.606-1.05,1.592,0,2.198l19.781,11.42c1.05,0.606,2.757,0.606,3.807,0
							l19.78-11.42c1.05-0.606,1.05-1.592,0-2.198L283.834,92.08z"/>
					</g>
				</g>
				<path style="opacity:0.4;fill:#42E8E0;" d="M283.276,92.402c-0.742-0.428-1.948-0.428-2.69,0l-19.78,11.42
					c-0.742,0.428-0.742,1.125,0,1.553l19.781,11.421c0.742,0.428,1.948,0.428,2.69,0l19.78-11.42c0.742-0.428,0.742-1.125,0-1.553
					L283.276,92.402z"/>
			</g>
		</g>
	</g>
	
		<linearGradient id="SVGID_00000114038214289054570790000013879536244632413357_" gradientUnits="userSpaceOnUse" x1="281.9297" y1="117.117" x2="281.9297" y2="34.0347">
		<stop  offset="0" style="stop-color:#42E8E0"/>
		<stop  offset="0.1055" style="stop-color:#37B6BF"/>
		<stop  offset="0.2197" style="stop-color:#2C87A1"/>
		<stop  offset="0.338" style="stop-color:#235F87"/>
		<stop  offset="0.4587" style="stop-color:#1C3F72"/>
		<stop  offset="0.5824" style="stop-color:#162561"/>
		<stop  offset="0.7105" style="stop-color:#121355"/>
		<stop  offset="0.8458" style="stop-color:#10084E"/>
		<stop  offset="1" style="stop-color:#0F054C"/>
	</linearGradient>
	<path style="opacity:0.5;fill:url(#SVGID_00000114038214289054570790000013879536244632413357_);" d="M303.61,104.584V34.035
		h-43.361l0.003,70.549c-0.007,0.286,0.176,0.574,0.554,0.792l19.781,11.421c0.742,0.428,1.948,0.428,2.69,0l19.78-11.42
		C303.434,105.158,303.617,104.87,303.61,104.584z"/>
</g>
<g>
	<path style="fill:#9FFFF8;" d="M439.185,160.762c0-11.151-7.829-24.711-17.486-30.286c-4.838-2.793-9.216-3.052-12.382-1.214
		v-0.001l-3.306,1.934l0.96,0.09c-1.743,2.134-2.758,5.279-2.758,9.286c0,11.151,7.829,24.711,17.486,30.286
		c3.318,1.916,6.421,2.64,9.064,2.312l-0.074,0.886l3.356-1.964c0.014-0.008,0.027-0.016,0.041-0.024l0.136-0.079l-0.007-0.002
		C437.288,170.122,439.185,166.247,439.185,160.762z"/>
	
		<ellipse transform="matrix(0.866 -0.5 0.5 0.866 -20.2601 229.637)" style="fill:#42E8E0;" cx="418.355" cy="152.622" rx="14.277" ry="24.729"/>
</g>
<g>
	<path style="fill:#9FFFF8;" d="M398.332,112.569c6.474-9.079,7.971-24.665,3.345-34.812c-2.318-5.083-5.732-7.836-9.377-8.177
		l0.001-0.001l-3.815-0.344l0.73,0.631c-2.658,0.725-5.31,2.697-7.637,5.959c-6.474,9.079-7.971,24.665-3.345,34.812
		c1.59,3.487,3.696,5.877,6.038,7.145l-0.575,0.679l3.873,0.349c0.016,0.001,0.032,0.003,0.048,0.004l0.157,0.014l-0.005-0.006
		C391.354,119.089,395.148,117.035,398.332,112.569z"/>
	
		<ellipse transform="matrix(0.0956 -0.9954 0.9954 0.0956 255.7578 469.2035)" style="fill:#42E8E0;" cx="386.098" cy="93.849" rx="24.729" ry="14.277"/>
</g>
<g style="opacity:0.1;">
	<path style="fill:#9FFFF8;" d="M404.212,185.976c0-11.151-7.829-24.711-17.486-30.286c-4.838-2.793-9.216-3.052-12.382-1.214
		v-0.001l-3.306,1.934l0.96,0.09c-1.743,2.134-2.758,5.279-2.758,9.286c0,11.151,7.829,24.711,17.486,30.286
		c3.319,1.916,6.421,2.64,9.064,2.312l-0.074,0.886l3.356-1.964c0.014-0.008,0.028-0.016,0.041-0.024l0.136-0.079l-0.008-0.002
		C402.316,195.336,404.212,191.46,404.212,185.976z"/>
	
		<ellipse transform="matrix(0.866 -0.5 0.5 0.866 -37.5536 215.5267)" style="fill:#42E8E0;" cx="383.383" cy="177.836" rx="14.277" ry="24.729"/>
</g>
<path style="opacity:0.4;fill:#42E8E0;" d="M384.513,204.173c-12.063,0-24.126-2.651-33.31-7.953
	c-8.931-5.156-13.849-12.022-13.849-19.333c0-7.31,4.918-14.175,13.848-19.33c18.366-10.605,48.251-10.604,66.619,0
	c8.931,5.156,13.849,12.021,13.849,19.332c0,7.311-4.917,14.176-13.848,19.331l-0.086-0.15l0.086,0.15
	C408.639,201.522,396.577,204.173,384.513,204.173z M384.512,149.946c-12,0-24,2.637-33.136,7.912
	c-8.818,5.091-13.674,11.849-13.674,19.029c0,7.182,4.856,13.941,13.675,19.032c18.272,10.552,48.001,10.552,66.273,0l0,0
	c8.818-5.091,13.674-11.849,13.674-19.03c0-7.181-4.857-13.941-13.675-19.031C408.513,152.583,396.513,149.946,384.512,149.946z"/>
<path style="opacity:0.2;fill:#42E8E0;" d="M384.514,211.486c-15.31,0-30.616-3.363-42.271-10.093
	c-11.324-6.538-17.56-15.24-17.56-24.505c0-9.265,6.236-17.968,17.559-24.505c23.308-13.457,61.232-13.456,84.54,0.001
	c11.324,6.538,17.56,15.24,17.56,24.505c0,9.265-6.236,17.968-17.559,24.505C415.131,208.122,399.821,211.486,384.514,211.486z
	 M384.511,142.633c-15.246,0-30.489,3.35-42.096,10.051c-11.211,6.473-17.386,15.068-17.385,24.204
	c0,9.136,6.174,17.731,17.386,24.204c23.213,13.403,60.981,13.404,84.194,0.001c11.211-6.473,17.385-15.068,17.385-24.204
	c0-9.136-6.174-17.732-17.386-24.204C415.003,145.984,399.756,142.633,384.511,142.633z"/>
<path style="fill:#42E8E0;" d="M384.513,198.413c-9.506,0-19.013-2.089-26.25-6.268c-7.045-4.067-10.925-9.485-10.925-15.257
	c0-5.77,3.879-11.188,10.924-15.256c14.475-8.355,38.027-8.355,52.501,0c7.045,4.067,10.925,9.485,10.925,15.257
	c0,5.77-3.879,11.188-10.924,15.256l-0.086-0.15l0.086,0.15C403.527,196.324,394.02,198.413,384.513,198.413z M384.512,155.706
	c-9.444,0-18.888,2.075-26.078,6.227c-6.932,4.002-10.75,9.313-10.75,14.955s3.818,10.953,10.751,14.956
	c14.38,8.304,37.776,8.302,52.155,0c6.933-4.002,10.75-9.313,10.75-14.955s-3.818-10.953-10.751-14.956
	C403.4,157.782,393.956,155.706,384.512,155.706z"/>
<g>
	<defs>
		<polygon id="SVGID_00000109010244132281619900000004664243217366769806_" points="411.892,181.556 400.901,187.891 
			357.133,162.621 357.133,114.025 411.892,145.64 		"/>
	</defs>
	<clipPath id="SVGID_00000010989788059007972600000013868379965243146164_">
		<use xlink:href="#SVGID_00000109010244132281619900000004664243217366769806_"  style="overflow:visible;"/>
	</clipPath>
	<g style="clip-path:url(#SVGID_00000010989788059007972600000013868379965243146164_);">
		<path style="fill:#9FFFF8;" d="M404.212,185.976c0-11.151-7.829-24.711-17.486-30.286c-4.838-2.793-9.216-3.052-12.382-1.214
			v-0.001l-3.306,1.934l0.96,0.09c-1.743,2.134-2.758,5.279-2.758,9.286c0,11.151,7.829,24.711,17.486,30.286
			c3.319,1.916,6.421,2.64,9.064,2.312l-0.074,0.886l3.356-1.964c0.014-0.008,0.028-0.016,0.041-0.024l0.136-0.079l-0.008-0.002
			C402.316,195.336,404.212,191.46,404.212,185.976z"/>
		
			<ellipse transform="matrix(0.866 -0.5 0.5 0.866 -37.5536 215.5267)" style="fill:#42E8E0;" cx="383.383" cy="177.836" rx="14.277" ry="24.729"/>
	</g>
</g>
<g>
	<path style="opacity:0.4;fill:#24126A;" d="M337.549,234.217l-54.919-31.707c-1.62-0.935-1.62-3.273,0-4.209l8.384-4.882
		c2.802-1.618,6.255-1.618,9.058,0l54.918,31.707c1.62,0.935,1.62,3.273,0,4.209l-8.384,4.882
		C343.805,235.835,340.352,235.835,337.549,234.217z"/>
	<polygon style="fill:#42E8E0;" points="310.057,201.809 301.267,196.734 303.015,195.724 311.805,200.799 	"/>
	<polygon style="fill:#42E8E0;" points="334.836,216.471 332.136,214.912 333.884,213.903 336.584,215.462 	"/>
	<polygon style="fill:#42E8E0;" points="315.148,204.825 312.448,203.267 314.196,202.257 316.896,203.816 	"/>
	<path style="fill:#42E8E0;" d="M342.078,227.902c-1.6,0-3.201-0.412-4.628-1.236l-54.919-31.707
		c-0.823-0.476-1.314-1.326-1.314-2.276s0.491-1.801,1.314-2.276l8.384-4.883c2.855-1.648,6.402-1.648,9.257,0l54.918,31.708
		c0.823,0.475,1.314,1.325,1.314,2.276c0,0.95-0.491,1.801-1.314,2.275l-8.384,4.883C345.28,227.49,343.678,227.902,342.078,227.902
		z M295.544,184.683c-1.532,0-3.064,0.395-4.43,1.184l-8.384,4.883c-0.699,0.403-1.116,1.126-1.116,1.933
		c0,0.807,0.417,1.529,1.116,1.933l54.919,31.707c2.732,1.578,6.127,1.578,8.859,0l8.384-4.883c0.699-0.403,1.116-1.125,1.116-1.932
		c0-0.808-0.417-1.529-1.116-1.933l-54.918-31.708C298.608,185.078,297.076,184.683,295.544,184.683z"/>
</g>
</svg>
