<?xml version="1.0" encoding="utf-8"?>
<!-- Generator: Adobe Illustrator 27.5.0, SVG Export Plug-In . SVG Version: 6.00 Build 0)  -->
<svg version="1.1" id="Ñëîé_1" xmlns="http://www.w3.org/2000/svg" xmlns:xlink="http://www.w3.org/1999/xlink" x="0px" y="0px"
	 viewBox="100 50 400 300" style="enable-background:new 0 0 600 450;" xml:space="preserve">

<g>
	<path style="opacity:0.2;fill:#0B0244;" d="M328.732,290.37l55.707-37.658c1.568-1.057,1.645-2.497,0.174-3.215l-24.856-12.124
		c-1.472-0.718-3.936-0.443-5.504,0.615l-146.626,98.896c-1.568,1.057-1.645,2.497-0.174,3.214l24.856,12.124
		c1.472,0.718,3.936,0.443,5.504-0.615l59.493-40.041l71.454,39.25l31.39-18.123L328.732,290.37z"/>
	<g>
		<g>
			<path style="fill:#5E1D79;" d="M201.393,182.739l-0.001-0.02l0.01,0.005c1.242-2.574,2.931-4.781,4.799-6.005l139.271-91.322
				c3.688-2.418,6.747-0.022,6.836,5.356l1.988,121.352c0.09,5.549-2.875,12.086-6.626,14.599l-116.246,77.863l0.25,34.232
				L201.2,322.023l-0.001-0.064c-1.348-0.98-2.209-3.029-2.202-5.991l0.308-124.74C199.313,188.427,200.117,185.389,201.393,182.739
				z"/>
			
				<linearGradient id="SVGID_00000068661823674349909120000014547059395143084706_" gradientUnits="userSpaceOnUse" x1="355.5878" y1="168.1725" x2="149.362" y2="349.1086" gradientTransform="matrix(0.9902 0.1396 -0.1396 0.9902 38.6389 -125.5211)">
				<stop  offset="0" style="stop-color:#F88B93"/>
				<stop  offset="0.2064" style="stop-color:#D76D8E"/>
				<stop  offset="0.5733" style="stop-color:#A23D87"/>
				<stop  offset="0.8491" style="stop-color:#811F82"/>
				<stop  offset="1" style="stop-color:#751480"/>
			</linearGradient>
			<path style="fill:url(#SVGID_00000068661823674349909120000014547059395143084706_);" d="M379.275,100.604l-29.088-15.486
				l-0.933-0.497c-1.087-0.361-2.39-0.137-3.783,0.777L206.2,176.72c-1.869,1.225-3.565,3.424-4.807,6l4.376,2.538l0,0
				l24.891,14.434l122.097-81.407l0,0L379.275,100.604z"/>
			
				<linearGradient id="SVGID_00000154426294576554633210000004411514970408489097_" gradientUnits="userSpaceOnUse" x1="369.7275" y1="287.1809" x2="91.0139" y2="371.8138" gradientTransform="matrix(0.9902 0.1396 -0.1396 0.9902 38.6389 -125.5211)">
				<stop  offset="0" style="stop-color:#FCBA9D"/>
				<stop  offset="0.5634" style="stop-color:#EE8594"/>
				<stop  offset="1" style="stop-color:#E4608D"/>
			</linearGradient>
			<path style="fill:url(#SVGID_00000154426294576554633210000004411514970408489097_);" d="M377.629,242.911l-141.496,95.282
				c-3.854,2.595-6.986,0.055-6.993-5.67l-0.143-125.171c-0.006-5.546,3.061-12.062,6.848-14.558l139.068-91.671
				c3.682-2.427,6.753-0.024,6.861,5.372l2.434,121.765C384.319,233.826,381.375,240.388,377.629,242.911z"/>
			<path style="fill:#5E1D79;" d="M213.735,323.837l0.088-124.944c0.004-5.536,3.082-12.04,6.872-14.531l139.168-91.487
				c1.143-0.751,2.226-1.037,3.179-0.916c-1.17-0.601-2.642-0.457-4.231,0.587l-139.18,91.481c-3.791,2.491-6.869,8.995-6.873,14.53
				l-0.105,124.937c-0.003,3.941,1.362,6.514,3.552,6.791C214.623,329.448,213.732,327.086,213.735,323.837z"/>
			<g>
				<g>
					<path style="fill:#FBB29B;" d="M279.155,145.221l-6.386-3.831c-1.446-0.868-2.864-1.249-4.114-1.105l-0.551,0.063
						c-0.684,0.078-1.102,0.737-1.096,1.727l0.007,1.18l17.978,10.793l-0.01-1.182c-0.008-0.992-0.44-2.163-1.132-3.068
						l-0.558-0.729C282.028,147.416,280.602,146.089,279.155,145.221z"/>
					<polygon style="fill:#FBB29B;" points="275.164,160.522 284.992,154.047 267.437,140.687 257.753,147.013 					"/>
					<path style="fill:#5E1D79;" d="M269.331,151.68l-6.388-3.837c-1.447-0.869-2.866-1.251-4.118-1.107l-0.552,0.064
						c-0.684,0.079-1.104,0.739-1.1,1.731l0.005,1.181l17.985,10.81l-0.008-1.185c-0.007-0.994-0.438-2.166-1.129-3.072l-0.558-0.73
						C272.205,153.879,270.779,152.551,269.331,151.68z"/>
					<polygon style="fill:#460F60;" points="264.99,154.405 264.96,149.053 265.505,149.38 265.535,154.733 					"/>
					<polygon style="fill:#D87960;" points="264.96,149.057 275.029,142.747 275.493,143.026 265.505,149.384 					"/>
				</g>
				<g>
					<path style="fill:#FBB29B;" d="M323.449,116.158l-6.373-3.804c-1.444-0.861-2.856-1.241-4.1-1.098l-0.548,0.062
						c-0.68,0.078-1.093,0.732-1.082,1.714l0.014,1.17l17.944,10.717l-0.016-1.173c-0.013-0.984-0.449-2.146-1.143-3.043
						l-0.559-0.724C326.32,118.337,324.894,117.021,323.449,116.158z"/>
					<polygon style="fill:#FBB29B;" points="319.562,131.337 329.304,124.918 311.767,111.654 302.167,117.924 					"/>
					<path style="fill:#5E1D79;" d="M313.71,122.562l-6.376-3.81c-1.444-0.863-2.857-1.242-4.102-1.1l-0.549,0.063
						c-0.68,0.077-1.095,0.732-1.084,1.716l0.012,1.173l17.952,10.734l-0.014-1.175c-0.012-0.986-0.448-2.15-1.141-3.049
						l-0.558-0.725C316.582,124.744,315.155,123.425,313.71,122.562z"/>
					<polygon style="fill:#460F60;" points="309.406,125.262 309.347,119.952 309.891,120.277 309.95,125.587 					"/>
					<polygon style="fill:#D87960;" points="309.348,119.956 319.331,113.702 319.794,113.979 309.891,120.281 					"/>
				</g>
				<g>
					<path style="fill:#5E1D79;" d="M263.923,123.546l0.123,22.648l6.58-4.319l-0.138-22.015c-0.02-3.214,2.034-7.172,4.587-8.84
						l28.419-18.578c2.538-1.659,4.622-0.416,4.657,2.777l0.239,21.867l6.522-4.282l-0.263-22.444
						c-0.083-7.038-4.681-9.776-10.277-6.122l-30.311,19.792C268.426,107.71,263.884,116.444,263.923,123.546z"/>
					<path style="fill:#5E1D79;" d="M312.845,91.783l-10.704-2.064l-34.143,25.018l-3.108,17.065l-0.844,14.392l6.632,3.983
						l2.054-17.844l1.635-12.2l7.389-8.258c0,0,12.652-7.976,12.799-8.22C294.701,103.409,312.845,91.783,312.845,91.783z"/>
					<polygon style="fill:#5E1D79;" points="315.009,121.04 308.39,117.086 308.214,100.98 314.821,102.103 316.758,102.619 					
						"/>
					<path style="fill:#5E1D79;" d="M318.329,87.319l-7.137-4.235c0,0,1.563,4.116,1.599,4.094c0.037-0.022,2.384,1.063,2.426,1.062
						L318.329,87.319z"/>
					<path style="fill:#FBB29B;" d="M270.536,127.51l0.142,22.667l6.578-4.323L277.1,123.82c-0.023-3.217,2.029-7.178,4.581-8.848
						l28.411-18.595c2.537-1.661,4.623-0.418,4.66,2.778l0.257,21.885l6.521-4.286l-0.282-22.462
						c-0.088-7.045-4.69-9.784-10.284-6.127l-30.303,19.811C275.027,111.659,270.491,120.401,270.536,127.51z"/>
				</g>
			</g>
		</g>
		
			<linearGradient id="SVGID_00000014630111508160727590000013334137264076156304_" gradientUnits="userSpaceOnUse" x1="262.0377" y1="430.4494" x2="305.4775" y2="127.1837" gradientTransform="matrix(0.9902 0.1396 -0.1396 0.9902 38.6389 -125.5211)">
			<stop  offset="0" style="stop-color:#FCBA9D"/>
			<stop  offset="0.5965" style="stop-color:#FEE5DA"/>
			<stop  offset="1" style="stop-color:#FFFFFF"/>
		</linearGradient>
		<path style="opacity:0.1;fill:url(#SVGID_00000014630111508160727590000013334137264076156304_);" d="M323.92,134.737
			l-66.016,43.516l-28.83,96.289l0.066,57.981c0.006,5.725,3.138,8.265,6.993,5.67l33.655-22.663L323.92,134.737z"/>
		
			<linearGradient id="SVGID_00000132783785522189753380000011905275514194734211_" gradientUnits="userSpaceOnUse" x1="330.8982" y1="368.1799" x2="362.3433" y2="134.8219" gradientTransform="matrix(0.9902 0.1396 -0.1396 0.9902 38.6389 -125.5211)">
			<stop  offset="0" style="stop-color:#FCBA9D"/>
			<stop  offset="0.5965" style="stop-color:#FEE5DA"/>
			<stop  offset="1" style="stop-color:#FFFFFF"/>
		</linearGradient>
		<path style="opacity:0.1;fill:url(#SVGID_00000132783785522189753380000011905275514194734211_);" d="M291.193,301.116
			l43.931-29.582l46.823-156.386l-0.173-8.653c-0.108-5.396-3.178-7.799-6.861-5.372l-29.703,19.58L291.193,301.116z"/>
	</g>
	<path style="opacity:0.5;fill:#5E1D79;" d="M325.236,249.103v-5.402v-40.115l12.024-6.942l-27.719-24.152l-27.719,56.159
		l12.024-6.942v40.115v5.402c0,9.031,2.226,18.744,6.07,28.109l30.451-20.505C327.104,266.209,325.236,257.371,325.236,249.103z"/>
	
		<linearGradient id="SVGID_00000115487377644587535330000015748478418721940412_" gradientUnits="userSpaceOnUse" x1="1647.3712" y1="335.6136" x2="1742.662" y2="230.162" gradientTransform="matrix(-1 0 0 1 2054.4961 0)">
		<stop  offset="0" style="stop-color:#C5468F"/>
		<stop  offset="0.3015" style="stop-color:#D45B90"/>
		<stop  offset="1" style="stop-color:#F88B93"/>
	</linearGradient>
	<path style="fill:url(#SVGID_00000115487377644587535330000015748478418721940412_);" d="M320.973,172.492l27.719,24.152
		l-12.024,6.942v40.115v5.403c0,25.798,18.112,57.168,40.454,70.067l23.028,13.522l-31.39,18.123l-23.027-13.522
		c-22.342-12.899-40.454-44.27-40.454-70.067v-5.402v-40.115l-12.024,6.942L320.973,172.492z"/>
</g>
</svg>
