<?xml version="1.0" encoding="utf-8"?>
<!-- Generator: Adobe Illustrator 27.5.0, SVG Export Plug-In . SVG Version: 6.00 Build 0)  -->
<svg version="1.1" id="Ñëîé_1" xmlns="http://www.w3.org/2000/svg" xmlns:xlink="http://www.w3.org/1999/xlink" x="0px" y="0px"
	 viewBox="150 0 300 450" xml:space="preserve">
<!-- <radialGradient id="SVGID_1_" cx="380.0082" cy="175.0036" r="535.7635" fx="849.8658" fy="-82.4384" gradientUnits="userSpaceOnUse">
	<stop  offset="0" style="stop-color:#2B237C"/>
	<stop  offset="1" style="stop-color:#180D5B"/>
</radialGradient> -->
<rect style="fill:url(#SVGID_1_);" width="600" height="450"/>
<g>
	<g>
		<g>
			<g>
				<g style="opacity:0.11;">
					
						<linearGradient id="SVGID_00000152223577534878669390000017277782703867718591_" gradientUnits="userSpaceOnUse" x1="87.5326" y1="311.2014" x2="329.4045" y2="311.2014" gradientTransform="matrix(-1 0 0 1 519.6742 0)">
						<stop  offset="0" style="stop-color:#5761D7"/>
						<stop  offset="0.0726" style="stop-color:#5472D8"/>
						<stop  offset="0.2791" style="stop-color:#4E9CDB"/>
						<stop  offset="0.4801" style="stop-color:#49BDDD"/>
						<stop  offset="0.6715" style="stop-color:#45D5DF"/>
						<stop  offset="0.8493" style="stop-color:#43E3E0"/>
						<stop  offset="1" style="stop-color:#42E8E0"/>
					</linearGradient>
					<path style="fill:url(#SVGID_00000152223577534878669390000017277782703867718591_);" d="M301.857,245.135
						c5.733-3.31,12.796-3.314,18.532-0.009l110.449,63.621c1.739,1.004,1.739,3.513,0,4.517l-111.369,64.299
						c-5.06,2.921-11.294,2.921-16.354,0l-111.541-64.239c-1.739-1.004-1.739-3.513,0-4.517L301.857,245.135z"/>
				</g>
				<g style="opacity:0.11;">
					
						<linearGradient id="SVGID_00000165938821343047067120000014899231289109378742_" gradientUnits="userSpaceOnUse" x1="87.5326" y1="292.595" x2="329.4045" y2="292.595" gradientTransform="matrix(-1 0 0 1 519.6742 0)">
						<stop  offset="0" style="stop-color:#5761D7"/>
						<stop  offset="0.0726" style="stop-color:#5472D8"/>
						<stop  offset="0.2791" style="stop-color:#4E9CDB"/>
						<stop  offset="0.4801" style="stop-color:#49BDDD"/>
						<stop  offset="0.6715" style="stop-color:#45D5DF"/>
						<stop  offset="0.8493" style="stop-color:#43E3E0"/>
						<stop  offset="1" style="stop-color:#42E8E0"/>
					</linearGradient>
					<path style="fill:url(#SVGID_00000165938821343047067120000014899231289109378742_);" d="M301.857,226.528
						c5.733-3.31,12.796-3.314,18.532-0.009l110.449,63.621c1.739,1.004,1.739,3.514,0,4.517l-111.369,64.299
						c-5.06,2.921-11.294,2.921-16.354,0l-111.541-64.239c-1.739-1.004-1.739-3.513,0-4.517L301.857,226.528z"/>
				</g>
				<g style="opacity:0.11;">
					
						<linearGradient id="SVGID_00000016063672403043026320000017344254051934535354_" gradientUnits="userSpaceOnUse" x1="87.5326" y1="292.595" x2="329.4045" y2="292.595" gradientTransform="matrix(-1 0 0 1 519.6742 0)">
						<stop  offset="0" style="stop-color:#5761D7"/>
						<stop  offset="0.0726" style="stop-color:#5472D8"/>
						<stop  offset="0.2791" style="stop-color:#4E9CDB"/>
						<stop  offset="0.4801" style="stop-color:#49BDDD"/>
						<stop  offset="0.6715" style="stop-color:#45D5DF"/>
						<stop  offset="0.8493" style="stop-color:#43E3E0"/>
						<stop  offset="1" style="stop-color:#42E8E0"/>
					</linearGradient>
					<path style="fill:url(#SVGID_00000016063672403043026320000017344254051934535354_);" d="M301.857,226.528
						c5.733-3.31,12.796-3.314,18.532-0.009l110.449,63.621c1.739,1.004,1.739,3.514,0,4.517l-111.369,64.299
						c-5.06,2.921-11.294,2.921-16.354,0l-111.541-64.239c-1.739-1.004-1.739-3.513,0-4.517L301.857,226.528z"/>
				</g>
				
					<linearGradient id="SVGID_00000074438038768531858240000015793575277534107811_" gradientUnits="userSpaceOnUse" x1="87.534" y1="326.1301" x2="329.403" y2="326.1301" gradientTransform="matrix(-1 0 0 1 519.6742 0)">
					<stop  offset="0" style="stop-color:#5761D7"/>
					<stop  offset="0.0726" style="stop-color:#5472D8"/>
					<stop  offset="0.2791" style="stop-color:#4E9CDB"/>
					<stop  offset="0.4801" style="stop-color:#49BDDD"/>
					<stop  offset="0.6715" style="stop-color:#45D5DF"/>
					<stop  offset="0.8493" style="stop-color:#43E3E0"/>
					<stop  offset="1" style="stop-color:#42E8E0"/>
				</linearGradient>
				<path style="fill:url(#SVGID_00000074438038768531858240000015793575277534107811_);" d="M191.574,292.147l111.541,64.239
					c5.06,2.921,11.294,2.921,16.354,0l111.369-64.299c0.429-0.248,0.75-0.588,0.967-0.974c0.664,1.178,0.342,2.788-0.967,3.544
					l-111.369,64.299c-5.06,2.921-11.294,2.921-16.354,0l-111.541-64.239c-1.31-0.756-1.631-2.366-0.967-3.544
					C190.824,291.559,191.145,291.9,191.574,292.147z"/>
			</g>
			
				<linearGradient id="SVGID_00000114788129439124134760000009980901793845335967_" gradientUnits="userSpaceOnUse" x1="87.5326" y1="311.2336" x2="329.4045" y2="311.2336" gradientTransform="matrix(-1 0 0 1 519.6742 0)">
				<stop  offset="0" style="stop-color:#5761D7"/>
				<stop  offset="0.0726" style="stop-color:#5472D8"/>
				<stop  offset="0.2791" style="stop-color:#4E9CDB"/>
				<stop  offset="0.4801" style="stop-color:#49BDDD"/>
				<stop  offset="0.6715" style="stop-color:#45D5DF"/>
				<stop  offset="0.8493" style="stop-color:#43E3E0"/>
				<stop  offset="1" style="stop-color:#42E8E0"/>
			</linearGradient>
			<path style="opacity:0.5;fill:url(#SVGID_00000114788129439124134760000009980901793845335967_);" d="M191.574,290.2
				l110.283-63.672c5.733-3.31,12.796-3.314,18.532-0.009l110.449,63.621c0.869,0.502,1.304,1.38,1.304,2.259v37.277
				c0,0.878-0.435,1.757-1.304,2.259l-111.369,64.299c-5.06,2.921-11.294,2.921-16.354,0l-111.541-64.239
				c-0.87-0.502-1.304-1.38-1.304-2.259v-37.277l0,0C190.27,291.58,190.704,290.702,191.574,290.2z"/>
		</g>
	</g>
	<g style="opacity:0.5;">
		<path style="fill:#42E8E0;" d="M424.692,151.355c2.68,0.693,5.314,1.417,7.901,2.172v19.098c-2.587-0.755-5.221-1.479-7.901-2.172
			V151.355L424.692,151.355z"/>
		<path style="opacity:0.5;fill:#42E8E0;" d="M406.386,152.155c2.866,0.549,5.692,1.132,8.477,1.747v14.197
			c-2.784-0.616-5.611-1.199-8.477-1.747V152.155L406.386,152.155z"/>
		<path style="fill:#42E8E0;" d="M386.927,136.604c3.029,0.394,6.024,0.824,8.982,1.29l0,26.632
			c-2.958-0.466-5.952-0.896-8.981-1.29V136.604L386.927,136.604z"/>
		<path style="opacity:0.5;fill:#42E8E0;" d="M366.466,119.819c3.17,0.228,6.31,0.495,9.419,0.8v41.36
			c-3.109-0.305-6.249-0.572-9.419-0.8V119.819L366.466,119.819z"/>
		<path style="opacity:0.5;fill:#42E8E0;" d="M345.134,128.698c3.294,0.051,6.564,0.144,9.808,0.277v31.555
			c-3.244-0.133-6.514-0.226-9.808-0.277V128.698L345.134,128.698z"/>
		<path style="fill:#42E8E0;" d="M323.599,95.668c3.216-0.13,6.456-0.22,9.718-0.269v64.851c-3.262,0.049-6.503,0.139-9.718,0.269
			V95.668L323.599,95.668z"/>
		<path style="fill:#42E8E0;" d="M302.771,109.022c3.095-0.301,6.219-0.564,9.372-0.789v52.925
			c-3.152,0.225-6.277,0.488-9.372,0.789V109.022L302.771,109.022z"/>
		<path style="fill:#42E8E0;" d="M282.818,91.743c2.95-0.461,5.936-0.888,8.955-1.277v72.724c-3.019,0.39-6.005,0.816-8.955,1.277
			V91.743L282.818,91.743z"/>
	</g>
	<g>
		<g>
			<ellipse style="opacity:0.2;fill:#42E8E0;" cx="311.206" cy="291.328" rx="70.294" ry="40.584"/>
			<ellipse style="fill:#42E8E0;" cx="311.206" cy="291.328" rx="39.878" ry="23.024"/>
		</g>
		<g>
			
				<rect x="366.113" y="227.156" transform="matrix(0.927 -0.3752 0.3752 0.927 -66.8799 156.6311)" style="fill:#42E8E0;" width="5.368" height="45.821"/>
			<g>
				<g>
					<g>
						
							<radialGradient id="SVGID_00000012465940033073988240000001336268065095120808_" cx="-80.1089" cy="-180.3883" r="96.2703" gradientTransform="matrix(0.981 0.1942 -0.1942 0.981 391.4709 347.2711)" gradientUnits="userSpaceOnUse">
							<stop  offset="0" style="stop-color:#C0BFF6"/>
							<stop  offset="1" style="stop-color:#393091"/>
						</radialGradient>
						
							<circle style="fill:url(#SVGID_00000012465940033073988240000001336268065095120808_);" cx="268.144" cy="208.037" r="16.678"/>
					</g>
				</g>
				<g>
					<g>
						
							<radialGradient id="SVGID_00000164497408938777945310000016906291302269786034_" cx="923.8829" cy="327.7032" r="95.1077" gradientTransform="matrix(0.7781 0 0 1.0592 -382.2604 -123.1801)" gradientUnits="userSpaceOnUse">
							<stop  offset="0" style="stop-color:#C0BFF6"/>
							<stop  offset="1" style="stop-color:#393091"/>
						</radialGradient>
						<path style="fill:url(#SVGID_00000164497408938777945310000016906291302269786034_);" d="M354.267,232.708
							c0,32.375-19.279,58.62-43.061,58.62c-23.782,0-43.061-26.245-43.061-58.62c0-32.375,19.279-42.076,43.061-42.076
							C334.988,190.631,354.267,200.333,354.267,232.708z"/>
					</g>
				</g>
				<g>
					<g>
						
							<linearGradient id="SVGID_00000027564073328861076850000006765832695137249974_" gradientUnits="userSpaceOnUse" x1="891.23" y1="391.3403" x2="891.23" y2="296.2721" gradientTransform="matrix(0.7781 0 0 1.0592 -382.2604 -123.1801)">
							<stop  offset="0" style="stop-color:#42E8E0"/>
							<stop  offset="0.0047" style="stop-color:#42E6DF"/>
							<stop  offset="0.1358" style="stop-color:#40B6CB"/>
							<stop  offset="0.2707" style="stop-color:#3E8DB9"/>
							<stop  offset="0.4074" style="stop-color:#3C6BAA"/>
							<stop  offset="0.5467" style="stop-color:#3B519F"/>
							<stop  offset="0.6893" style="stop-color:#3A3F97"/>
							<stop  offset="0.8375" style="stop-color:#393493"/>
							<stop  offset="1" style="stop-color:#393091"/>
						</linearGradient>
						<path style="fill:url(#SVGID_00000027564073328861076850000006765832695137249974_);" d="M354.267,232.708
							c0,32.375-19.279,58.62-43.061,58.62c-23.782,0-43.061-26.245-43.061-58.62c0-32.375,19.279-42.076,43.061-42.076
							C334.988,190.631,354.267,200.333,354.267,232.708z"/>
					</g>
				</g>
				<ellipse style="fill:#393091;" cx="311.206" cy="208.037" rx="29.389" ry="16.968"/>
				<path style="fill:#453C9E;" d="M290.424,200.559c11.477-6.626,30.085-6.626,41.562,0c4.741,2.737,7.518,6.177,8.342,9.738
					c1.172-5.061-1.605-10.369-8.342-14.258c-11.477-6.626-30.085-6.626-41.562,0c-6.736,3.889-9.513,9.196-8.341,14.257
					C282.908,206.735,285.684,203.296,290.424,200.559z"/>
				
					<radialGradient id="SVGID_00000031198486622970561170000012135825945945527945_" cx="267.8484" cy="99.3667" r="52.1137" gradientUnits="userSpaceOnUse">
					<stop  offset="0" style="stop-color:#C0BFF6"/>
					<stop  offset="1" style="stop-color:#393091"/>
				</radialGradient>
				<path style="fill:url(#SVGID_00000031198486622970561170000012135825945945527945_);" d="M277.283,167.717l5.316-9.16
					c3.127-3.245,5.627-7.552,6.896-11.882l5.384-9.277l-7.743-4.446c-0.248-0.168-0.507-0.318-0.777-0.446l-0.004-0.002l0,0
					c-2.202-1.042-5.128-0.763-8.34,1.091c-6.846,3.952-12.396,13.564-12.396,21.469c0,3.95,1.386,6.726,3.627,8.022v0l0.003,0.002
					l0,0L277.283,167.717z"/>
				<path style="fill:#BCBEFF;" d="M298.385,145.346c0,7.905-5.55,17.517-12.396,21.469c-6.846,3.952-12.395,0.749-12.395-7.156
					c0-7.905,5.55-17.517,12.395-21.469C292.835,134.238,298.385,137.442,298.385,145.346z"/>
				<g>
					<g>
						
							<radialGradient id="SVGID_00000054988935531056702830000004810816023132614284_" cx="340.3219" cy="161.0321" r="74.2302" gradientUnits="userSpaceOnUse">
							<stop  offset="0" style="stop-color:#C0BFF6"/>
							<stop  offset="1" style="stop-color:#393091"/>
						</radialGradient>
						
							<circle style="fill:url(#SVGID_00000054988935531056702830000004810816023132614284_);" cx="312.914" cy="167.538" r="43.918"/>
					</g>
				</g>
				<g>
					<g>
						
							<linearGradient id="SVGID_00000114770163275456095780000002246154987798817459_" gradientUnits="userSpaceOnUse" x1="306.8006" y1="211.0348" x2="319.0266" y2="124.0422">
							<stop  offset="0" style="stop-color:#42E8E0"/>
							<stop  offset="0.0047" style="stop-color:#42E6DF"/>
							<stop  offset="0.1358" style="stop-color:#40B6CB"/>
							<stop  offset="0.2707" style="stop-color:#3E8DB9"/>
							<stop  offset="0.4074" style="stop-color:#3C6BAA"/>
							<stop  offset="0.5467" style="stop-color:#3B519F"/>
							<stop  offset="0.6893" style="stop-color:#3A3F97"/>
							<stop  offset="0.8375" style="stop-color:#393493"/>
							<stop  offset="1" style="stop-color:#393091"/>
						</linearGradient>
						
							<circle style="fill:url(#SVGID_00000114770163275456095780000002246154987798817459_);" cx="312.914" cy="167.538" r="43.918"/>
					</g>
				</g>
				
					<radialGradient id="SVGID_00000029042605478889813750000016606727245891486600_" cx="339.7277" cy="160.2424" r="35.2524" gradientUnits="userSpaceOnUse">
					<stop  offset="0" style="stop-color:#C0BFF6"/>
					<stop  offset="1" style="stop-color:#393091"/>
				</radialGradient>
				<path style="fill:url(#SVGID_00000029042605478889813750000016606727245891486600_);" d="M337.491,197.24l5.316-9.161
					c3.127-3.244,5.627-7.552,6.896-11.882l5.384-9.277l-7.743-4.446c-0.248-0.168-0.507-0.318-0.777-0.446l-0.004-0.003l0,0
					c-2.202-1.042-5.128-0.763-8.34,1.091c-6.846,3.952-12.396,13.564-12.396,21.469c0,3.95,1.386,6.726,3.627,8.022v0l0.003,0.002
					c0,0,0,0,0,0L337.491,197.24z"/>
				
					<linearGradient id="SVGID_00000019653029298539286390000014259298403327447721_" gradientUnits="userSpaceOnUse" x1="332.6301" y1="195.4708" x2="345.0177" y2="161.436">
					<stop  offset="0" style="stop-color:#42E8E0"/>
					<stop  offset="0.0047" style="stop-color:#42E6DF"/>
					<stop  offset="0.1358" style="stop-color:#40B6CB"/>
					<stop  offset="0.2707" style="stop-color:#3E8DB9"/>
					<stop  offset="0.4074" style="stop-color:#3C6BAA"/>
					<stop  offset="0.5467" style="stop-color:#3B519F"/>
					<stop  offset="0.6893" style="stop-color:#3A3F97"/>
					<stop  offset="0.8375" style="stop-color:#393493"/>
					<stop  offset="1" style="stop-color:#393091"/>
				</linearGradient>
				<path style="fill:url(#SVGID_00000019653029298539286390000014259298403327447721_);" d="M337.491,197.24l5.316-9.161
					c3.127-3.244,5.627-7.552,6.896-11.882l5.384-9.277l-7.743-4.446c-0.248-0.168-0.507-0.318-0.777-0.446l-0.004-0.003l0,0
					c-2.202-1.042-5.128-0.763-8.34,1.091c-6.846,3.952-12.396,13.564-12.396,21.469c0,3.95,1.386,6.726,3.627,8.022v0l0.003,0.002
					c0,0,0,0,0,0L337.491,197.24z"/>
				
					<linearGradient id="SVGID_00000039091548246786034370000008316193351713509528_" gradientUnits="userSpaceOnUse" x1="311.2057" y1="331.9117" x2="311.2057" y2="26.5804">
					<stop  offset="0" style="stop-color:#42E8E0"/>
					<stop  offset="0.1205" style="stop-color:#39BDC0"/>
					<stop  offset="0.2841" style="stop-color:#2F899A"/>
					<stop  offset="0.4453" style="stop-color:#265F7B"/>
					<stop  offset="0.6004" style="stop-color:#1F3D62"/>
					<stop  offset="0.7478" style="stop-color:#1A2550"/>
					<stop  offset="0.8845" style="stop-color:#171746"/>
					<stop  offset="1" style="stop-color:#161242"/>
				</linearGradient>
				<path style="opacity:0.5;fill:url(#SVGID_00000039091548246786034370000008316193351713509528_);" d="M240.912,26.58v264.747
					l0,0c0.001,10.386,6.864,20.772,20.589,28.697c27.452,15.849,71.959,15.85,99.41,0.001c13.646-7.879,20.502-18.191,20.58-28.517
					h0.008V26.58H240.912z"/>
				<path style="fill:#BCBEFF;" d="M358.593,174.869c0,7.905-5.55,17.517-12.396,21.469c-6.846,3.952-12.395,0.749-12.395-7.156
					s5.55-17.517,12.395-21.469C353.044,163.761,358.593,166.965,358.593,174.869z"/>
				<path style="fill:#FFFFFF;" d="M334.372,189.284c0-7.905,5.55-17.517,12.395-21.469c2.372-1.369,4.588-1.878,6.471-1.632
					c-2-0.442-4.425,0.02-7.041,1.53c-6.846,3.952-12.396,13.565-12.396,21.469c0,5.166,2.371,8.323,5.924,8.788
					C336.492,197.255,334.372,194.168,334.372,189.284z"/>
				<path style="fill:#393091;" d="M355.058,176.91c0,5.65-3.967,12.521-8.86,15.346s-8.86,0.535-8.86-5.115
					c0-5.65,3.967-12.521,8.86-15.346C351.091,168.97,355.058,171.26,355.058,176.91z"/>
				<path style="fill:#453C9E;" d="M351.288,170.716c0.917,1.082,1.452,2.7,1.452,4.772c0,5.65-3.967,12.521-8.86,15.346
					c-1.895,1.094-3.65,1.418-5.09,1.08c1.583,1.868,4.309,2.133,7.408,0.344c4.893-2.825,8.86-9.696,8.86-15.346
					C355.058,173.448,353.567,171.251,351.288,170.716z"/>
				<g>
					
						<ellipse transform="matrix(0.9232 -0.3843 0.3843 0.9232 -46.683 123.8995)" style="fill:#393091;" cx="286.684" cy="178.762" rx="11.151" ry="19.314"/>
					<path style="fill:#42E8E0;" d="M293.498,180.862c-0.408,3.139-2.777,4.125-5.291,2.202c-2.514-1.923-4.222-6.026-3.815-9.165
						c0.408-3.139,2.777-4.125,5.291-2.202C292.198,173.62,293.906,177.724,293.498,180.862z"/>
					<path style="fill:#453C9E;" d="M287.975,193.141c-6.919-5.29-11.618-16.58-10.496-25.217c0.457-3.521,1.812-6.057,3.725-7.468
						c-3.617,0.34-6.356,3.408-7.047,8.726c-1.122,8.637,3.577,19.927,10.496,25.217c4.098,3.133,8.055,3.458,10.834,1.408
						C293.23,196.02,290.633,195.173,287.975,193.141z"/>
					<path style="fill:#42E8E0;" d="M285.248,194.118c-6.919-5.29-11.618-16.58-10.496-25.217c0.519-3.998,2.196-6.724,4.534-7.975
						c-2.646,1.089-4.566,3.926-5.129,8.257c-1.122,8.637,3.577,19.927,10.496,25.217c3.715,2.84,7.31,3.366,10.021,1.914
						C292.043,197.396,288.697,196.755,285.248,194.118z"/>
				</g>
				<g>
					<g>
						
							<radialGradient id="SVGID_00000090281065842090002570000011430665162942010021_" cx="-46.0924" cy="-122.7066" r="34.7943" gradientTransform="matrix(0.981 0.1942 -0.1942 0.981 391.4709 347.2711)" gradientUnits="userSpaceOnUse">
							<stop  offset="0" style="stop-color:#C0BFF6"/>
							<stop  offset="1" style="stop-color:#393091"/>
						</radialGradient>
						<path style="fill:url(#SVGID_00000090281065842090002570000011430665162942010021_);" d="M376.562,232.069
							c-1.789,9.036-10.564,14.91-19.6,13.121c-9.036-1.789-14.91-10.564-13.121-19.6c1.789-9.036,10.564-14.91,19.6-13.121
							C372.477,214.258,378.351,223.033,376.562,232.069z"/>
					</g>
				</g>
				<g>
					<g>
						
							<linearGradient id="SVGID_00000140705010523568454310000004496184620003709062_" gradientUnits="userSpaceOnUse" x1="-65.004" y1="-97.8737" x2="-42.3409" y2="-122.3471" gradientTransform="matrix(0.981 0.1942 -0.1942 0.981 391.4709 347.2711)">
							<stop  offset="0" style="stop-color:#42E8E0"/>
							<stop  offset="0.0047" style="stop-color:#42E6DF"/>
							<stop  offset="0.1358" style="stop-color:#40B6CB"/>
							<stop  offset="0.2707" style="stop-color:#3E8DB9"/>
							<stop  offset="0.4074" style="stop-color:#3C6BAA"/>
							<stop  offset="0.5467" style="stop-color:#3B519F"/>
							<stop  offset="0.6893" style="stop-color:#3A3F97"/>
							<stop  offset="0.8375" style="stop-color:#393493"/>
							<stop  offset="1" style="stop-color:#393091"/>
						</linearGradient>
						<path style="fill:url(#SVGID_00000140705010523568454310000004496184620003709062_);" d="M376.562,232.069
							c-1.789,9.036-10.564,14.91-19.6,13.121c-9.036-1.789-14.91-10.564-13.121-19.6c1.789-9.036,10.564-14.91,19.6-13.121
							C372.477,214.258,378.351,223.033,376.562,232.069z"/>
					</g>
				</g>
			</g>
			
				<radialGradient id="SVGID_00000034775331689878518460000004838272368947597986_" cx="264.8399" cy="-1657.7373" r="32.2346" fx="264.8885" fy="-1655.6399" gradientTransform="matrix(0.9112 0.1087 -0.1791 1.501 -147.0845 2730.3821)" gradientUnits="userSpaceOnUse">
				<stop  offset="0" style="stop-color:#C0BFF6"/>
				<stop  offset="1" style="stop-color:#393091"/>
			</radialGradient>
			<path style="fill:url(#SVGID_00000034775331689878518460000004838272368947597986_);" d="M386.802,284.088
				c-0.946,7.925-7.945,22.936-14.28,22.18c-6.335-0.756-9.606-16.992-8.66-24.917c0.946-7.925,6.848-13.737,13.182-12.981
				C383.379,269.126,387.747,276.163,386.802,284.088z"/>
			
				<linearGradient id="SVGID_00000100352899060131806190000004887432966027800741_" gradientUnits="userSpaceOnUse" x1="226.9723" y1="355.7162" x2="252.1478" y2="355.7162" gradientTransform="matrix(0.9112 0.1087 -0.136 1.1399 204.8732 -144.2021)">
				<stop  offset="0" style="stop-color:#42E8E0"/>
				<stop  offset="0.0047" style="stop-color:#42E6DF"/>
				<stop  offset="0.1358" style="stop-color:#40B6CB"/>
				<stop  offset="0.2707" style="stop-color:#3E8DB9"/>
				<stop  offset="0.4074" style="stop-color:#3C6BAA"/>
				<stop  offset="0.5467" style="stop-color:#3B519F"/>
				<stop  offset="0.6893" style="stop-color:#3A3F97"/>
				<stop  offset="0.8375" style="stop-color:#393493"/>
				<stop  offset="1" style="stop-color:#393091"/>
			</linearGradient>
			<path style="fill:url(#SVGID_00000100352899060131806190000004887432966027800741_);" d="M386.802,284.088
				c-0.946,7.925-7.945,22.936-14.28,22.18c-6.335-0.756-9.606-16.992-8.66-24.917c0.946-7.925,6.848-13.737,13.182-12.981
				C383.379,269.126,387.747,276.163,386.802,284.088z"/>
			<path style="fill:#42E8E0;" d="M224.012,233.1c-0.967,0-1.901-0.524-2.38-1.44c-0.688-1.313-0.18-2.935,1.133-3.622
				l34.436-18.021c1.315-0.688,2.936-0.179,3.623,1.134c0.688,1.313,0.18,2.935-1.133,3.622l-34.436,18.021
				C224.857,233.002,224.431,233.1,224.012,233.1z"/>
			
				<radialGradient id="SVGID_00000092451969910384387540000010946908641971992217_" cx="-1940.9409" cy="-1898.6372" r="32.2346" fx="-1940.8923" fy="-1896.5398" gradientTransform="matrix(0.4411 0.8047 -1.3256 0.7266 -1415.4655 3164.729)" gradientUnits="userSpaceOnUse">
				<stop  offset="0" style="stop-color:#C0BFF6"/>
				<stop  offset="1" style="stop-color:#393091"/>
			</radialGradient>
			<path style="fill:url(#SVGID_00000092451969910384387540000010946908641971992217_);" d="M224.618,243.103
				c-6.999,3.837-23.282,6.865-26.348,1.27c-3.067-5.594,8.245-17.692,15.243-21.529c6.999-3.837,15.158-2.411,18.225,3.183
				C234.805,231.621,231.617,239.266,224.618,243.103z"/>
			
				<linearGradient id="SVGID_00000176727821268008207820000013068908592916798620_" gradientUnits="userSpaceOnUse" x1="-2686.6472" y1="-167.5568" x2="-2701.7368" y2="-147.4041" gradientTransform="matrix(0.4411 0.8047 -1.0067 0.5518 1247.8903 2489.1328)">
				<stop  offset="0" style="stop-color:#42E8E0"/>
				<stop  offset="0.0047" style="stop-color:#42E6DF"/>
				<stop  offset="0.1358" style="stop-color:#40B6CB"/>
				<stop  offset="0.2707" style="stop-color:#3E8DB9"/>
				<stop  offset="0.4074" style="stop-color:#3C6BAA"/>
				<stop  offset="0.5467" style="stop-color:#3B519F"/>
				<stop  offset="0.6893" style="stop-color:#3A3F97"/>
				<stop  offset="0.8375" style="stop-color:#393493"/>
				<stop  offset="1" style="stop-color:#393091"/>
			</linearGradient>
			<path style="fill:url(#SVGID_00000176727821268008207820000013068908592916798620_);" d="M224.618,243.103
				c-6.999,3.837-23.282,6.865-26.348,1.27c-3.067-5.594,8.245-17.692,15.243-21.529c6.999-3.837,15.158-2.411,18.225,3.183
				C234.805,231.621,231.617,239.266,224.618,243.103z"/>
		</g>
	</g>
	<g style="opacity:0.5;">
		<g>
			<path style="opacity:0.502;fill:#42E8E0;" d="M222.487,108.059c24.935-7.507,39.774,20.745,25.203,47.985
				c-12.365,23.115-42.507,39.813-50.391,15.534c-4.638-14.283-0.796-49.286,22.794-62.493c-6.357,3.287-11.022,7.936-15.6,15.546
				c8.7,10.704,9.41,11.578,16.919,20.217c8.894-21.013,9.62-22.73,16.197-36.942C232.473,106.121,227.951,106.167,222.487,108.059
				L222.487,108.059z M220.737,108.781c-0.189,0.087-0.378,0.175-0.565,0.266C220.36,108.956,220.548,108.868,220.737,108.781
				L220.737,108.781z M222.007,108.244c0.138-0.055,0.277-0.108,0.417-0.16C222.284,108.135,222.145,108.189,222.007,108.244
				L222.007,108.244z M221.411,108.485c-0.196,0.083-0.391,0.169-0.586,0.255C221.02,108.654,221.215,108.568,221.411,108.485
				L221.411,108.485z M221.411,108.485c0.158-0.067,0.318-0.132,0.477-0.195C221.729,108.354,221.57,108.419,221.411,108.485
				L221.411,108.485z"/>
			<path style="fill:#42E8E0;" d="M180.325,134.852c1.458-1.529,3.019-3.033,4.681-4.51v72.724c-1.661,1.477-3.223,2.98-4.681,4.51
				V134.852L180.325,134.852z"/>
			<path style="fill:#42E8E0;" d="M172.851,169.902c1.028-1.627,2.168-3.232,3.416-4.814v47.152
				c-1.248,1.581-2.389,3.187-3.416,4.814V169.902L172.851,169.902z"/>
			<path style="opacity:0.502;fill:#42E8E0;" d="M166.162,224.715l0.076,0.169l0.09-4.776l-0.166-0.253V224.715L166.162,224.715z
				 M166.162,238.78v-72.724c0-0.465,0.009-0.931,0.027-1.398c0.128-3.322,0.708-6.591,1.713-9.797v72.724
				c-1.005,3.206-1.585,6.476-1.713,9.797C166.171,237.849,166.162,238.315,166.162,238.78L166.162,238.78z"/>
			<polygon style="fill:#42E8E0;" points="166.162,224.715 166.238,224.884 166.328,220.107 166.162,219.854 166.162,224.715 			"/>
			<path style="fill:#42E8E0;" d="M220.173,109.046c-0.027,0.013-0.053,0.026-0.08,0.039
				C220.119,109.072,220.146,109.059,220.173,109.046L220.173,109.046z M222.423,108.083c0.021-0.008,0.042-0.016,0.063-0.024
				C222.466,108.068,222.445,108.076,222.423,108.083L222.423,108.083z M220.826,108.741c-0.029,0.014-0.059,0.027-0.089,0.04
				C220.767,108.768,220.796,108.754,220.826,108.741L220.826,108.741z M221.888,108.29c0.004-0.002,0.01-0.004,0.015-0.006
				c0.004-0.002,0.01-0.004,0.015-0.006c0.004-0.002,0.01-0.004,0.015-0.006c0.005-0.002,0.01-0.004,0.015-0.006
				c0.005-0.002,0.01-0.004,0.015-0.006c0.005-0.002,0.01-0.004,0.015-0.006c0.005-0.002,0.01-0.004,0.015-0.006
				c0.005-0.002,0.01-0.004,0.015-0.006C221.967,108.259,221.928,108.275,221.888,108.29L221.888,108.29z"/>
			<path style="fill:#42E8E0;" d="M221.411,108.485c8.123-3.385,13.989-1.347,16.197-0.58c-9.298,20.49-10.27,22.631-16.197,36.942
				c-9.162-10.655-10.57-12.292-16.919-20.217C206.288,121.646,211.753,112.561,221.411,108.485L221.411,108.485z"/>
		</g>
		<g>
			<path style="opacity:0.502;fill:#42E8E0;" d="M279.114,287.376c-7.482,2.22-12.284-2.325-14.038-3.67
				c-13.732-11.63-25.763-25.815-39.543-37.393c-4.072-3.422-6.567-2.007-7.979-1.63c-25.695,10.193-25.695,10.193-29.816,3.971
				c-7.549-13.365-7.811-14.445-11.313-22.798c-0.8-1.908-3.518-4.797-4.729-4.643c-5.764,1.626-5,2.806-5.534,3.501v-4.861
				c6.796-2.62,7.497-2.934,10.263,3.392c12.696,26.939,14.928,26.34,17.885,25.642c27.045-10.814,26.707-10.028,33.598-2.864
				c11.925,12.414,35.967,36.581,43.395,38.506c2.276,0.297,5.902-0.028,8.046-0.573c26.104-8.744,36.461-14.242,62.009-25.247
				l2.289,3.71c-9.455,4.124-38.037,15.369-64.341,23.652L279.114,287.376z M360.711,316.7v-72.724
				c-8.031,0.453-16.229,0.655-24.554,0.589c-94.511-0.749-169.996-35.766-169.996-78.508v72.724
				c0,42.742,75.486,77.759,169.996,78.508C344.483,317.354,352.681,317.152,360.711,316.7L360.711,316.7z"/>
			<path style="fill:#42E8E0;" d="M279.114,287.376c-6.731,1.723-13.09,3.351-52.676-39.237c-5.011-5.036-5.011-5.036-30.721,5.212
				c-2.918,0.708-7.328,1.779-19.483-27.214c-3.753-8.563-10.012-1.5-10.073-1.422v-4.861c2.125-1.208,2.269-1.29,5.463-2.19
				c0.583-0.164,1.221-0.135,1.759,0.144c0.854,0.443,1.717,1.449,3.218,4.646c7.002,14.917,7.002,14.917,12.045,23.076
				c2.973,4.409,2.973,4.409,27.103-5.169c1.648-0.443,5.079-1.366,10.25,2.759c14.534,11.593,26.361,26.093,40.708,37.886
				c5.385,3.83,8.635,6.141,74.649-22.296l2.289,3.71C334.191,266.543,305.419,279.094,279.114,287.376L279.114,287.376z"/>
		</g>
	</g>
</g>
</svg>
