<?xml version="1.0" encoding="utf-8"?>
<!-- Generator: Adobe Illustrator 27.5.0, SVG Export Plug-In . SVG Version: 6.00 Build 0)  -->
<svg version="1.1" id="Ñëîé_1" xmlns="http://www.w3.org/2000/svg" xmlns:xlink="http://www.w3.org/1999/xlink" x="0px" y="0px"
	 viewBox="250 0 400 350" xml:space="preserve">
<g>
	<path style="fill:#6EE8FC;" d="M449.719,310.493c-4.283,0-8.373-0.863-11.424-2.624l-133.414-77.027
		c-2.984-1.724-4.628-4.117-4.628-6.741c0-3.155,2.367-6.332,6.496-8.716l129.673-74.866c7.757-4.48,19.543-4.962,26.272-1.079
		l133.415,77.027c2.984,1.723,4.628,4.117,4.628,6.741c0,3.154-2.367,6.331-6.496,8.716L464.566,306.79
		C460.326,309.238,454.882,310.493,449.719,310.493z M438.545,307.436c6.591,3.805,18.151,3.32,25.772-1.079L593.99,231.49
		c3.97-2.292,6.246-5.311,6.246-8.282c0-2.438-1.555-4.679-4.378-6.308l-133.415-77.027c-6.591-3.806-18.151-3.32-25.772,1.079
		l-129.673,74.866c-3.97,2.292-6.246,5.311-6.246,8.282c0,2.438,1.555,4.678,4.378,6.308L438.545,307.436z"/>
	
		<radialGradient id="SVGID_1_" cx="-1044.7856" cy="271.5021" r="90.0633" gradientTransform="matrix(0.866 0.5 -0.866 0.5 1556.3947 536.0652)" gradientUnits="userSpaceOnUse">
		<stop  offset="0" style="stop-color:#42E8E0"/>
		<stop  offset="0.0225" style="stop-color:#3FD8D7"/>
		<stop  offset="0.0983" style="stop-color:#36A9BA"/>
		<stop  offset="0.1786" style="stop-color:#2E7FA0"/>
		<stop  offset="0.2622" style="stop-color:#275C8B"/>
		<stop  offset="0.35" style="stop-color:#223F79"/>
		<stop  offset="0.4433" style="stop-color:#1D296C"/>
		<stop  offset="0.5449" style="stop-color:#1A1962"/>
		<stop  offset="0.6608" style="stop-color:#19105D"/>
		<stop  offset="0.8226" style="stop-color:#180D5B"/>
	</radialGradient> 
	<!-- <ellipse style="opacity:0.3;fill:url(#SVGID_1_);" cx="416.49" cy="149.423" rx="110.303" ry="63.683"/> -->
	
		<radialGradient id="SVGID_00000011004080327456060200000003889082828371005111_" cx="-860.1467" cy="318.5642" r="90.0634" gradientTransform="matrix(0.866 0.5 -0.866 0.5 1556.3947 536.0652)" gradientUnits="userSpaceOnUse">
		<stop  offset="0" style="stop-color:#42E8E0"/>
		<stop  offset="0.0225" style="stop-color:#3FD8D7"/>
		<stop  offset="0.0983" style="stop-color:#36A9BA"/>
		<stop  offset="0.1786" style="stop-color:#2E7FA0"/>
		<stop  offset="0.2622" style="stop-color:#275C8B"/>
		<stop  offset="0.35" style="stop-color:#223F79"/>
		<stop  offset="0.4433" style="stop-color:#1D296C"/>
		<stop  offset="0.5449" style="stop-color:#1A1962"/>
		<stop  offset="0.6608" style="stop-color:#19105D"/>
		<stop  offset="0.8226" style="stop-color:#121144"/>
	</radialGradient>
	
		<ellipse style="opacity:0.3;fill:url(#SVGID_00000011004080327456060200000003889082828371005111_);" cx="535.631" cy="265.274" rx="110.303" ry="63.683"/>
	
		<radialGradient id="SVGID_00000155868341765748902220000000501448028174486455_" cx="-1044.9952" cy="387.402" r="69.2475" gradientTransform="matrix(0.866 0.5 -0.866 0.5 1556.3947 536.0652)" gradientUnits="userSpaceOnUse">
		<stop  offset="0" style="stop-color:#42E8E0"/>
		<stop  offset="0.0225" style="stop-color:#3FD8D7"/>
		<stop  offset="0.0983" style="stop-color:#36A9BA"/>
		<stop  offset="0.1786" style="stop-color:#2E7FA0"/>
		<stop  offset="0.2622" style="stop-color:#275C8B"/>
		<stop  offset="0.35" style="stop-color:#223F79"/>
		<stop  offset="0.4433" style="stop-color:#1D296C"/>
		<stop  offset="0.5449" style="stop-color:#1A1962"/>
		<stop  offset="0.6608" style="stop-color:#19105D"/>
		<stop  offset="0.8226" style="stop-color:#180D5B"/>
	</radialGradient>
	
		<ellipse style="opacity:0.3;fill:url(#SVGID_00000155868341765748902220000000501448028174486455_);" cx="315.939" cy="207.269" rx="84.809" ry="48.965"/>
	<g>
		<!-- End of shadow -->
			<radialGradient id="SVGID_00000095305505341345606140000016717359280878988704_" cx="417.4688" cy="151.7124" r="10.0696" gradientUnits="userSpaceOnUse">
			<stop  offset="0" style="stop-color:#42E8E0"/>
			<stop  offset="0.0225" style="stop-color:#3FD8D7"/>
			<stop  offset="0.0983" style="stop-color:#36A9BA"/>
			<stop  offset="0.1786" style="stop-color:#2E7FA0"/>
			<stop  offset="0.2622" style="stop-color:#275C8B"/>
			<stop  offset="0.35" style="stop-color:#223F79"/>
			<stop  offset="0.4433" style="stop-color:#1D296C"/>
			<stop  offset="0.5449" style="stop-color:#1A1962"/>
			<stop  offset="0.6608" style="stop-color:#19105D"/>
			<stop  offset="0.8226" style="stop-color:#180D5B"/>
		</radialGradient>
		<circle style="fill:url(#SVGID_00000095305505341345606140000016717359280878988704_);" cx="417.469" cy="151.712" r="10.07"/>
		<circle style="fill:#6EE8FC;" cx="417.469" cy="151.712" r="2.871"/>
	</g>
	<g>
		
			<radialGradient id="SVGID_00000124141273643941005550000010855024733063938948_" cx="315.9387" cy="210.4478" r="10.0696" gradientUnits="userSpaceOnUse">
			<stop  offset="0" style="stop-color:#42E8E0"/>
			<stop  offset="0.0225" style="stop-color:#3FD8D7"/>
			<stop  offset="0.0983" style="stop-color:#36A9BA"/>
			<stop  offset="0.1786" style="stop-color:#2E7FA0"/>
			<stop  offset="0.2622" style="stop-color:#275C8B"/>
			<stop  offset="0.35" style="stop-color:#223F79"/>
			<stop  offset="0.4433" style="stop-color:#1D296C"/>
			<stop  offset="0.5449" style="stop-color:#1A1962"/>
			<stop  offset="0.6608" style="stop-color:#19105D"/>
			<stop  offset="0.8226" style="stop-color:#180D5B"/>
		</radialGradient>
		<circle style="fill:url(#SVGID_00000124141273643941005550000010855024733063938948_);" cx="315.939" cy="210.448" r="10.07"/>
		<path style="fill:#6EE8FC;" d="M318.809,210.448c0,1.586-1.285,2.871-2.871,2.871c-1.585,0-2.871-1.285-2.871-2.871
			c0-1.585,1.285-2.871,2.871-2.871C317.524,207.577,318.809,208.862,318.809,210.448z"/>
	</g>
	<g>
		
			<radialGradient id="SVGID_00000081608909060744002040000000806568023400760985_" cx="536.3181" cy="265.0757" r="10.0696" gradientUnits="userSpaceOnUse">
			<stop  offset="0" style="stop-color:#42E8E0"/>
			<stop  offset="0.0225" style="stop-color:#3FD8D7"/>
			<stop  offset="0.0983" style="stop-color:#36A9BA"/>
			<stop  offset="0.1786" style="stop-color:#2E7FA0"/>
			<stop  offset="0.2622" style="stop-color:#275C8B"/>
			<stop  offset="0.35" style="stop-color:#223F79"/>
			<stop  offset="0.4433" style="stop-color:#1D296C"/>
			<stop  offset="0.5449" style="stop-color:#1A1962"/>
			<stop  offset="0.6608" style="stop-color:#19105D"/>
			<stop  offset="0.8226" style="stop-color:#180D5B"/>
		</radialGradient>
		<circle style="fill:url(#SVGID_00000081608909060744002040000000806568023400760985_);" cx="536.318" cy="265.076" r="10.07"/>
		<circle style="fill:#6EE8FC;" cx="536.318" cy="265.076" r="2.871"/>
	</g>
	<g>
		
			<radialGradient id="SVGID_00000044167807546688124910000005151157485704967604_" cx="554.9847" cy="254.0757" r="10.0696" gradientUnits="userSpaceOnUse">
			<stop  offset="0" style="stop-color:#42E8E0"/>
			<stop  offset="0.0225" style="stop-color:#3FD8D7"/>
			<stop  offset="0.0983" style="stop-color:#36A9BA"/>
			<stop  offset="0.1786" style="stop-color:#2E7FA0"/>
			<stop  offset="0.2622" style="stop-color:#275C8B"/>
			<stop  offset="0.35" style="stop-color:#223F79"/>
			<stop  offset="0.4433" style="stop-color:#1D296C"/>
			<stop  offset="0.5449" style="stop-color:#1A1962"/>
			<stop  offset="0.6608" style="stop-color:#19105D"/>
			<stop  offset="0.8226" style="stop-color:#180D5B"/>
		</radialGradient>
		<circle style="fill:url(#SVGID_00000044167807546688124910000005151157485704967604_);" cx="554.985" cy="254.076" r="10.07"/>
		<circle style="fill:#6EE8FC;" cx="554.985" cy="254.076" r="2.871"/>
	</g>
	<g>
		
			<radialGradient id="SVGID_00000034070975145614417850000005411728180289045684_" cx="573.6514" cy="243.2424" r="10.0696" gradientUnits="userSpaceOnUse">
			<stop  offset="0" style="stop-color:#42E8E0"/>
			<stop  offset="0.0225" style="stop-color:#3FD8D7"/>
			<stop  offset="0.0983" style="stop-color:#36A9BA"/>
			<stop  offset="0.1786" style="stop-color:#2E7FA0"/>
			<stop  offset="0.2622" style="stop-color:#275C8B"/>
			<stop  offset="0.35" style="stop-color:#223F79"/>
			<stop  offset="0.4433" style="stop-color:#1D296C"/>
			<stop  offset="0.5449" style="stop-color:#1A1962"/>
			<stop  offset="0.6608" style="stop-color:#19105D"/>
			<stop  offset="0.8226" style="stop-color:#180D5B"/>
		</radialGradient>
		<circle style="fill:url(#SVGID_00000034070975145614417850000005411728180289045684_);" cx="573.651" cy="243.242" r="10.07"/>
		<path style="fill:#6EE8FC;" d="M576.522,243.242c0,1.585-1.285,2.871-2.871,2.871c-1.586,0-2.871-1.285-2.871-2.871
			c0-1.585,1.285-2.871,2.871-2.871C575.237,240.372,576.522,241.657,576.522,243.242z"/>
	</g>
</g>
<g>
	<g>
		<g>
			<path style="opacity:0.5;fill:#0B0244;" d="M443.9,207.246l-41.907-24.195c-3.184-1.838-2.785-5.05,0.892-7.173l40.122-23.164
				c3.677-2.123,9.239-2.353,12.424-0.515l41.907,24.195c3.184,1.839,2.785,5.05-0.892,7.173l-40.122,23.164
				C452.646,208.854,447.084,209.085,443.9,207.246z"/>
			<path style="fill:#312A91;" d="M504.828,154.964V146.3h-22.352l-26.427-15.257c-3.527-2.036-9.687-1.781-13.76,0.57
				L416.851,146.3h-22.368v9.155h0.018c-0.101,1.378,0.668,2.708,2.363,3.686l46.416,26.798c3.527,2.036,9.688,1.781,13.76-0.57
				l44.438-25.656C503.827,158.357,504.96,156.6,504.828,154.964z"/>
			
				<linearGradient id="SVGID_00000017509149015443602200000013723978399192552322_" gradientUnits="userSpaceOnUse" x1="370.0895" y1="158.491" x2="480.4452" y2="158.491">
				<stop  offset="0" style="stop-color:#42E8E0"/>
				<stop  offset="0.1022" style="stop-color:#3CCACE"/>
				<stop  offset="0.3445" style="stop-color:#2F87A5"/>
				<stop  offset="0.564" style="stop-color:#255385"/>
				<stop  offset="0.7534" style="stop-color:#1E2D6E"/>
				<stop  offset="0.905" style="stop-color:#1A1660"/>
				<stop  offset="1" style="stop-color:#180D5B"/>
			</linearGradient>
			<path style="opacity:0.5;fill:url(#SVGID_00000017509149015443602200000013723978399192552322_);" d="M504.828,154.964V146.3
				h-22.352l-26.427-15.257c-3.527-2.036-9.687-1.781-13.76,0.57L416.851,146.3h-22.368v9.155h0.018
				c-0.101,1.378,0.668,2.708,2.363,3.686l46.416,26.798c3.527,2.036,9.688,1.781,13.76-0.57l44.438-25.656
				C503.827,158.357,504.96,156.6,504.828,154.964z"/>
			
				<linearGradient id="SVGID_00000144323605896967084290000012422826440732828825_" gradientUnits="userSpaceOnUse" x1="449.6608" y1="158.4885" x2="504.8386" y2="158.4885">
				<stop  offset="0" style="stop-color:#2B237C"/>
				<stop  offset="1" style="stop-color:#180D5B"/>
			</linearGradient>
			<path style="fill:url(#SVGID_00000144323605896967084290000012422826440732828825_);" d="M456.05,131.042
				c-1.695-0.979-4.001-1.423-6.389-1.364v57.626c2.582-0.062,5.262-0.713,7.379-1.935l44.438-25.656
				c2.349-1.356,3.483-3.113,3.351-4.748V146.3h-22.352L456.05,131.042z"/>
			<path style="fill:#312A91;" d="M443.28,176.784l-46.416-26.798c-3.527-2.036-3.085-5.593,0.988-7.944l44.438-25.656
				c4.072-2.351,10.233-2.607,13.76-0.57l46.416,26.798c3.527,2.036,3.085,5.593-0.988,7.944l-44.438,25.656
				C452.967,178.565,446.806,178.821,443.28,176.784z"/>
			
				<linearGradient id="SVGID_00000064313623569986953230000017162941140207148201_" gradientUnits="userSpaceOnUse" x1="394.4831" y1="146.2998" x2="504.8465" y2="146.2998">
				<stop  offset="0" style="stop-color:#42E8E0"/>
				<stop  offset="0.1022" style="stop-color:#3CCACE"/>
				<stop  offset="0.3445" style="stop-color:#2F87A5"/>
				<stop  offset="0.564" style="stop-color:#255385"/>
				<stop  offset="0.7534" style="stop-color:#1E2D6E"/>
				<stop  offset="0.905" style="stop-color:#1A1660"/>
				<stop  offset="1" style="stop-color:#180D5B"/>
			</linearGradient>
			<path style="opacity:0.5;fill:url(#SVGID_00000064313623569986953230000017162941140207148201_);" d="M443.28,176.784
				l-46.416-26.798c-3.527-2.036-3.085-5.593,0.988-7.944l44.438-25.656c4.072-2.351,10.233-2.607,13.76-0.57l46.416,26.798
				c3.527,2.036,3.085,5.593-0.988,7.944l-44.438,25.656C452.967,178.565,446.806,178.821,443.28,176.784z"/>
			<path style="fill:#5CFFF3;" d="M444.52,170.861l-37.397-21.591c-2.842-1.641-2.485-4.506,0.796-6.401l35.804-20.671
				c3.281-1.894,8.245-2.1,11.086-0.46l37.397,21.591c2.842,1.641,2.485,4.506-0.796,6.401l-35.804,20.671
				C452.326,172.296,447.362,172.502,444.52,170.861z"/>
			<path style="fill:#42E8E0;" d="M407.919,145.67l35.804-20.672c3.281-1.894,8.245-2.1,11.086-0.459l37.397,21.591
				c0.702,0.405,1.207,0.885,1.522,1.407c0.825-1.516,0.349-3.127-1.522-4.207l-37.397-21.591c-2.842-1.641-7.805-1.435-11.086,0.46
				l-35.804,20.671c-2.471,1.427-3.282,3.404-2.318,4.994C406.028,147.077,406.799,146.317,407.919,145.67z"/>
			
				<linearGradient id="SVGID_00000045578528979117769220000005900452135202412713_" gradientUnits="userSpaceOnUse" x1="394.483" y1="146.3015" x2="450.8101" y2="146.3015">
				<stop  offset="0" style="stop-color:#42E8E0"/>
				<stop  offset="0.1022" style="stop-color:#3CCACE"/>
				<stop  offset="0.3445" style="stop-color:#2F87A5"/>
				<stop  offset="0.564" style="stop-color:#255385"/>
				<stop  offset="0.7534" style="stop-color:#1E2D6E"/>
				<stop  offset="0.905" style="stop-color:#1A1660"/>
				<stop  offset="1" style="stop-color:#180D5B"/>
			</linearGradient>
			<path style="opacity:0.5;fill:url(#SVGID_00000045578528979117769220000005900452135202412713_);" d="M444.838,176.784
				l-46.416-26.798c-3.527-2.036-4.37-5.027,0.988-7.944l44.438-25.656c2.003-1.156,4.51-1.803,6.962-1.922
				c-2.915-0.132-6.089,0.518-8.52,1.922l-44.438,25.656c-4.073,2.351-4.515,5.908-0.988,7.944l46.416,26.798
				c1.793,1.035,4.265,1.475,6.798,1.352C448.11,178.047,446.259,177.605,444.838,176.784z"/>
			
				<linearGradient id="SVGID_00000047025047631999757290000016152398949513762711_" gradientUnits="userSpaceOnUse" x1="409.4935" y1="178.4133" x2="501.8674" y2="118.0355">
				<stop  offset="0" style="stop-color:#42E8E0"/>
				<stop  offset="0.1022" style="stop-color:#3CCACE"/>
				<stop  offset="0.3445" style="stop-color:#2F87A5"/>
				<stop  offset="0.564" style="stop-color:#255385"/>
				<stop  offset="0.7534" style="stop-color:#1E2D6E"/>
				<stop  offset="0.905" style="stop-color:#1A1660"/>
				<stop  offset="1" style="stop-color:#180D5B"/>
			</linearGradient>
			<path style="opacity:0.5;fill:url(#SVGID_00000047025047631999757290000016152398949513762711_);" d="M501.478,154.428
				l-44.438,25.656c-4.073,2.351-10.233,2.607-13.76,0.57l-46.416-26.798c-1.695-0.979-2.463-2.309-2.363-3.687h-0.018v1.897h0.018
				c-0.101,1.378,0.668,2.708,2.363,3.687l46.416,26.798c3.527,2.036,9.688,1.781,13.76-0.57l44.438-25.656
				c2.349-1.356,3.483-3.113,3.351-4.748v-1.897C504.96,151.314,503.827,153.071,501.478,154.428z"/>
			<g>
				<path style="fill:#FCCC6B;" d="M493.419,151.901c0.507,0.292,0.507,0.767,0,1.059c-0.507,0.292-1.328,0.292-1.834,0
					c-0.507-0.292-0.507-0.767,0-1.059C492.091,151.608,492.912,151.608,493.419,151.901z"/>
				<path style="fill:#FCCC6B;" d="M496.276,150.251c0.507,0.292,0.507,0.767,0,1.059c-0.507,0.292-1.328,0.292-1.834,0
					c-0.507-0.292-0.507-0.767,0-1.059C494.948,149.959,495.769,149.959,496.276,150.251z"/>
				<path style="fill:#FCCC6B;" d="M499.132,148.602c0.507,0.292,0.507,0.767,0,1.059c-0.507,0.293-1.328,0.293-1.834,0
					c-0.507-0.292-0.507-0.767,0-1.059C497.805,148.309,498.626,148.309,499.132,148.602z"/>
			</g>
		</g>
		<g>
			<path style="opacity:0.5;fill:#0B0244;" d="M367.708,251.294l-41.907-24.195c-3.184-1.839-2.785-5.05,0.892-7.173l40.122-23.164
				c3.677-2.123,9.239-2.354,12.423-0.515l41.907,24.195c3.184,1.839,2.785,5.05-0.892,7.173l-40.122,23.164
				C376.455,252.902,370.893,253.133,367.708,251.294z"/>
			<path style="fill:#312A91;" d="M428.637,199.012v-8.665h-22.352l-26.427-15.257c-3.527-2.036-9.687-1.781-13.76,0.57
				l-25.439,14.687h-22.368v9.155h0.018c-0.101,1.378,0.668,2.708,2.363,3.686l46.415,26.798c3.527,2.036,9.688,1.781,13.76-0.57
				l44.438-25.656C427.635,202.404,428.769,200.648,428.637,199.012z"/>
			
				<linearGradient id="SVGID_00000047031454331797788820000003116012660648555152_" gradientUnits="userSpaceOnUse" x1="293.898" y1="202.5388" x2="404.2537" y2="202.5388">
				<stop  offset="0" style="stop-color:#42E8E0"/>
				<stop  offset="0.1022" style="stop-color:#3CCACE"/>
				<stop  offset="0.3445" style="stop-color:#2F87A5"/>
				<stop  offset="0.564" style="stop-color:#255385"/>
				<stop  offset="0.7534" style="stop-color:#1E2D6E"/>
				<stop  offset="0.905" style="stop-color:#1A1660"/>
				<stop  offset="1" style="stop-color:#180D5B"/>
			</linearGradient>
			<path style="opacity:0.5;fill:url(#SVGID_00000047031454331797788820000003116012660648555152_);" d="M428.637,199.012v-8.665
				h-22.352l-26.427-15.257c-3.527-2.036-9.687-1.781-13.76,0.57l-25.439,14.687h-22.368v9.155h0.018
				c-0.101,1.378,0.668,2.708,2.363,3.686l46.415,26.798c3.527,2.036,9.688,1.781,13.76-0.57l44.438-25.656
				C427.635,202.404,428.769,200.648,428.637,199.012z"/>
			
				<linearGradient id="SVGID_00000137131744705106847920000009481115251645872549_" gradientUnits="userSpaceOnUse" x1="373.4693" y1="202.5363" x2="428.6471" y2="202.5363">
				<stop  offset="0" style="stop-color:#2B237C"/>
				<stop  offset="1" style="stop-color:#180D5B"/>
			</linearGradient>
			<path style="fill:url(#SVGID_00000137131744705106847920000009481115251645872549_);" d="M379.858,175.09
				c-1.695-0.979-4.001-1.423-6.389-1.364v57.625c2.582-0.062,5.262-0.712,7.379-1.935l44.438-25.656
				c2.349-1.356,3.483-3.113,3.351-4.748v-8.665h-22.352L379.858,175.09z"/>
			<path style="fill:#312A91;" d="M367.088,220.832l-46.415-26.798c-3.527-2.036-3.085-5.593,0.988-7.944l44.438-25.656
				c4.073-2.351,10.233-2.607,13.76-0.57l46.415,26.798c3.527,2.036,3.085,5.593-0.988,7.944l-44.438,25.656
				C376.776,222.613,370.615,222.868,367.088,220.832z"/>
			
				<linearGradient id="SVGID_00000082347425310761870190000014264724609578448308_" gradientUnits="userSpaceOnUse" x1="318.2916" y1="190.3477" x2="428.655" y2="190.3477">
				<stop  offset="0" style="stop-color:#42E8E0"/>
				<stop  offset="0.1022" style="stop-color:#3CCACE"/>
				<stop  offset="0.3445" style="stop-color:#2F87A5"/>
				<stop  offset="0.564" style="stop-color:#255385"/>
				<stop  offset="0.7534" style="stop-color:#1E2D6E"/>
				<stop  offset="0.905" style="stop-color:#1A1660"/>
				<stop  offset="1" style="stop-color:#180D5B"/>
			</linearGradient>
			<path style="opacity:0.5;fill:url(#SVGID_00000082347425310761870190000014264724609578448308_);" d="M367.088,220.832
				l-46.415-26.798c-3.527-2.036-3.085-5.593,0.988-7.944l44.438-25.656c4.073-2.351,10.233-2.607,13.76-0.57l46.415,26.798
				c3.527,2.036,3.085,5.593-0.988,7.944l-44.438,25.656C376.776,222.613,370.615,222.868,367.088,220.832z"/>
			<path style="fill:#5CFFF3;" d="M368.329,214.909l-37.397-21.591c-2.842-1.641-2.485-4.506,0.796-6.401l35.804-20.671
				c3.281-1.894,8.245-2.1,11.086-0.46l37.397,21.591c2.842,1.641,2.485,4.506-0.796,6.401l-35.804,20.671
				C376.134,216.344,371.17,216.55,368.329,214.909z"/>
			<path style="fill:#42E8E0;" d="M331.727,189.718l35.804-20.671c3.281-1.894,8.245-2.1,11.086-0.46l37.397,21.591
				c0.702,0.405,1.207,0.885,1.522,1.407c0.825-1.516,0.349-3.127-1.522-4.207l-37.397-21.591c-2.842-1.641-7.805-1.435-11.086,0.46
				l-35.804,20.671c-2.471,1.427-3.282,3.404-2.318,4.994C329.837,191.125,330.607,190.365,331.727,189.718z"/>
			
				<linearGradient id="SVGID_00000139978587533924456660000007007925076335579550_" gradientUnits="userSpaceOnUse" x1="318.2915" y1="190.3494" x2="374.6186" y2="190.3494">
				<stop  offset="0" style="stop-color:#42E8E0"/>
				<stop  offset="0.1022" style="stop-color:#3CCACE"/>
				<stop  offset="0.3445" style="stop-color:#2F87A5"/>
				<stop  offset="0.564" style="stop-color:#255385"/>
				<stop  offset="0.7534" style="stop-color:#1E2D6E"/>
				<stop  offset="0.905" style="stop-color:#1A1660"/>
				<stop  offset="1" style="stop-color:#180D5B"/>
			</linearGradient>
			<path style="opacity:0.5;fill:url(#SVGID_00000139978587533924456660000007007925076335579550_);" d="M368.647,220.832
				l-46.416-26.798c-3.527-2.036-4.37-5.027,0.988-7.944l44.438-25.656c2.003-1.156,4.51-1.803,6.962-1.922
				c-2.915-0.132-6.089,0.518-8.52,1.922L321.66,186.09c-4.072,2.351-4.515,5.908-0.988,7.944l46.415,26.798
				c1.793,1.035,4.265,1.475,6.798,1.352C371.919,222.095,370.068,221.653,368.647,220.832z"/>
			
				<linearGradient id="SVGID_00000062896027723635549830000015256318525399490964_" gradientUnits="userSpaceOnUse" x1="333.302" y1="222.4612" x2="425.6759" y2="162.0834">
				<stop  offset="0" style="stop-color:#42E8E0"/>
				<stop  offset="0.1022" style="stop-color:#3CCACE"/>
				<stop  offset="0.3445" style="stop-color:#2F87A5"/>
				<stop  offset="0.564" style="stop-color:#255385"/>
				<stop  offset="0.7534" style="stop-color:#1E2D6E"/>
				<stop  offset="0.905" style="stop-color:#1A1660"/>
				<stop  offset="1" style="stop-color:#180D5B"/>
			</linearGradient>
			<path style="opacity:0.5;fill:url(#SVGID_00000062896027723635549830000015256318525399490964_);" d="M425.286,198.475
				l-44.438,25.656c-4.073,2.351-10.233,2.607-13.76,0.57l-46.415-26.798c-1.695-0.978-2.463-2.308-2.363-3.686h-0.018v1.897h0.018
				c-0.101,1.378,0.668,2.708,2.363,3.686l46.415,26.798c3.527,2.036,9.688,1.781,13.76-0.57l44.438-25.656
				c2.349-1.356,3.483-3.113,3.351-4.748v-1.897C428.769,195.362,427.635,197.119,425.286,198.475z"/>
			<g>
				<path style="fill:#FCCC6B;" d="M417.227,195.949c0.507,0.292,0.507,0.767,0,1.059c-0.507,0.292-1.328,0.292-1.834,0
					c-0.507-0.292-0.507-0.767,0-1.059C415.899,195.656,416.721,195.656,417.227,195.949z"/>
				<path style="fill:#FCCC6B;" d="M420.084,194.299c0.507,0.292,0.507,0.767,0,1.059c-0.507,0.292-1.328,0.292-1.834,0
					c-0.507-0.292-0.507-0.767,0-1.059C418.756,194.007,419.577,194.007,420.084,194.299z"/>
				<path style="fill:#FCCC6B;" d="M422.941,192.65c0.507,0.293,0.507,0.767,0,1.059c-0.507,0.293-1.328,0.292-1.834,0
					c-0.506-0.292-0.506-0.767,0-1.059C421.613,192.357,422.434,192.357,422.941,192.65z"/>
			</g>
		</g>
		<g>
			<path style="opacity:0.5;fill:#0B0244;" d="M520.091,250.922l-41.907-24.195c-3.184-1.839-2.785-5.05,0.892-7.173l40.122-23.164
				c3.677-2.123,9.239-2.354,12.423-0.515l41.907,24.195c3.184,1.838,2.785,5.05-0.892,7.173l-40.122,23.164
				C528.838,252.53,523.276,252.761,520.091,250.922z"/>
			<path style="fill:#312A91;" d="M581.02,198.64v-8.665h-22.352l-26.427-15.257c-3.527-2.036-9.687-1.781-13.76,0.57
				l-25.439,14.687h-22.368v9.155h0.018c-0.1,1.378,0.668,2.708,2.363,3.687l46.416,26.798c3.527,2.036,9.688,1.781,13.76-0.57
				l44.438-25.656C580.018,202.033,581.152,200.276,581.02,198.64z"/>
			
				<linearGradient id="SVGID_00000042012021844697161410000001329527501421680044_" gradientUnits="userSpaceOnUse" x1="446.2811" y1="202.167" x2="556.6367" y2="202.167">
				<stop  offset="0" style="stop-color:#42E8E0"/>
				<stop  offset="0.1022" style="stop-color:#3CCACE"/>
				<stop  offset="0.3445" style="stop-color:#2F87A5"/>
				<stop  offset="0.564" style="stop-color:#255385"/>
				<stop  offset="0.7534" style="stop-color:#1E2D6E"/>
				<stop  offset="0.905" style="stop-color:#1A1660"/>
				<stop  offset="1" style="stop-color:#180D5B"/>
			</linearGradient>
			<path style="opacity:0.5;fill:url(#SVGID_00000042012021844697161410000001329527501421680044_);" d="M581.02,198.64v-8.665
				h-22.352l-26.427-15.257c-3.527-2.036-9.687-1.781-13.76,0.57l-25.439,14.687h-22.368v9.155h0.018
				c-0.1,1.378,0.668,2.708,2.363,3.687l46.416,26.798c3.527,2.036,9.688,1.781,13.76-0.57l44.438-25.656
				C580.018,202.033,581.152,200.276,581.02,198.64z"/>
			
				<linearGradient id="SVGID_00000056416842176137725050000001539168866402647472_" gradientUnits="userSpaceOnUse" x1="525.8523" y1="202.1645" x2="581.0301" y2="202.1645">
				<stop  offset="0" style="stop-color:#2B237C"/>
				<stop  offset="1" style="stop-color:#180D5B"/>
			</linearGradient>
			<path style="fill:url(#SVGID_00000056416842176137725050000001539168866402647472_);" d="M532.241,174.719
				c-1.695-0.979-4.001-1.423-6.389-1.364v57.626c2.582-0.062,5.262-0.712,7.379-1.935l44.438-25.656
				c2.349-1.356,3.483-3.113,3.351-4.749v-8.665h-22.352L532.241,174.719z"/>
			<path style="fill:#312A91;" d="M519.471,220.46l-46.416-26.798c-3.527-2.036-3.085-5.593,0.988-7.944l44.438-25.656
				c4.073-2.351,10.233-2.607,13.76-0.57l46.415,26.798c3.527,2.036,3.085,5.593-0.988,7.944l-44.438,25.656
				C529.159,222.241,522.998,222.497,519.471,220.46z"/>
			
				<linearGradient id="SVGID_00000153663837628126073610000014925559981451901848_" gradientUnits="userSpaceOnUse" x1="470.6746" y1="189.9758" x2="581.038" y2="189.9758">
				<stop  offset="0" style="stop-color:#42E8E0"/>
				<stop  offset="0.1022" style="stop-color:#3CCACE"/>
				<stop  offset="0.3445" style="stop-color:#2F87A5"/>
				<stop  offset="0.564" style="stop-color:#255385"/>
				<stop  offset="0.7534" style="stop-color:#1E2D6E"/>
				<stop  offset="0.905" style="stop-color:#1A1660"/>
				<stop  offset="1" style="stop-color:#180D5B"/>
			</linearGradient>
			<path style="opacity:0.5;fill:url(#SVGID_00000153663837628126073610000014925559981451901848_);" d="M519.471,220.46
				l-46.416-26.798c-3.527-2.036-3.085-5.593,0.988-7.944l44.438-25.656c4.073-2.351,10.233-2.607,13.76-0.57l46.415,26.798
				c3.527,2.036,3.085,5.593-0.988,7.944l-44.438,25.656C529.159,222.241,522.998,222.497,519.471,220.46z"/>
			<path style="fill:#5CFFF3;" d="M520.712,214.537l-37.397-21.591c-2.842-1.641-2.485-4.506,0.796-6.401l35.804-20.671
				c3.281-1.895,8.245-2.1,11.086-0.46l37.397,21.591c2.842,1.641,2.485,4.506-0.796,6.401l-35.804,20.671
				C528.517,215.972,523.553,216.178,520.712,214.537z"/>
			<path style="fill:#42E8E0;" d="M484.111,189.346l35.804-20.671c3.281-1.895,8.245-2.1,11.086-0.46l37.397,21.591
				c0.702,0.405,1.207,0.885,1.522,1.407c0.825-1.516,0.349-3.127-1.522-4.208l-37.397-21.591
				c-2.842-1.641-7.805-1.435-11.086,0.459l-35.804,20.671c-2.471,1.427-3.282,3.404-2.318,4.994
				C482.22,190.753,482.99,189.993,484.111,189.346z"/>
			
				<linearGradient id="SVGID_00000026848962357219089300000001668036574897251238_" gradientUnits="userSpaceOnUse" x1="470.6745" y1="189.9775" x2="527.0016" y2="189.9775">
				<stop  offset="0" style="stop-color:#42E8E0"/>
				<stop  offset="0.1022" style="stop-color:#3CCACE"/>
				<stop  offset="0.3445" style="stop-color:#2F87A5"/>
				<stop  offset="0.564" style="stop-color:#255385"/>
				<stop  offset="0.7534" style="stop-color:#1E2D6E"/>
				<stop  offset="0.905" style="stop-color:#1A1660"/>
				<stop  offset="1" style="stop-color:#180D5B"/>
			</linearGradient>
			<path style="opacity:0.5;fill:url(#SVGID_00000026848962357219089300000001668036574897251238_);" d="M521.03,220.46
				l-46.416-26.798c-3.527-2.036-4.37-5.027,0.988-7.944l44.438-25.656c2.003-1.156,4.51-1.803,6.962-1.922
				c-2.915-0.132-6.089,0.518-8.52,1.922l-44.438,25.656c-4.072,2.351-4.515,5.908-0.988,7.944l46.416,26.798
				c1.792,1.035,4.265,1.475,6.798,1.352C524.302,221.723,522.451,221.281,521.03,220.46z"/>
			
				<linearGradient id="SVGID_00000054241155420940867030000011393234112573584293_" gradientUnits="userSpaceOnUse" x1="485.685" y1="222.0894" x2="578.059" y2="161.7115">
				<stop  offset="0" style="stop-color:#42E8E0"/>
				<stop  offset="0.1022" style="stop-color:#3CCACE"/>
				<stop  offset="0.3445" style="stop-color:#2F87A5"/>
				<stop  offset="0.564" style="stop-color:#255385"/>
				<stop  offset="0.7534" style="stop-color:#1E2D6E"/>
				<stop  offset="0.905" style="stop-color:#1A1660"/>
				<stop  offset="1" style="stop-color:#180D5B"/>
			</linearGradient>
			<path style="opacity:0.5;fill:url(#SVGID_00000054241155420940867030000011393234112573584293_);" d="M577.669,198.104
				l-44.438,25.656c-4.072,2.351-10.233,2.607-13.76,0.57l-46.416-26.798c-1.695-0.978-2.463-2.309-2.363-3.686h-0.018v1.897h0.018
				c-0.1,1.378,0.668,2.708,2.363,3.687l46.416,26.798c3.527,2.036,9.688,1.781,13.76-0.57l44.438-25.656
				c2.349-1.356,3.483-3.113,3.351-4.748v-1.897C581.152,194.99,580.018,196.747,577.669,198.104z"/>
			<g>
				<path style="fill:#FCCC6B;" d="M569.61,195.577c0.507,0.292,0.507,0.767,0,1.059c-0.506,0.292-1.328,0.292-1.834,0
					c-0.507-0.292-0.507-0.767,0-1.059C568.282,195.284,569.104,195.284,569.61,195.577z"/>
				<path style="fill:#FCCC6B;" d="M572.467,193.927c0.507,0.292,0.507,0.767,0,1.059c-0.507,0.292-1.328,0.292-1.834,0
					c-0.506-0.293-0.506-0.767,0-1.059C571.139,193.635,571.961,193.635,572.467,193.927z"/>
				<path style="fill:#FCCC6B;" d="M575.324,192.278c0.506,0.292,0.506,0.767,0,1.059c-0.507,0.292-1.328,0.292-1.834,0
					c-0.507-0.292-0.507-0.767,0-1.059C573.996,191.986,574.817,191.986,575.324,192.278z"/>
			</g>
		</g>
		<g>
			<path style="opacity:0.5;fill:#0B0244;" d="M445.629,165.632l-29.335-16.937c-2.229-1.287-1.95-3.535,0.624-5.021l28.085-16.215
				c2.574-1.486,6.467-1.647,8.696-0.361l29.335,16.937c2.229,1.287,1.949,3.535-0.624,5.021l-28.085,16.215
				C451.752,166.758,447.858,166.919,445.629,165.632z"/>
			<path style="opacity:0.5;fill:#5CFFF3;" d="M504.833,146.285c0.012-0.164,0.013-0.328,0-0.49v-24.202l-38.45,0.171l-10.328-5.963
				c-3.527-2.036-9.688-1.781-13.76,0.57l-9.6,5.542l-38.207,0.17v24.202h0.018c-0.1,1.378,0.668,2.708,2.363,3.686l46.416,26.798
				c3.527,2.036,9.687,1.781,13.76-0.57l44.438-25.656C503.598,149.321,504.724,147.775,504.833,146.285L504.833,146.285
				L504.833,146.285z"/>
			<path style="fill:#312A91;" d="M504.828,121.607v-8.665h-22.352L456.05,97.685c-3.527-2.036-9.687-1.781-13.76,0.57
				l-25.439,14.687h-22.368v9.155h0.018c-0.101,1.378,0.668,2.708,2.363,3.687l46.416,26.798c3.527,2.036,9.688,1.781,13.76-0.57
				l44.438-25.656C503.827,124.999,504.96,123.243,504.828,121.607z"/>
			
				<linearGradient id="SVGID_00000168079717672083727940000008373703002974998717_" gradientUnits="userSpaceOnUse" x1="370.0895" y1="125.134" x2="480.4452" y2="125.134">
				<stop  offset="0" style="stop-color:#42E8E0"/>
				<stop  offset="0.1022" style="stop-color:#3CCACE"/>
				<stop  offset="0.3445" style="stop-color:#2F87A5"/>
				<stop  offset="0.564" style="stop-color:#255385"/>
				<stop  offset="0.7534" style="stop-color:#1E2D6E"/>
				<stop  offset="0.905" style="stop-color:#1A1660"/>
				<stop  offset="1" style="stop-color:#180D5B"/>
			</linearGradient>
			<path style="opacity:0.5;fill:url(#SVGID_00000168079717672083727940000008373703002974998717_);" d="M504.828,121.607v-8.665
				h-22.352L456.05,97.685c-3.527-2.036-9.687-1.781-13.76,0.57l-25.439,14.687h-22.368v9.155h0.018
				c-0.101,1.378,0.668,2.708,2.363,3.687l46.416,26.798c3.527,2.036,9.688,1.781,13.76-0.57l44.438-25.656
				C503.827,124.999,504.96,123.243,504.828,121.607z"/>
			
				<linearGradient id="SVGID_00000129187860967954065790000006462703371546163330_" gradientUnits="userSpaceOnUse" x1="449.6608" y1="125.1315" x2="504.8386" y2="125.1315">
				<stop  offset="0" style="stop-color:#2B237C"/>
				<stop  offset="1" style="stop-color:#180D5B"/>
			</linearGradient>
			<path style="fill:url(#SVGID_00000129187860967954065790000006462703371546163330_);" d="M456.05,97.685
				c-1.695-0.979-4.001-1.423-6.389-1.364v57.625c2.582-0.062,5.262-0.712,7.379-1.935l44.438-25.656
				c2.349-1.356,3.483-3.113,3.351-4.748v-8.665h-22.352L456.05,97.685z"/>
			<path style="fill:#312A91;" d="M443.28,143.427l-46.416-26.798c-3.527-2.036-3.085-5.593,0.988-7.944l44.438-25.656
				c4.072-2.351,10.233-2.607,13.76-0.57l46.416,26.798c3.527,2.036,3.085,5.593-0.988,7.944l-44.438,25.656
				C452.967,145.208,446.806,145.464,443.28,143.427z"/>
			
				<linearGradient id="SVGID_00000010273027140783236970000013242999720263521436_" gradientUnits="userSpaceOnUse" x1="394.4831" y1="112.9428" x2="504.8465" y2="112.9428">
				<stop  offset="0" style="stop-color:#42E8E0"/>
				<stop  offset="0.1022" style="stop-color:#3CCACE"/>
				<stop  offset="0.3445" style="stop-color:#2F87A5"/>
				<stop  offset="0.564" style="stop-color:#255385"/>
				<stop  offset="0.7534" style="stop-color:#1E2D6E"/>
				<stop  offset="0.905" style="stop-color:#1A1660"/>
				<stop  offset="1" style="stop-color:#180D5B"/>
			</linearGradient>
			<path style="opacity:0.5;fill:url(#SVGID_00000010273027140783236970000013242999720263521436_);" d="M443.28,143.427
				l-46.416-26.798c-3.527-2.036-3.085-5.593,0.988-7.944l44.438-25.656c4.072-2.351,10.233-2.607,13.76-0.57l46.416,26.798
				c3.527,2.036,3.085,5.593-0.988,7.944l-44.438,25.656C452.967,145.208,446.806,145.464,443.28,143.427z"/>
			
				<linearGradient id="SVGID_00000132769186925385728460000001204579989259780279_" gradientUnits="userSpaceOnUse" x1="394.483" y1="112.9445" x2="450.8101" y2="112.9445">
				<stop  offset="0" style="stop-color:#42E8E0"/>
				<stop  offset="0.1022" style="stop-color:#3CCACE"/>
				<stop  offset="0.3445" style="stop-color:#2F87A5"/>
				<stop  offset="0.564" style="stop-color:#255385"/>
				<stop  offset="0.7534" style="stop-color:#1E2D6E"/>
				<stop  offset="0.905" style="stop-color:#1A1660"/>
				<stop  offset="1" style="stop-color:#180D5B"/>
			</linearGradient>
			<path style="opacity:0.5;fill:url(#SVGID_00000132769186925385728460000001204579989259780279_);" d="M444.838,143.427
				l-46.416-26.798c-3.527-2.036-4.37-5.027,0.988-7.944l44.438-25.656c2.003-1.156,4.51-1.803,6.962-1.922
				c-2.915-0.132-6.089,0.518-8.52,1.922l-44.438,25.656c-4.073,2.351-4.515,5.908-0.988,7.944l46.416,26.798
				c1.793,1.035,4.265,1.475,6.798,1.352C448.11,144.69,446.259,144.248,444.838,143.427z"/>
			
				<linearGradient id="SVGID_00000067226005596207127250000002501895064399846535_" gradientUnits="userSpaceOnUse" x1="409.4935" y1="145.0564" x2="501.8674" y2="84.6785">
				<stop  offset="0" style="stop-color:#42E8E0"/>
				<stop  offset="0.1022" style="stop-color:#3CCACE"/>
				<stop  offset="0.3445" style="stop-color:#2F87A5"/>
				<stop  offset="0.564" style="stop-color:#255385"/>
				<stop  offset="0.7534" style="stop-color:#1E2D6E"/>
				<stop  offset="0.905" style="stop-color:#1A1660"/>
				<stop  offset="1" style="stop-color:#180D5B"/>
			</linearGradient>
			<path style="opacity:0.5;fill:url(#SVGID_00000067226005596207127250000002501895064399846535_);" d="M501.478,121.071
				l-44.438,25.656c-4.073,2.351-10.233,2.607-13.76,0.57l-46.416-26.798c-1.695-0.979-2.463-2.309-2.363-3.687h-0.018v1.897h0.018
				c-0.101,1.378,0.668,2.708,2.363,3.687l46.416,26.798c3.527,2.036,9.688,1.781,13.76-0.57l44.438-25.656
				c2.349-1.356,3.483-3.113,3.351-4.748v-1.897C504.96,117.957,503.827,119.714,501.478,121.071z"/>
		</g>
		<g>
			<path style="opacity:0.5;fill:#0B0244;" d="M369.438,209.68l-29.335-16.937c-2.229-1.287-1.95-3.535,0.624-5.021l28.085-16.215
				c2.574-1.486,6.467-1.647,8.697-0.361l29.335,16.937c2.229,1.287,1.949,3.535-0.624,5.021l-28.085,16.215
				C375.56,210.805,371.667,210.967,369.438,209.68z"/>
			<path style="opacity:0.5;fill:#5CFFF3;" d="M428.637,190.348c0.012-0.164,0.013-0.328,0-0.49v-24.202l-38.45,0.171l-10.328-5.963
				c-3.527-2.036-9.688-1.781-13.76,0.57l-9.6,5.542l-38.207,0.17v24.202h0.018c-0.1,1.378,0.668,2.708,2.363,3.686l46.416,26.798
				c3.527,2.036,9.687,1.781,13.76-0.57l44.438-25.656C427.402,193.384,428.529,191.838,428.637,190.348L428.637,190.348
				L428.637,190.348z"/>
			<path style="fill:#312A91;" d="M428.637,165.655v-8.665h-22.352l-26.427-15.257c-3.527-2.036-9.687-1.781-13.76,0.57
				l-25.439,14.687h-22.368v9.155h0.018c-0.101,1.378,0.668,2.708,2.363,3.687l46.415,26.798c3.527,2.036,9.688,1.781,13.76-0.57
				l44.438-25.656C427.635,169.047,428.769,167.291,428.637,165.655z"/>
			
				<linearGradient id="SVGID_00000039135070675939736690000011157166989631118465_" gradientUnits="userSpaceOnUse" x1="293.898" y1="169.1818" x2="404.2537" y2="169.1818">
				<stop  offset="0" style="stop-color:#42E8E0"/>
				<stop  offset="0.1022" style="stop-color:#3CCACE"/>
				<stop  offset="0.3445" style="stop-color:#2F87A5"/>
				<stop  offset="0.564" style="stop-color:#255385"/>
				<stop  offset="0.7534" style="stop-color:#1E2D6E"/>
				<stop  offset="0.905" style="stop-color:#1A1660"/>
				<stop  offset="1" style="stop-color:#180D5B"/>
			</linearGradient>
			<path style="opacity:0.5;fill:url(#SVGID_00000039135070675939736690000011157166989631118465_);" d="M428.637,165.655v-8.665
				h-22.352l-26.427-15.257c-3.527-2.036-9.687-1.781-13.76,0.57l-25.439,14.687h-22.368v9.155h0.018
				c-0.101,1.378,0.668,2.708,2.363,3.687l46.415,26.798c3.527,2.036,9.688,1.781,13.76-0.57l44.438-25.656
				C427.635,169.047,428.769,167.291,428.637,165.655z"/>
			
				<linearGradient id="SVGID_00000086655785128758554550000003324982720057168768_" gradientUnits="userSpaceOnUse" x1="373.4693" y1="169.1793" x2="428.6471" y2="169.1793">
				<stop  offset="0" style="stop-color:#2B237C"/>
				<stop  offset="1" style="stop-color:#180D5B"/>
			</linearGradient>
			<path style="fill:url(#SVGID_00000086655785128758554550000003324982720057168768_);" d="M379.858,141.733
				c-1.695-0.979-4.001-1.423-6.389-1.364v57.625c2.582-0.062,5.262-0.712,7.379-1.935l44.438-25.656
				c2.349-1.356,3.483-3.113,3.351-4.748v-8.665h-22.352L379.858,141.733z"/>
			<path style="fill:#312A91;" d="M367.088,187.475l-46.415-26.798c-3.527-2.036-3.085-5.593,0.988-7.944l44.438-25.656
				c4.073-2.351,10.233-2.607,13.76-0.57l46.415,26.798c3.527,2.036,3.085,5.593-0.988,7.944l-44.438,25.656
				C376.776,189.256,370.615,189.511,367.088,187.475z"/>
			
				<linearGradient id="SVGID_00000182505735398509412090000008000961709864971158_" gradientUnits="userSpaceOnUse" x1="318.2916" y1="156.9907" x2="428.655" y2="156.9907">
				<stop  offset="0" style="stop-color:#42E8E0"/>
				<stop  offset="0.1022" style="stop-color:#3CCACE"/>
				<stop  offset="0.3445" style="stop-color:#2F87A5"/>
				<stop  offset="0.564" style="stop-color:#255385"/>
				<stop  offset="0.7534" style="stop-color:#1E2D6E"/>
				<stop  offset="0.905" style="stop-color:#1A1660"/>
				<stop  offset="1" style="stop-color:#180D5B"/>
			</linearGradient>
			<path style="opacity:0.5;fill:url(#SVGID_00000182505735398509412090000008000961709864971158_);" d="M367.088,187.475
				l-46.415-26.798c-3.527-2.036-3.085-5.593,0.988-7.944l44.438-25.656c4.073-2.351,10.233-2.607,13.76-0.57l46.415,26.798
				c3.527,2.036,3.085,5.593-0.988,7.944l-44.438,25.656C376.776,189.256,370.615,189.511,367.088,187.475z"/>
			<path style="fill:#5CFFF3;" d="M368.329,181.552l-37.397-21.591c-2.842-1.641-2.485-4.506,0.796-6.401l35.804-20.671
				c3.281-1.894,8.245-2.1,11.086-0.46l37.397,21.591c2.842,1.641,2.485,4.506-0.796,6.401l-35.804,20.671
				C376.134,182.987,371.17,183.193,368.329,181.552z"/>
			<path style="fill:#42E8E0;" d="M331.727,156.361l35.804-20.671c3.281-1.894,8.245-2.1,11.086-0.46l37.397,21.591
				c0.702,0.405,1.207,0.885,1.522,1.407c0.825-1.516,0.349-3.127-1.522-4.207l-37.397-21.591c-2.842-1.641-7.805-1.435-11.086,0.46
				l-35.804,20.671c-2.471,1.427-3.282,3.404-2.318,4.994C329.837,157.768,330.607,157.008,331.727,156.361z"/>
			
				<linearGradient id="SVGID_00000177475980792546175670000016658230587111382702_" gradientUnits="userSpaceOnUse" x1="318.2915" y1="156.9924" x2="374.6186" y2="156.9924">
				<stop  offset="0" style="stop-color:#42E8E0"/>
				<stop  offset="0.1022" style="stop-color:#3CCACE"/>
				<stop  offset="0.3445" style="stop-color:#2F87A5"/>
				<stop  offset="0.564" style="stop-color:#255385"/>
				<stop  offset="0.7534" style="stop-color:#1E2D6E"/>
				<stop  offset="0.905" style="stop-color:#1A1660"/>
				<stop  offset="1" style="stop-color:#180D5B"/>
			</linearGradient>
			<path style="opacity:0.5;fill:url(#SVGID_00000177475980792546175670000016658230587111382702_);" d="M368.647,187.475
				l-46.416-26.798c-3.527-2.036-4.37-5.027,0.988-7.944l44.438-25.656c2.003-1.156,4.51-1.803,6.962-1.922
				c-2.915-0.132-6.089,0.518-8.52,1.922l-44.438,25.656c-4.072,2.351-4.515,5.908-0.988,7.944l46.415,26.798
				c1.793,1.035,4.265,1.475,6.798,1.352C371.919,188.738,370.068,188.296,368.647,187.475z"/>
			
				<linearGradient id="SVGID_00000049209877034469192860000002042374775014805683_" gradientUnits="userSpaceOnUse" x1="333.302" y1="189.1042" x2="425.6759" y2="128.7264">
				<stop  offset="0" style="stop-color:#42E8E0"/>
				<stop  offset="0.1022" style="stop-color:#3CCACE"/>
				<stop  offset="0.3445" style="stop-color:#2F87A5"/>
				<stop  offset="0.564" style="stop-color:#255385"/>
				<stop  offset="0.7534" style="stop-color:#1E2D6E"/>
				<stop  offset="0.905" style="stop-color:#1A1660"/>
				<stop  offset="1" style="stop-color:#180D5B"/>
			</linearGradient>
			<path style="opacity:0.5;fill:url(#SVGID_00000049209877034469192860000002042374775014805683_);" d="M425.286,165.118
				l-44.438,25.656c-4.073,2.351-10.233,2.607-13.76,0.57l-46.415-26.798c-1.695-0.978-2.463-2.308-2.363-3.686h-0.018v1.897h0.018
				c-0.101,1.378,0.668,2.708,2.363,3.687l46.415,26.798c3.527,2.036,9.688,1.781,13.76-0.57l44.438-25.656
				c2.349-1.356,3.483-3.113,3.351-4.749v-1.897C428.769,162.005,427.635,163.762,425.286,165.118z"/>
			<g>
				<path style="fill:#FCCC6B;" d="M417.227,162.592c0.507,0.292,0.507,0.767,0,1.059c-0.507,0.292-1.328,0.292-1.834,0
					c-0.507-0.293-0.507-0.767,0-1.059C415.899,162.299,416.721,162.299,417.227,162.592z"/>
				<path style="fill:#FCCC6B;" d="M420.084,160.942c0.507,0.292,0.507,0.767,0,1.059c-0.507,0.292-1.328,0.292-1.834,0
					c-0.507-0.292-0.507-0.767,0-1.059C418.756,160.65,419.577,160.65,420.084,160.942z"/>
				<path style="fill:#FCCC6B;" d="M422.941,159.293c0.507,0.292,0.507,0.767,0,1.059s-1.328,0.292-1.834,0
					c-0.506-0.292-0.506-0.767,0-1.059C421.613,159,422.434,159,422.941,159.293z"/>
			</g>
		</g>
		<g>
			<path style="opacity:0.5;fill:#0B0244;" d="M521.821,209.308l-29.335-16.937c-2.229-1.287-1.949-3.535,0.624-5.021l28.085-16.215
				c2.574-1.486,6.467-1.647,8.696-0.36l29.335,16.937c2.229,1.287,1.949,3.535-0.624,5.021l-28.085,16.215
				C527.943,210.434,524.05,210.595,521.821,209.308z"/>
			<path style="opacity:0.5;fill:#5CFFF3;" d="M581.024,189.998c0.012-0.165,0.013-0.328,0-0.491v-24.202l-38.45,0.171
				l-10.328-5.963c-3.527-2.036-9.688-1.781-13.76,0.57l-9.6,5.542l-38.207,0.17v24.202h0.018c-0.1,1.378,0.668,2.708,2.363,3.687
				l46.416,26.798c3.527,2.036,9.687,1.781,13.76-0.57l44.438-25.656C579.789,193.035,580.916,191.488,581.024,189.998
				L581.024,189.998L581.024,189.998z"/>
			<path style="fill:#312A91;" d="M581.02,165.283v-8.665h-22.352l-26.427-15.257c-3.527-2.036-9.687-1.781-13.76,0.57
				l-25.439,14.687h-22.368v9.155h0.018c-0.1,1.378,0.668,2.708,2.363,3.686l46.416,26.798c3.527,2.036,9.688,1.781,13.76-0.57
				l44.438-25.656C580.018,168.676,581.152,166.919,581.02,165.283z"/>
			
				<linearGradient id="SVGID_00000004524838385915801980000017628634642277285542_" gradientUnits="userSpaceOnUse" x1="446.2811" y1="168.81" x2="556.6367" y2="168.81">
				<stop  offset="0" style="stop-color:#42E8E0"/>
				<stop  offset="0.1022" style="stop-color:#3CCACE"/>
				<stop  offset="0.3445" style="stop-color:#2F87A5"/>
				<stop  offset="0.564" style="stop-color:#255385"/>
				<stop  offset="0.7534" style="stop-color:#1E2D6E"/>
				<stop  offset="0.905" style="stop-color:#1A1660"/>
				<stop  offset="1" style="stop-color:#180D5B"/>
			</linearGradient>
			<path style="opacity:0.5;fill:url(#SVGID_00000004524838385915801980000017628634642277285542_);" d="M581.02,165.283v-8.665
				h-22.352l-26.427-15.257c-3.527-2.036-9.687-1.781-13.76,0.57l-25.439,14.687h-22.368v9.155h0.018
				c-0.1,1.378,0.668,2.708,2.363,3.686l46.416,26.798c3.527,2.036,9.688,1.781,13.76-0.57l44.438-25.656
				C580.018,168.676,581.152,166.919,581.02,165.283z"/>
			
				<linearGradient id="SVGID_00000082362183244613975610000005318516776778094500_" gradientUnits="userSpaceOnUse" x1="525.8523" y1="168.8075" x2="581.0301" y2="168.8075">
				<stop  offset="0" style="stop-color:#2B237C"/>
				<stop  offset="1" style="stop-color:#180D5B"/>
			</linearGradient>
			<path style="fill:url(#SVGID_00000082362183244613975610000005318516776778094500_);" d="M532.241,141.361
				c-1.695-0.979-4.001-1.423-6.389-1.364v57.626c2.582-0.062,5.262-0.713,7.379-1.935l44.438-25.656
				c2.349-1.356,3.483-3.113,3.351-4.749v-8.665h-22.352L532.241,141.361z"/>
			<path style="fill:#312A91;" d="M519.471,187.103l-46.416-26.798c-3.527-2.036-3.085-5.593,0.988-7.944l44.438-25.656
				c4.073-2.351,10.233-2.607,13.76-0.57l46.415,26.798c3.527,2.036,3.085,5.593-0.988,7.944l-44.438,25.656
				C529.159,188.884,522.998,189.14,519.471,187.103z"/>
			
				<linearGradient id="SVGID_00000120557344886340369470000003275792011265177741_" gradientUnits="userSpaceOnUse" x1="470.6746" y1="156.6188" x2="581.038" y2="156.6188">
				<stop  offset="0" style="stop-color:#42E8E0"/>
				<stop  offset="0.1022" style="stop-color:#3CCACE"/>
				<stop  offset="0.3445" style="stop-color:#2F87A5"/>
				<stop  offset="0.564" style="stop-color:#255385"/>
				<stop  offset="0.7534" style="stop-color:#1E2D6E"/>
				<stop  offset="0.905" style="stop-color:#1A1660"/>
				<stop  offset="1" style="stop-color:#180D5B"/>
			</linearGradient>
			<path style="opacity:0.5;fill:url(#SVGID_00000120557344886340369470000003275792011265177741_);" d="M519.471,187.103
				l-46.416-26.798c-3.527-2.036-3.085-5.593,0.988-7.944l44.438-25.656c4.073-2.351,10.233-2.607,13.76-0.57l46.415,26.798
				c3.527,2.036,3.085,5.593-0.988,7.944l-44.438,25.656C529.159,188.884,522.998,189.14,519.471,187.103z"/>
			
				<linearGradient id="SVGID_00000124842531729429070020000012115985659107822229_" gradientUnits="userSpaceOnUse" x1="470.6745" y1="156.6205" x2="527.0016" y2="156.6205">
				<stop  offset="0" style="stop-color:#42E8E0"/>
				<stop  offset="0.1022" style="stop-color:#3CCACE"/>
				<stop  offset="0.3445" style="stop-color:#2F87A5"/>
				<stop  offset="0.564" style="stop-color:#255385"/>
				<stop  offset="0.7534" style="stop-color:#1E2D6E"/>
				<stop  offset="0.905" style="stop-color:#1A1660"/>
				<stop  offset="1" style="stop-color:#180D5B"/>
			</linearGradient>
			<path style="opacity:0.5;fill:url(#SVGID_00000124842531729429070020000012115985659107822229_);" d="M521.03,187.103
				l-46.416-26.798c-3.527-2.036-4.37-5.027,0.988-7.944l44.438-25.656c2.003-1.156,4.51-1.803,6.962-1.922
				c-2.915-0.132-6.089,0.518-8.52,1.922l-44.438,25.656c-4.072,2.351-4.515,5.908-0.988,7.944l46.416,26.798
				c1.792,1.035,4.265,1.475,6.798,1.352C524.302,188.366,522.451,187.924,521.03,187.103z"/>
			
				<linearGradient id="SVGID_00000161603167760581182680000014954686958477334941_" gradientUnits="userSpaceOnUse" x1="485.685" y1="188.7323" x2="578.059" y2="128.3545">
				<stop  offset="0" style="stop-color:#42E8E0"/>
				<stop  offset="0.1022" style="stop-color:#3CCACE"/>
				<stop  offset="0.3445" style="stop-color:#2F87A5"/>
				<stop  offset="0.564" style="stop-color:#255385"/>
				<stop  offset="0.7534" style="stop-color:#1E2D6E"/>
				<stop  offset="0.905" style="stop-color:#1A1660"/>
				<stop  offset="1" style="stop-color:#180D5B"/>
			</linearGradient>
			<path style="opacity:0.5;fill:url(#SVGID_00000161603167760581182680000014954686958477334941_);" d="M577.669,164.747
				l-44.438,25.656c-4.072,2.351-10.233,2.607-13.76,0.57l-46.416-26.798c-1.695-0.978-2.463-2.309-2.363-3.687h-0.018v1.897h0.018
				c-0.1,1.378,0.668,2.708,2.363,3.686l46.416,26.798c3.527,2.036,9.688,1.781,13.76-0.57l44.438-25.656
				c2.349-1.356,3.483-3.113,3.351-4.748v-1.897C581.152,161.633,580.018,163.39,577.669,164.747z"/>
		</g>
		<g>
			<g>
				<path style="opacity:0.5;fill:#0B0244;" d="M443.9,294.97l-41.907-24.195c-3.184-1.839-2.785-5.05,0.892-7.173l40.122-23.164
					c3.677-2.123,9.239-2.353,12.424-0.515l41.907,24.195c3.184,1.839,2.785,5.05-0.892,7.173l-40.122,23.164
					C452.646,296.578,447.084,296.809,443.9,294.97z"/>
				<path style="fill:#312A91;" d="M504.828,242.688v-8.665h-22.352l-26.427-15.257c-3.527-2.036-9.687-1.781-13.76,0.57
					l-25.439,14.687h-22.368v9.155h0.018c-0.101,1.378,0.668,2.708,2.363,3.687l46.416,26.798c3.527,2.036,9.688,1.781,13.76-0.57
					l44.438-25.656C503.827,246.08,504.96,244.324,504.828,242.688z"/>
				
					<linearGradient id="SVGID_00000076570840623039734640000000114273092189274800_" gradientUnits="userSpaceOnUse" x1="370.0895" y1="246.2149" x2="480.4452" y2="246.2149">
					<stop  offset="0" style="stop-color:#42E8E0"/>
					<stop  offset="0.1022" style="stop-color:#3CCACE"/>
					<stop  offset="0.3445" style="stop-color:#2F87A5"/>
					<stop  offset="0.564" style="stop-color:#255385"/>
					<stop  offset="0.7534" style="stop-color:#1E2D6E"/>
					<stop  offset="0.905" style="stop-color:#1A1660"/>
					<stop  offset="1" style="stop-color:#180D5B"/>
				</linearGradient>
				<path style="opacity:0.5;fill:url(#SVGID_00000076570840623039734640000000114273092189274800_);" d="M504.828,242.688v-8.665
					h-22.352l-26.427-15.257c-3.527-2.036-9.687-1.781-13.76,0.57l-25.439,14.687h-22.368v9.155h0.018
					c-0.101,1.378,0.668,2.708,2.363,3.687l46.416,26.798c3.527,2.036,9.688,1.781,13.76-0.57l44.438-25.656
					C503.827,246.08,504.96,244.324,504.828,242.688z"/>
				
					<linearGradient id="SVGID_00000154425366168389199550000005395160029357518984_" gradientUnits="userSpaceOnUse" x1="449.6608" y1="246.2124" x2="504.8386" y2="246.2124">
					<stop  offset="0" style="stop-color:#2B237C"/>
					<stop  offset="1" style="stop-color:#180D5B"/>
				</linearGradient>
				<path style="fill:url(#SVGID_00000154425366168389199550000005395160029357518984_);" d="M456.05,218.766
					c-1.695-0.979-4.001-1.423-6.389-1.364v57.626c2.582-0.062,5.262-0.713,7.379-1.935l44.438-25.656
					c2.349-1.356,3.483-3.113,3.351-4.748v-8.665h-22.352L456.05,218.766z"/>
				<path style="fill:#312A91;" d="M443.28,264.508l-46.416-26.798c-3.527-2.036-3.085-5.593,0.988-7.944l44.438-25.656
					c4.072-2.351,10.233-2.607,13.76-0.57l46.416,26.798c3.527,2.036,3.085,5.593-0.988,7.944l-44.438,25.656
					C452.967,266.289,446.806,266.544,443.28,264.508z"/>
				
					<linearGradient id="SVGID_00000131327267358049660110000006856276434100957351_" gradientUnits="userSpaceOnUse" x1="394.4831" y1="234.0237" x2="504.8465" y2="234.0237">
					<stop  offset="0" style="stop-color:#42E8E0"/>
					<stop  offset="0.1022" style="stop-color:#3CCACE"/>
					<stop  offset="0.3445" style="stop-color:#2F87A5"/>
					<stop  offset="0.564" style="stop-color:#255385"/>
					<stop  offset="0.7534" style="stop-color:#1E2D6E"/>
					<stop  offset="0.905" style="stop-color:#1A1660"/>
					<stop  offset="1" style="stop-color:#180D5B"/>
				</linearGradient>
				<path style="opacity:0.5;fill:url(#SVGID_00000131327267358049660110000006856276434100957351_);" d="M443.28,264.508
					l-46.416-26.798c-3.527-2.036-3.085-5.593,0.988-7.944l44.438-25.656c4.072-2.351,10.233-2.607,13.76-0.57l46.416,26.798
					c3.527,2.036,3.085,5.593-0.988,7.944l-44.438,25.656C452.967,266.289,446.806,266.544,443.28,264.508z"/>
				<path style="fill:#5CFFF3;" d="M444.52,258.585l-37.397-21.591c-2.842-1.641-2.485-4.506,0.796-6.401l35.804-20.671
					c3.281-1.894,8.245-2.1,11.086-0.46l37.397,21.591c2.842,1.641,2.485,4.506-0.796,6.401l-35.804,20.671
					C452.326,260.02,447.362,260.226,444.52,258.585z"/>
				<path style="fill:#42E8E0;" d="M407.919,233.394l35.804-20.672c3.281-1.894,8.245-2.1,11.086-0.46l37.397,21.591
					c0.702,0.405,1.207,0.885,1.522,1.407c0.825-1.516,0.349-3.127-1.522-4.208l-37.397-21.591
					c-2.842-1.641-7.805-1.435-11.086,0.46l-35.804,20.671c-2.471,1.427-3.282,3.404-2.318,4.994
					C406.028,234.801,406.799,234.041,407.919,233.394z"/>
				
					<linearGradient id="SVGID_00000016765998695502157190000005958960599876820639_" gradientUnits="userSpaceOnUse" x1="394.483" y1="234.0254" x2="450.8101" y2="234.0254">
					<stop  offset="0" style="stop-color:#42E8E0"/>
					<stop  offset="0.1022" style="stop-color:#3CCACE"/>
					<stop  offset="0.3445" style="stop-color:#2F87A5"/>
					<stop  offset="0.564" style="stop-color:#255385"/>
					<stop  offset="0.7534" style="stop-color:#1E2D6E"/>
					<stop  offset="0.905" style="stop-color:#1A1660"/>
					<stop  offset="1" style="stop-color:#180D5B"/>
				</linearGradient>
				<path style="opacity:0.5;fill:url(#SVGID_00000016765998695502157190000005958960599876820639_);" d="M444.838,264.508
					l-46.416-26.798c-3.527-2.036-4.37-5.027,0.988-7.944l44.438-25.656c2.003-1.156,4.51-1.803,6.962-1.922
					c-2.915-0.132-6.089,0.518-8.52,1.922l-44.438,25.656c-4.073,2.351-4.515,5.908-0.988,7.944l46.416,26.798
					c1.793,1.035,4.265,1.475,6.798,1.352C448.11,265.771,446.259,265.329,444.838,264.508z"/>
				
					<linearGradient id="SVGID_00000060021065295741351270000007596107384758797750_" gradientUnits="userSpaceOnUse" x1="409.4935" y1="266.1372" x2="501.8674" y2="205.7594">
					<stop  offset="0" style="stop-color:#42E8E0"/>
					<stop  offset="0.1022" style="stop-color:#3CCACE"/>
					<stop  offset="0.3445" style="stop-color:#2F87A5"/>
					<stop  offset="0.564" style="stop-color:#255385"/>
					<stop  offset="0.7534" style="stop-color:#1E2D6E"/>
					<stop  offset="0.905" style="stop-color:#1A1660"/>
					<stop  offset="1" style="stop-color:#180D5B"/>
				</linearGradient>
				<path style="opacity:0.5;fill:url(#SVGID_00000060021065295741351270000007596107384758797750_);" d="M501.478,242.152
					l-44.438,25.656c-4.073,2.351-10.233,2.607-13.76,0.57l-46.416-26.798c-1.695-0.979-2.463-2.308-2.363-3.686h-0.018v1.897h0.018
					c-0.101,1.378,0.668,2.708,2.363,3.686l46.416,26.798c3.527,2.036,9.688,1.781,13.76-0.57l44.438-25.656
					c2.349-1.356,3.483-3.113,3.351-4.748v-1.897C504.96,239.038,503.827,240.795,501.478,242.152z"/>
				<g>
					<path style="fill:#FCCC6B;" d="M493.419,239.625c0.507,0.292,0.507,0.767,0,1.059c-0.507,0.292-1.328,0.292-1.834,0
						c-0.507-0.292-0.507-0.767,0-1.059C492.091,239.332,492.912,239.332,493.419,239.625z"/>
					<path style="fill:#FCCC6B;" d="M496.276,237.975c0.507,0.292,0.507,0.767,0,1.059c-0.507,0.292-1.328,0.292-1.834,0
						c-0.507-0.292-0.507-0.767,0-1.059C494.948,237.683,495.769,237.683,496.276,237.975z"/>
					<path style="fill:#FCCC6B;" d="M499.132,236.326c0.507,0.292,0.507,0.767,0,1.059c-0.507,0.292-1.328,0.292-1.834,0
						c-0.507-0.292-0.507-0.767,0-1.059C497.805,236.033,498.626,236.033,499.132,236.326z"/>
				</g>
			</g>
			<g>
				<path style="opacity:0.5;fill:#0B0244;" d="M445.629,253.356l-29.335-16.937c-2.229-1.287-1.95-3.535,0.624-5.021l28.085-16.215
					c2.574-1.486,6.467-1.647,8.696-0.36l29.335,16.937c2.229,1.287,1.949,3.535-0.624,5.021l-28.085,16.215
					C451.752,254.482,447.858,254.643,445.629,253.356z"/>
				<path style="opacity:0.5;fill:#5CFFF3;" d="M504.828,234.024c0.012-0.164,0.013-0.328,0-0.491v-24.202l-38.45,0.171
					l-10.328-5.963c-3.527-2.036-9.688-1.781-13.76,0.57l-9.6,5.542l-38.207,0.17v24.202h0.018c-0.1,1.378,0.668,2.708,2.363,3.687
					l46.416,26.798c3.527,2.036,9.687,1.781,13.76-0.57l44.438-25.656C503.593,237.06,504.72,235.514,504.828,234.024
					L504.828,234.024L504.828,234.024z"/>
				<path style="fill:#312A91;" d="M504.828,209.331v-8.665h-22.352l-26.427-15.257c-3.527-2.036-9.687-1.781-13.76,0.57
					l-25.439,14.687h-22.368v9.155h0.018c-0.101,1.378,0.668,2.708,2.363,3.687l46.416,26.798c3.527,2.036,9.688,1.781,13.76-0.57
					l44.438-25.656C503.827,212.723,504.96,210.967,504.828,209.331z"/>
				
					<linearGradient id="SVGID_00000052805660584908189320000000680464550289197210_" gradientUnits="userSpaceOnUse" x1="370.0895" y1="212.8578" x2="480.4452" y2="212.8578">
					<stop  offset="0" style="stop-color:#42E8E0"/>
					<stop  offset="0.1022" style="stop-color:#3CCACE"/>
					<stop  offset="0.3445" style="stop-color:#2F87A5"/>
					<stop  offset="0.564" style="stop-color:#255385"/>
					<stop  offset="0.7534" style="stop-color:#1E2D6E"/>
					<stop  offset="0.905" style="stop-color:#1A1660"/>
					<stop  offset="1" style="stop-color:#180D5B"/>
				</linearGradient>
				<path style="opacity:0.5;fill:url(#SVGID_00000052805660584908189320000000680464550289197210_);" d="M504.828,209.331v-8.665
					h-22.352l-26.427-15.257c-3.527-2.036-9.687-1.781-13.76,0.57l-25.439,14.687h-22.368v9.155h0.018
					c-0.101,1.378,0.668,2.708,2.363,3.687l46.416,26.798c3.527,2.036,9.688,1.781,13.76-0.57l44.438-25.656
					C503.827,212.723,504.96,210.967,504.828,209.331z"/>
				
					<linearGradient id="SVGID_00000081624808688119727410000013112398893022376126_" gradientUnits="userSpaceOnUse" x1="449.6608" y1="212.8554" x2="504.8386" y2="212.8554">
					<stop  offset="0" style="stop-color:#2B237C"/>
					<stop  offset="1" style="stop-color:#180D5B"/>
				</linearGradient>
				<path style="fill:url(#SVGID_00000081624808688119727410000013112398893022376126_);" d="M456.05,185.409
					c-1.695-0.979-4.001-1.423-6.389-1.364v57.626c2.582-0.062,5.262-0.712,7.379-1.935l44.438-25.656
					c2.349-1.356,3.483-3.113,3.351-4.748v-8.665h-22.352L456.05,185.409z"/>
				<path style="fill:#312A91;" d="M443.28,231.151l-46.416-26.798c-3.527-2.036-3.085-5.593,0.988-7.944l44.438-25.656
					c4.072-2.351,10.233-2.607,13.76-0.57l46.416,26.798c3.527,2.036,3.085,5.593-0.988,7.944l-44.438,25.656
					C452.967,232.932,446.806,233.188,443.28,231.151z"/>
				
					<linearGradient id="SVGID_00000000941424274347737590000003737552249728965784_" gradientUnits="userSpaceOnUse" x1="394.4831" y1="200.6667" x2="504.8465" y2="200.6667">
					<stop  offset="0" style="stop-color:#42E8E0"/>
					<stop  offset="0.1022" style="stop-color:#3CCACE"/>
					<stop  offset="0.3445" style="stop-color:#2F87A5"/>
					<stop  offset="0.564" style="stop-color:#255385"/>
					<stop  offset="0.7534" style="stop-color:#1E2D6E"/>
					<stop  offset="0.905" style="stop-color:#1A1660"/>
					<stop  offset="1" style="stop-color:#180D5B"/>
				</linearGradient>
				<path style="opacity:0.5;fill:url(#SVGID_00000000941424274347737590000003737552249728965784_);" d="M443.28,231.151
					l-46.416-26.798c-3.527-2.036-3.085-5.593,0.988-7.944l44.438-25.656c4.072-2.351,10.233-2.607,13.76-0.57l46.416,26.798
					c3.527,2.036,3.085,5.593-0.988,7.944l-44.438,25.656C452.967,232.932,446.806,233.188,443.28,231.151z"/>
				
					<linearGradient id="SVGID_00000021090905733342753800000017398463004361647017_" gradientUnits="userSpaceOnUse" x1="394.483" y1="200.6684" x2="450.8101" y2="200.6684">
					<stop  offset="0" style="stop-color:#42E8E0"/>
					<stop  offset="0.1022" style="stop-color:#3CCACE"/>
					<stop  offset="0.3445" style="stop-color:#2F87A5"/>
					<stop  offset="0.564" style="stop-color:#255385"/>
					<stop  offset="0.7534" style="stop-color:#1E2D6E"/>
					<stop  offset="0.905" style="stop-color:#1A1660"/>
					<stop  offset="1" style="stop-color:#180D5B"/>
				</linearGradient>
				<path style="opacity:0.5;fill:url(#SVGID_00000021090905733342753800000017398463004361647017_);" d="M444.838,231.151
					l-46.416-26.798c-3.527-2.036-4.37-5.027,0.988-7.944l44.438-25.656c2.003-1.156,4.51-1.803,6.962-1.922
					c-2.915-0.132-6.089,0.518-8.52,1.922l-44.438,25.656c-4.073,2.351-4.515,5.908-0.988,7.944l46.416,26.798
					c1.793,1.035,4.265,1.475,6.798,1.352C448.11,232.414,446.259,231.972,444.838,231.151z"/>
				
					<linearGradient id="SVGID_00000118364937328294811280000006463729792085998779_" gradientUnits="userSpaceOnUse" x1="409.4935" y1="232.7803" x2="501.8674" y2="172.4024">
					<stop  offset="0" style="stop-color:#42E8E0"/>
					<stop  offset="0.1022" style="stop-color:#3CCACE"/>
					<stop  offset="0.3445" style="stop-color:#2F87A5"/>
					<stop  offset="0.564" style="stop-color:#255385"/>
					<stop  offset="0.7534" style="stop-color:#1E2D6E"/>
					<stop  offset="0.905" style="stop-color:#1A1660"/>
					<stop  offset="1" style="stop-color:#180D5B"/>
				</linearGradient>
				<path style="opacity:0.5;fill:url(#SVGID_00000118364937328294811280000006463729792085998779_);" d="M501.478,208.794
					l-44.438,25.656c-4.073,2.351-10.233,2.607-13.76,0.57l-46.416-26.798c-1.695-0.978-2.463-2.309-2.363-3.686h-0.018v1.897h0.018
					c-0.101,1.378,0.668,2.708,2.363,3.686l46.416,26.798c3.527,2.036,9.688,1.781,13.76-0.57l44.438-25.656
					c2.349-1.356,3.483-3.113,3.351-4.748v-1.897C504.96,205.681,503.827,207.438,501.478,208.794z"/>
			</g>
			<g>
				<path style="opacity:0.2;fill:#5CFFF3;" d="M445.974,202.606c0.964,0.557,0.964,1.459,0,2.015s-2.527,0.557-3.491,0
					c-0.964-0.557-0.964-1.459,0-2.015C443.447,202.05,445.01,202.05,445.974,202.606z"/>
				<path style="opacity:0.6;fill:#5CFFF3;" d="M451.41,199.468c0.964,0.557,0.964,1.459,0,2.015c-0.964,0.557-2.527,0.557-3.491,0
					c-0.964-0.557-0.964-1.459,0-2.015S450.446,198.911,451.41,199.468z"/>
				<path style="fill:#5CFFF3;" d="M456.846,196.329c0.964,0.557,0.964,1.459,0,2.015s-2.527,0.557-3.491,0
					c-0.964-0.557-0.964-1.459,0-2.015C454.32,195.773,455.882,195.773,456.846,196.329z"/>
			</g>
			<path style="opacity:0.5;fill:#0B0244;" d="M449.36,224.566c-1.721,0-3.365-0.347-4.592-1.056l-34.319-19.814
				c-1.248-0.721-1.936-1.734-1.936-2.854c0-1.326,0.972-2.647,2.666-3.625l32.857-18.971c3.103-1.793,7.825-1.981,10.523-0.422
				l34.32,19.814c1.248,0.721,1.935,1.734,1.935,2.855c0,1.326-0.972,2.647-2.666,3.625l-32.857,18.971
				C453.6,224.066,451.426,224.566,449.36,224.566z M445.118,222.904c2.507,1.444,6.913,1.258,9.825-0.422l32.857-18.971
				c1.472-0.85,2.315-1.95,2.315-3.02c0-0.859-0.563-1.658-1.585-2.249l-34.32-19.814c-2.51-1.446-6.915-1.257-9.824,0.422
				l-32.857,18.971c-1.472,0.85-2.315,1.95-2.315,3.02c0,0.859,0.563,1.658,1.585,2.249L445.118,222.904z"/>
		</g>
		<path style="opacity:0.5;fill:#0B0244;" d="M525.55,180.892c-1.722,0-3.366-0.348-4.594-1.057l-34.319-19.815
			c-1.248-0.72-1.936-1.733-1.936-2.852c0-1.326,0.972-2.648,2.666-3.627l32.857-18.97c3.102-1.791,7.823-1.982,10.523-0.422
			l34.32,19.814c1.248,0.721,1.936,1.734,1.936,2.855c0,1.326-0.972,2.647-2.666,3.625l-32.857,18.971
			C529.788,180.392,527.614,180.892,525.55,180.892z M521.305,179.23c2.508,1.447,6.915,1.258,9.825-0.421l32.857-18.971
			c1.472-0.85,2.315-1.95,2.315-3.02c0-0.859-0.563-1.658-1.585-2.249l-34.32-19.814c-2.506-1.445-6.912-1.258-9.824,0.422
			l-32.857,18.97c-1.472,0.851-2.315,1.952-2.315,3.021c0,0.858,0.563,1.657,1.585,2.247L521.305,179.23z"/>
		<path style="opacity:0.5;fill:#0B0244;" d="M449.362,136.991c-1.749,0-3.421-0.354-4.669-1.074l-34.319-19.814
			c-1.296-0.748-2.01-1.807-2.01-2.982c-0.001-1.382,0.998-2.751,2.74-3.757l32.857-18.97c3.145-1.815,7.933-2.007,10.674-0.422
			l34.32,19.814c1.297,0.748,2.011,1.809,2.01,2.984c0,1.381-0.999,2.75-2.74,3.755l-32.857,18.971
			C453.655,136.485,451.454,136.991,449.362,136.991z M445.193,135.052c2.467,1.421,6.807,1.232,9.675-0.421l32.857-18.971
			c1.424-0.822,2.24-1.876,2.24-2.89c0.001-0.804-0.536-1.557-1.51-2.119l-34.32-19.814c-2.465-1.422-6.805-1.233-9.674,0.422
			l-32.857,18.97c-1.424,0.823-2.241,1.877-2.24,2.892c0,0.803,0.536,1.555,1.51,2.117L445.193,135.052z"/>
	</g>
	<g>
		<polygon style="fill:#42E8E0;" points="399.77,160.709 368.764,142.808 370.99,141.523 401.996,159.424 		"/>
		<polygon style="fill:#42E8E0;" points="395.008,163.459 364.002,145.558 366.227,144.273 397.233,162.174 		"/>
		<polygon style="fill:#42E8E0;" points="390.245,166.209 359.239,148.307 361.464,147.023 392.47,164.924 		"/>
		<polygon style="fill:#42E8E0;" points="385.482,168.959 354.476,151.057 356.702,149.773 387.708,167.674 		"/>
		<polygon style="fill:#42E8E0;" points="380.719,171.708 349.713,153.807 351.939,152.522 382.945,170.424 		"/>
		<polygon style="fill:#42E8E0;" points="375.957,174.458 344.951,156.557 347.176,155.272 378.182,173.173 		"/>
	</g>
	<g>
		<path style="opacity:0.2;fill:#5CFFF3;" d="M522.165,158.747c0.964,0.557,0.964,1.459,0,2.015c-0.964,0.557-2.527,0.557-3.491,0
			c-0.964-0.556-0.964-1.459,0-2.015C519.639,158.19,521.201,158.19,522.165,158.747z"/>
		<path style="opacity:0.6;fill:#5CFFF3;" d="M527.602,155.608c0.964,0.557,0.964,1.459,0,2.015c-0.964,0.556-2.527,0.556-3.491,0
			c-0.964-0.557-0.964-1.459,0-2.015C525.075,155.052,526.638,155.052,527.602,155.608z"/>
		<path style="fill:#5CFFF3;" d="M533.038,152.469c0.964,0.557,0.964,1.459,0,2.015c-0.964,0.557-2.527,0.557-3.491,0
			c-0.964-0.557-0.964-1.459,0-2.015C530.511,151.913,532.074,151.913,533.038,152.469z"/>
	</g>
	<g>
		<path style="opacity:0.2;fill:#5CFFF3;" d="M445.974,115.071c0.964,0.556,0.964,1.459,0,2.015c-0.964,0.557-2.527,0.557-3.491,0
			c-0.964-0.556-0.964-1.459,0-2.015C443.447,114.514,445.01,114.514,445.974,115.071z"/>
		<path style="opacity:0.6;fill:#5CFFF3;" d="M451.41,111.932c0.964,0.557,0.964,1.459,0,2.015c-0.964,0.557-2.527,0.556-3.491,0
			c-0.964-0.557-0.964-1.459,0-2.015C448.883,111.376,450.446,111.376,451.41,111.932z"/>
		<path style="fill:#5CFFF3;" d="M456.846,108.794c0.964,0.556,0.964,1.459,0,2.015s-2.527,0.557-3.491,0
			c-0.964-0.557-0.964-1.459,0-2.015C454.32,108.237,455.882,108.237,456.846,108.794z"/>
	</g>
	
		<linearGradient id="SVGID_00000121986711192864824280000018289406179020752774_" gradientUnits="userSpaceOnUse" x1="373.4749" y1="182.6597" x2="373.4749" y2="25.0936">
		<stop  offset="0.0108" style="stop-color:#25BFEC"/>
		<stop  offset="0.0453" style="stop-color:#24B4E1"/>
		<stop  offset="0.2186" style="stop-color:#1F83B0"/>
		<stop  offset="0.3902" style="stop-color:#1B5A86"/>
		<stop  offset="0.5567" style="stop-color:#173A66"/>
		<stop  offset="0.7168" style="stop-color:#152350"/>
		<stop  offset="0.8678" style="stop-color:#131642"/>
		<stop  offset="1" style="stop-color:#13113D"/>
	</linearGradient>
	<path style="opacity:0.4;fill:url(#SVGID_00000121986711192864824280000018289406179020752774_);" d="M417.87,156.243V25.094
		h-88.851v132.104c0,0.04-0.002,0.08,0,0.12v0h0c0.053,0.992,0.682,1.932,1.912,2.643l37.397,21.591
		c2.842,1.641,7.805,1.435,11.086-0.46l35.804-20.671C417.282,159.23,418.187,157.656,417.87,156.243z"/>
</g>
</svg>
