<?xml version="1.0" encoding="utf-8"?>
<!-- Generator: Adobe Illustrator 27.5.0, SVG Export Plug-In . SVG Version: 6.00 Build 0)  -->
<svg version="1.1" xmlns="http://www.w3.org/2000/svg" xmlns:xlink="http://www.w3.org/1999/xlink" x="0px" y="0px"
	 viewBox="0 0 500 500" style="enable-background:new 0 0 500 500;" xml:space="preserve">
<!-- <g id="BACKGROUND">
	<g transform="matrix(1,0,0,1,-0.238,0)">
		<g id="BACKGROUND_1_">
			<rect x="0.238" style="fill-rule:evenodd;clip-rule:evenodd;fill:#75CCC5;" width="500" height="500"/>
		</g>
	</g>
</g> -->
<g id="OBJECTS">
	<g id="OBJECTS_1_">
		<g transform="matrix(0.96164,0,0,0.925308,196.349,225.001)">
			<path style="fill:#006C77;" d="M1.123,53.714c-16.558-31.575-25.006-47.468-41.64-79.068c-35.304-1-52.878-1.465-87.341-1.849
				c10.883,6.844,16.331,10.234,27.229,17.062c-2.696,4.826-4.011,7.201-6.667,12.075c-24.32,43.493-3.903,77.094,41.774,77.835
				c11.714,0.152,24.708,0.63,39.876,1.148c-13.346-1.757-20.836-9.376-14.322-20.487c5.529-9.568,8.298-14.351,13.879-23.814
				C-15.195,43.443-9.755,46.853,1.123,53.714"/>
			<g>
				<defs>
					<path id="SVGID_1_" d="M1.123,53.714c-16.558-31.575-25.006-47.468-41.64-79.068c-35.304-1-52.878-1.465-87.341-1.849
						c10.883,6.844,16.331,10.234,27.229,17.062c-2.696,4.826-4.011,7.201-6.667,12.075c-24.32,43.493-3.903,77.094,41.774,77.835
						c11.714,0.152,24.708,0.63,39.876,1.148c-13.346-1.757-20.836-9.376-14.322-20.487c5.529-9.568,8.298-14.351,13.879-23.814
						C-15.195,43.443-9.755,46.853,1.123,53.714"/>
				</defs>
				<clipPath id="SVGID_00000078004836479700448800000003609325997241925266_">
					<use xlink:href="#SVGID_1_"  style="overflow:visible;"/>
				</clipPath>
				<g style="clip-path:url(#SVGID_00000078004836479700448800000003609325997241925266_);">
					<g transform="matrix(1.03989,0,0,1.08072,-204.181,-243.163)">
						<path style="fill-rule:evenodd;clip-rule:evenodd;fill:#0098A7;" d="M182.988,236.867c0.098,0.198,0.183-0.7-0.034-0.66
							c-2.29,0.422-4.414,1.591-6.721,1.904c-4.54,0.616-9.137,0.765-13.717,0.869c-15.457,0.348-31.06-1.232-46.3,2.166
							c-1.615,0.36-3.168,1.005-4.64,1.761c-1.508,0.774-3.011,1.639-4.244,2.802c-2.878,2.714,0.677,4.87,3.071,5.52
							c4.791,1.301,9.74,1.976,14.521,3.312c2.615,0.731,8.38,4.394,5.937,5.579c-5.815,2.822-9.446,2.092-15.668,1.869
							c-13.35-0.479-28.5-2.713-41.649,1.63c-4.898,1.618-18.459,5.99-16.524,14.622c2.68,11.948,19.994,23.302,31.015,26.29
							c35.048,9.5,67.165,4.492,102.19-1.24c11.117-1.82,24.546-1.285,34.606-7.567c13.128-8.198,32.127-26.41,17.536-42.64
							c-2.849-3.169-5.88-6.262-9.399-8.664c-3.484-2.378-7.371-4.23-11.386-5.525L182.988,236.867"/>
					</g>
				</g>
			</g>
		</g>
		<path style="fill:#0099A7;" d="M89.519,289.016c9.776,11.772,30.058,15.034,50.915,15.882c37.478,1.53,56.283,1.885,93.991,1.901
			c-0.114,32.817-0.192,49.213-0.327,82.031c-27.565-0.058-41.311-0.482-68.667-2.16c-17.406-1.089-32.913-11.143-41.119-26.857
			C110.434,330.963,103.473,316.722,89.519,289.016"/>
		<g>
			<defs>
				<path id="SVGID_00000003066223058294816550000009200478916456086716_" d="M89.519,289.016
					c9.776,11.772,30.058,15.034,50.915,15.882c37.478,1.53,56.283,1.885,93.991,1.901c-0.114,32.817-0.192,49.213-0.327,82.031
					c-27.565-0.058-41.311-0.482-68.667-2.16c-17.406-1.089-32.913-11.143-41.119-26.857
					C110.434,330.963,103.473,316.722,89.519,289.016"/>
			</defs>
			<clipPath id="SVGID_00000174594776595679133600000005934511431507121549_">
				<use xlink:href="#SVGID_00000003066223058294816550000009200478916456086716_"  style="overflow:visible;"/>
			</clipPath>
			
				<g transform="matrix(0.991208,-0.326795,0.39057,1.2795,-211.564,-453.708)" style="clip-path:url(#SVGID_00000174594776595679133600000005934511431507121549_);">
				<path style="fill-rule:evenodd;clip-rule:evenodd;fill:#00B4C5;" d="M46.74,590.768c1.111-0.185,1.679-1.665,2.799-1.801
					c3.861-0.469,8.13,8.369,9.701,9.795c7.578,6.877,18.523,14.143,27.601,18.939c11.434,6.041,20.756,9.393,33.036,13.384
					c11.414,3.709,15.739,3.655,26.451,9.336c16.008,8.488,26.551,23.838,42.452,32.446c5.043,2.731,20.358,8.336,26.647,13.094
					c2.902,2.196,7.171,5.721,7.782,9.835c1.146,7.699-9.562,15.497-16.523,16.323c-21.433,2.54-42.168-5.094-62.194-11.858
					c-18.56-6.269-32.517-11.967-49.783-21.209c-23.265-12.455-41.434-30.411-58.465-49.902L46.74,590.768"/>
			</g>
		</g>
		<g transform="matrix(0.96164,0,0,0.925308,254.497,83.902)">
			<path style="fill:#003C3C;" d="M1.123,115.792c35.636-1.106,53.622-1.765,89.313-2.929
				c16.319-31.322,24.412-46.929,39.808-77.764c-10.91,6.801-16.339,10.222-27.241,17.044c-3.164-4.533-4.726-6.753-7.95-11.271
				C66.548,0,27.403,3.692,6.789,44.46C1.536,54.931-4.568,66.412-11.659,79.831c7.409-11.24,17.534-14.65,24.685-3.937
				c6.192,9.152,9.286,13.731,15.362,22.885C17.488,105.597,12.046,109.003,1.123,115.792"/>
			<g>
				<defs>
					<path id="SVGID_00000020361025821034301900000006992480504827478959_" d="M1.123,115.792
						c35.636-1.106,53.622-1.765,89.313-2.929c16.319-31.322,24.412-46.929,39.808-77.764c-10.91,6.801-16.339,10.222-27.241,17.044
						c-3.164-4.533-4.726-6.753-7.95-11.271C66.548,0,27.403,3.692,6.789,44.46C1.536,54.931-4.568,66.412-11.659,79.831
						c7.409-11.24,17.534-14.65,24.685-3.937c6.192,9.152,9.286,13.731,15.362,22.885C17.488,105.597,12.046,109.003,1.123,115.792"
						/>
				</defs>
				<clipPath id="SVGID_00000069381121696078726530000013868375380195723163_">
					<use xlink:href="#SVGID_00000020361025821034301900000006992480504827478959_"  style="overflow:visible;"/>
				</clipPath>
				<g style="clip-path:url(#SVGID_00000069381121696078726530000013868375380195723163_);">
					<g transform="matrix(0.265278,0,0,0.30577,-13.2921,28.7178)">
						<path style="fill-rule:evenodd;clip-rule:evenodd;fill:#207375;" d="M-28.577,211.28c0,0,212.884-0.663,282.809-146.244
							l74.549,43.864l10.024-65.949c0,0,109.674,8.902,209.976,140.155l-9.848,111.429H-24.706L-28.577,211.28z"/>
						<g>
							<defs>
								<path id="SVGID_00000021815749827788743090000003942770861703496117_" d="M-28.577,211.28
									c0,0,212.884-0.663,282.809-146.244l74.549,43.864l10.024-65.949c0,0,109.674,8.902,209.976,140.155l-9.848,111.429H-24.706
									L-28.577,211.28z"/>
							</defs>
							<clipPath id="SVGID_00000003791841064961093350000005883673507315074474_">
								<use xlink:href="#SVGID_00000021815749827788743090000003942770861703496117_"  style="overflow:visible;"/>
							</clipPath>
							<g style="clip-path:url(#SVGID_00000003791841064961093350000005883673507315074474_);">
								<g transform="matrix(1,0,0,1.03052,0,-8.98933)">
									<path style="fill-rule:evenodd;clip-rule:evenodd;fill:#1C6566;" d="M250.848,61.818c0-0.644,0,2.824,0,3.587
										c0,2.925,0.448,5.612,0.448,8.519c0,8.88-1.227,19.469-2.69,28.247c-4.464,26.781-14.523,53.628-33.179,73.98
										c-42.792,46.682-109.913,77.869-171.725,88.777c-24.765,4.37-61.842,4.757-77.567-18.832
										c-16.568-24.851,12.71-49.956,31.834-60.081c17.587-9.31,38.039-14.655,56.942-20.625
										c35.255-11.133,70.432-21.988,103.573-38.559c20.797-10.398,41.262-24.614,58.736-39.905
										c10.851-9.494,23.535-22.641,36.318-26.902"/>
								</g>
								<g transform="matrix(0.937692,0.358073,-0.415607,1.1558,56.5318,-133.773)">
									<path style="fill-rule:evenodd;clip-rule:evenodd;fill:#1C6566;" d="M324.888,101.494c0.804,0,1.337,4.961,1.673,5.858
										c1.698,4.528,4.585,8.83,7.252,12.83c0.702,1.054,2.155,3.664,3.905,2.789c4.61-2.305,6.008-13.787,6.973-18.13
										c3.407-15.333,5.522-32.747-1.674-47.138c-2.508-5.016-2.394-11.517-7.809-14.225c-2.109-1.054-22.651-5.157-22.846-4.184
										c-2.343,11.716,15.315,37.377,15.315,49.37c0,3.355-0.054,8.528-1.116,11.715c-0.314,0.941-1.129,5.591-0.837,5.299"/>
								</g>
								<g transform="matrix(1,0,0,1.03052,0,-8.98933)">
									<path style="fill-rule:evenodd;clip-rule:evenodd;fill:#1C6566;" d="M-6.025,272.797c3.471,0,10.209,3.768,15.331,4.088
										c22.93,1.433,46.007-2.405,68.82-3.747c38.475-2.264,76.621-3.555,114.473-11.584
										c40.739-8.642,84.41-20.036,117.879-46.334c22.135-17.391,40.183-38.82,59.622-58.258c0.463-0.464,4.812,1.384,5.451,1.703
										c4.601,2.301,10.619,5.37,15.671,6.814c29.301,8.372,53.568,26.417,79.382,41.905
										c20.299,12.179,43.164,19.631,58.258,38.498c5.424,6.78,13.005,11.991,14.309,21.123
										c5.373,37.607-49.591,37.513-73.249,38.498c-7.137,0.298-14.316,0.682-21.463,0.682h-24.871
										c-50.127,0-100.103-2.012-150.245-0.341c-38.187,1.273-75.757,6.614-113.791,9.539
										c-27.365,2.105-54.698,2.733-82.107,3.748c-6.329,0.234-12.781,0.371-19.079,1.022c-6.031,0.624-12.017,1.178-18.057,1.704
										c-16.898,1.469-41.399,6.352-52.807-8.858c-4.221-5.628-7.847-11.901-4.429-18.738"/>
									<g>
										<defs>
											<path id="SVGID_00000058551832922985330140000011962031542726988422_" d="M-6.025,272.797
												c3.471,0,10.209,3.768,15.331,4.088c22.93,1.433,46.007-2.405,68.82-3.747c38.475-2.264,76.621-3.555,114.473-11.584
												c40.739-8.642,84.41-20.036,117.879-46.334c22.135-17.391,40.183-38.82,59.622-58.258
												c0.463-0.464,4.812,1.384,5.451,1.703c4.601,2.301,10.619,5.37,15.671,6.814c29.301,8.372,53.568,26.417,79.382,41.905
												c20.299,12.179,43.164,19.631,58.258,38.498c5.424,6.78,13.005,11.991,14.309,21.123
												c5.373,37.607-49.591,37.513-73.249,38.498c-7.137,0.298-14.316,0.682-21.463,0.682h-24.871
												c-50.127,0-100.103-2.012-150.245-0.341c-38.187,1.273-75.757,6.614-113.791,9.539
												c-27.365,2.105-54.698,2.733-82.107,3.748c-6.329,0.234-12.781,0.371-19.079,1.022
												c-6.031,0.624-12.017,1.178-18.057,1.704c-16.898,1.469-41.399,6.352-52.807-8.858
												c-4.221-5.628-7.847-11.901-4.429-18.738"/>
										</defs>
										<clipPath id="SVGID_00000105418983021745708580000010053471109007444371_">
											<use xlink:href="#SVGID_00000058551832922985330140000011962031542726988422_"  style="overflow:visible;"/>
										</clipPath>
										<g style="clip-path:url(#SVGID_00000105418983021745708580000010053471109007444371_);">
											<path style="fill-rule:evenodd;clip-rule:evenodd;fill:#5AA89E;" d="M364.969,149.308
												c-1.342-0.821,2.527,4.56,3.093,5.193c2.635,2.943,4.978,6.189,7.547,9.239c3.929,4.666,8.224,9.102,11.267,14.487
												c3.147,5.567,5.152,11.867,9.705,16.5c8.058,8.2,17.276,17.549,27.903,22.357c9.062,4.099,18.611,6.234,27.671,10.333
												c13.311,6.022,22.497,18.718,34.774,26.231c11.424,6.992,25.25,6.663,37.935,7.044c2.342,0.07,13.645,0.01,13.987-3.982
												c0.303-3.532-5.333-9.935-6.984-12.855c-7.216-12.766-13.706-24.043-25.588-33.152
												c-31.986-24.521-65.551-45.689-105.35-54.9c-4.678-1.083-9.047-3.21-13.823-3.839c-3.73-0.491-7.571,0.258-11.195-0.581
												c-5.266-1.218-8.832-3.197-14.372-1.864"/>
										</g>
									</g>
								</g>
								<g transform="matrix(1,0,0,1.03052,0,-8.98933)">
									<path style="fill-rule:evenodd;clip-rule:evenodd;fill:#5AA89E;" d="M254.445,69.294c-0.235-0.265,2.349,6.456,3.019,7.793
										c2.52,5.019,5.55,10.644,9.306,14.876c8.987,10.127,17.298,19.849,27.718,28.49c4.174,3.461,8.547,7.442,13.773,9.208
										c4.95,1.672,14.369,8.404,18.362,1.482c6.551-11.357,0.188-48.129-8.623-56.735c-4.88-4.767-13.137,12.078-18.671,8.143
										c-3.817-2.715-7.94-5.027-11.944-7.422c-5.72-3.422-12.978-8.711-19.655-10.074c-5.498-1.123-11.193,4.2-16.006,2.271"/>
								</g>
								<g transform="matrix(1,0,0,1.03052,0,-8.98933)">
									<path style="fill-rule:evenodd;clip-rule:evenodd;fill:#5AA89E;" d="M337.102,44.796c-2.133,2.59,6.615,8.842,9.066,10.513
										c12.41,8.458,26.87,12.908,39.157,21.724c7.348,5.272,14.052,11.43,21.365,16.764c8.213,5.991,16.915,11.034,25.441,16.521
										c9.249,5.952,18.533,12.083,28.994,15.57c1.471,0.49,2.81,1.374,4.281,1.864c6.176,2.059,22.18,4.886,25.791-3.407
										c1.024-2.352-1.409-6.512-2.485-8.416c-3.939-6.965-11.186-13.552-16.618-19.501
										c-15.72-17.218-35.275-31.321-55.348-43.089c-9.643-5.654-19.458-11.192-30.595-13.289
										c-11.421-2.15-25.876-7.181-37.498-4.572c-4.565,1.024-8.304,1.004-11.386,4.746c-0.884,1.073-1.493,3.255-1.068,4.659
										c0.101,0.335,0.634,2.257,1.078,1.718"/>
								</g>
								<g transform="matrix(1,0,0,1.03052,0,-8.98933)">
									<path style="fill:#1E6566;" d="M365.668,88.095c4.531,0.092,8.567,4.914,12.651,7.97
										c10.762,8.31,20.106,18.208,30.625,27.158c29.166,24.818,53.661,54.818,76.285,85.892l0.438,0.602
										c5.286,7.408,10.466,14.934,15.64,22.462l0.313,1.412c0,0-0.679,1.158-0.759,1.214l-1.383,0.293l-1.218-0.764
										c-28.037-38.944-57.207-78.16-94.941-109.9c-9.521-8.01-17.955-17.272-27.571-25.086c-3.162-2.57-5.945-5.936-9.622-7.436
										c-1.563-0.638-0.664-0.173-0.664-0.173l-1.334-0.374l-0.697-1.201l0.363-1.325
										C363.794,88.839,364.859,88.079,365.668,88.095z M464.723,158.383c1.908,0.168,3.559,2.068,3.559,2.068
										c1.268,0.568,1.155,0.893,1.486,1.434c4.633,7.73,10.439,13.181,15.597,20.255c3.481,4.774,6.763,9.693,9.851,14.733
										c0,0,3.947,5.79,6.933,10.522c2.93,4.731,5.798,9.475,8.958,14.211l0.297,1.413c0,0-0.678,1.149-0.759,1.205
										c0,0-1.462-0.049-1.351,0.459c0,0,0.208,1.827-1.14,2.468c-2.13,1.012-4.542-2.261-6.193-4.771l-1.482-2.39l-0.505-0.816
										l-0.553-0.14c-0.996-1.6-0.929-2.258-0.929-2.258c-8.099-13.126-15.869-26.311-24.27-39.35
										c-0.798-1.211-1.081-1.542-1.653-2.283c-2.567-3.305-5.357-6.406-6.629-10.383l-1.312-1.185
										c-1.198-1.1-2.359-2.24-1.963-3.808l1.662-1.366C464.601,158.367,464.621,158.383,464.723,158.383z M480.864,150.358
										c3.388,0.204,6.008,3.944,7.778,7.611c2.128,2.823,4.735,7.717,0.36,8.957c-4.603,1.304-9.772-6.519-10.895-12.088
										C477.736,152.996,478.132,150.28,480.864,150.358z"/>
								</g>
								<g transform="matrix(1,0,0,1.03052,0,-8.98933)">
									<path style="fill:#1E6566;" d="M272.42,139.971l1.232,0.519l0.517,1.234c-0.009,24.644-3.301,49.139-13.454,71.919
										c-10.2,22.887-27.946,41.773-50.449,53.891c-14.485,7.801-30.266,13.45-46.225,17.333
										c-6.428,1.565-12.954,2.1-19.647,1.711l-2.996-0.523c-2.388-1.051-2.124-1.288-2.124-1.288l0.319-2.108
										c1.009-0.892,0.498-0.582,1.67-0.54l1.139-0.294c0.364-0.001,0.728-0.006,1.092-0.011c1.732-0.03,1.929,0.015,2.723,0.04
										c7.752,0.228,15.4-1.553,22.766-3.725c21.704-6.401,43.489-14.733,61.256-30.124c22.165-19.2,34.436-48.527,38.452-77.146
										c1.353-9.644,1.938-19.385,1.956-29.129l0.52-1.243C271.167,140.487,272.284,139.971,272.42,139.971z M141.238,285.712
										 M368.708,171.982l0.615,1.215c0.358,4.678-4.158,8.09-6.76,12.265c-12.45,19.98-29.734,36.679-49.877,50.128
										c-12.041,8.039-24.874,14.743-37.983,20.79c-0.268,0.124-0.535,0.249-0.802,0.375c-9.03,4.291-17.661,9.632-27.067,13.118
										c-2.346,0.869-4.801,1.562-7.27,2.137l-1.513-0.232c0,0-0.889-1.106-0.915-1.204l0.225-1.475l1.203-0.933
										c13.698-3.883,25.834-12.13,38.579-18.151c29.419-13.979,57.876-32.68,75.298-56.784c3.445-4.766,6.5-9.842,10.073-14.409
										c1.235-1.592,2.612-3.193,3.189-5.063c0.17-0.547,0.051-0.319,0.051-0.319l0.448-1.286l1.225-0.611
										C367.854,171.689,368.281,171.836,368.708,171.982z M336.944,244.319l0.013,0.015l0.366,1.326l-0.659,1.244
										c-9.61,8.133-17.941,18.558-30.263,22.993c-2.263,0.814-4.699,1.284-7.141,1.429l-1.306-0.433l-0.634-1.201l0.415-1.272
										c0.95-0.519,1.432-0.675,2.107-0.784c8.919-1.511,16.333-7.982,23.025-13.86c1.948-1.722,3.892-3.448,5.843-5.166
										c0,0,2.769-2.383,5.655-4.566l1.366-0.375C336.135,243.885,336.54,244.102,336.944,244.319z M354.493,252.927l0.661,1.192
										l-0.387,1.27c0,0-1.756,0.898-1.033,0.667c0.004-0.005-3.673,4.103-6.556,7.592l-1.336,0.704l-1.453-0.452l-0.696-1.332
										l0.439-1.435c2.409-2.887,4.457-6.418,7.711-8.17C352.788,252.455,353.559,252.642,354.493,252.927z M301.722,183.625
										l1.376,0.607l0.647,1.443c0.1,1.692,0.098,4.169,0.098,4.169c-1.073,13.495-7.191,26.493-14.891,38.11
										c-5.948,8.973-12.867,17.851-21.489,23.661c-1.801,1.213-3.978,2.246-6.234,2.204l-1.27-0.533l-0.542-1.243l0.51-1.224
										c0,0,3.37-1.233,5.637-3.003c16.983-13.418,29.201-33.599,32.912-53.582c0.361-1.948,0.726-4.809,0.726-4.809
										c0.044-0.246,0.085-0.493,0.125-0.74c0.187-1.207,0.34-3.022,0.34-3.022l0.657-1.439
										C300.324,184.224,301.58,183.624,301.722,183.625z M315.755,187.524c3.369,0.366,3.133,6.37-0.812,8.901
										c-2.314,1.485-5.57-1.372-3.219-5.83C312.699,188.745,314.039,187.481,315.755,187.524z"/>
								</g>
							</g>
						</g>
					</g>
				</g>
			</g>
		</g> 
		<g transform="matrix(0.96164,0,0,0.925308,289.285,202.878)">
			<path style="fill:#008A77;" d="M1.123-122.481c-15.827,2.235-28.405,20.177-39.371,39.81
				C-58.003-47.324-67.911-29.385-87.626,5.958c-29.384-17.46-44.075-26.151-73.46-42.222
				c14.373-25.555,21.569-38.589,35.961-64.804c9.173-16.588,25.279-27.371,43.559-27.253
				C-48.475-127.026-31.909-125.81,1.123-122.481"/>
			<g>
				<defs>
					<path id="SVGID_00000031916754357168617510000006186947812547986367_" d="M1.123-122.481
						c-15.827,2.235-28.405,20.177-39.371,39.81C-58.003-47.324-67.911-29.385-87.626,5.958
						c-29.384-17.46-44.075-26.151-73.46-42.222c14.373-25.555,21.569-38.589,35.961-64.804
						c9.173-16.588,25.279-27.371,43.559-27.253C-48.475-127.026-31.909-125.81,1.123-122.481"/>
				</defs>
				<clipPath id="SVGID_00000017508364618968896090000012708846707689301168_">
					<use xlink:href="#SVGID_00000031916754357168617510000006186947812547986367_"  style="overflow:visible;"/>
				</clipPath>
				<g style="clip-path:url(#SVGID_00000017508364618968896090000012708846707689301168_);">
					<g transform="matrix(1.03989,0,0,1.08072,-300.824,-219.254)">
						<path style="fill-rule:evenodd;clip-rule:evenodd;fill:#00AE87;" d="M99.565,155.232
							c17.373-15.901,48.846-22.724,71.923-18.897c13.709,2.273,26.629,8.841,40.803,7.967
							c21.869-1.348,37.886-17.962,57.466-25.609c12.682-4.954,33.008-9.444,40.866,5.756
							c13.007,25.161-16.484,55.641-32.256,71.278c-17.878,17.726-38.609,33.77-63.72,39.708
							c-38.214,9.036-95.43-1.4-128.428-20.624L99.565,155.232z"/>
					</g>
				</g>
			</g>
		</g>
		<g transform="matrix(0.96164,0,0,0.925308,305.841,415.86)">
			<path style="fill:#003C3C;" d="M1.123-152.261c-18.061,30.739-27.091,46.309-45.132,77.127C-26.206-44.63-17.316-29.464,0.564,0
				c0.062-12.857,0.062-19.273,0.101-32.133c5.522-0.261,8.233-0.399,13.775-0.719c49.776-2.33,67.519-37.417,44.014-76.591
				c-6.059-10.025-12.518-21.31-20.092-34.463c5.56,12.26,3.049,22.645-9.828,22.985c-11.044,0.359-16.568,0.537-27.551,0.798
				C1.024-132.98,1.044-139.401,1.123-152.261"/>
			<g>
				<defs>
					<path id="SVGID_00000160898211050101369540000011536139731231160216_" d="M1.123-152.261
						c-18.061,30.739-27.091,46.309-45.132,77.127C-26.206-44.63-17.316-29.464,0.564,0c0.062-12.857,0.062-19.273,0.101-32.133
						c5.522-0.261,8.233-0.399,13.775-0.719c49.776-2.33,67.519-37.417,44.014-76.591c-6.059-10.025-12.518-21.31-20.092-34.463
						c5.56,12.26,3.049,22.645-9.828,22.985c-11.044,0.359-16.568,0.537-27.551,0.798C1.024-132.98,1.044-139.401,1.123-152.261"/>
				</defs>
				<clipPath id="SVGID_00000128453239418973025200000004576286705232927885_">
					<use xlink:href="#SVGID_00000160898211050101369540000011536139731231160216_"  style="overflow:visible;"/>
				</clipPath>
				<g style="clip-path:url(#SVGID_00000128453239418973025200000004576286705232927885_);">
					<g transform="matrix(0.928158,0.122851,-0.117828,0.961485,-244.467,-438.136)">
						<path style="fill-rule:evenodd;clip-rule:evenodd;fill:#005E5E;" d="M374.278,282.895c0.45,0.053-0.771,0.498-1.065,0.842
							c-0.963,1.131-1.658,2.483-2.684,3.558c-2.674,2.804-5.447,5.524-8.385,8.05c-8.402,7.223-16.356,13.331-26.387,18.187
							c-7.974,3.861-16.248,7.079-24.486,10.338c-6.003,2.375-12.192,4.256-18.223,6.559c-18.906,7.218-38.222,13.017-53.884,26.423
							c-7.82,6.692-11.507,17.965-5.787,27.224c9.403,15.218,27.138,24.6,44.066,28.813c33.387,8.309,65.071,7.958,93.828-12.119
							c10.948-7.644,22.859-15.468,28.235-28.306c4.775-11.405,9.62-24.916,6.73-37.643c-1.96-8.628-5.095-7.022-8.211-15.188
							c-1.721-4.51-0.501-9.382,0.033-13.887L374.278,282.895"/>
					</g>
					<g transform="matrix(1.02714,-0.168691,0.162318,1.06747,-375.336,-400.842)">
						<path style="fill-rule:evenodd;clip-rule:evenodd;fill:#0099A7;" d="M230.231,333.836c1.254-0.096,2.331-1.285,3.583-1.178
							c10.29,0.879,23.483,3.38,32.999,7.55c8.975,3.934,15.28,11.557,24.888,14.524c6.567,2.029,19.988,1.229,25.859,6.759
							c6.165,5.807-9.346,6.232-9.83,6.403c-1.49,0.526-3.57,3.369-1.607,4.987c2.614,2.155,7.93,2.274,10.901,3.096
							c7.629,2.111,35.9,6.768,36.679,21.095c0.075,1.39-1.039,2.593-1.379,3.944c-0.504,2.004-0.742,7.213-2.406,8.929
							c-4.034,4.159-12.974,8.805-18.043,11.294c-11.249,5.522-15.681,8.136-28.36,9.354c-5.765,0.554-16.478-1.455-22.138-2.019
							c-17.63-1.758-29.153-1.462-43.949-11.108L230.231,333.836"/>
					</g>
				</g>
			</g>
		</g>
		<g transform="matrix(0.96164,0,0,0.925308,375.859,186.056)">
			<path style="fill:#008A77;" d="M1.123,181.268c5.701-15.589-3.149-34.369-14.053-52.99c-19.636-33.468-29.484-50.814-49-85.858
				C-32.308,24.817-17.455,16.107,12.127,0c14.353,25.157,21.55,37.516,35.962,61.46c9.19,15.151,9.409,32.888-0.379,48.52
				C29.091,137.687,19.762,152.1,1.123,181.268"/>
			<g>
				<defs>
					<path id="SVGID_00000134948104011546304860000007785261480025928585_" d="M1.123,181.268
						c5.701-15.589-3.149-34.369-14.053-52.99c-19.636-33.468-29.484-50.814-49-85.858C-32.308,24.817-17.455,16.107,12.127,0
						c14.353,25.157,21.55,37.516,35.962,61.46c9.19,15.151,9.409,32.888-0.379,48.52C29.091,137.687,19.762,152.1,1.123,181.268"/>
				</defs>
				<clipPath id="SVGID_00000147939476484281639710000010172328075683038601_">
					<use xlink:href="#SVGID_00000134948104011546304860000007785261480025928585_"  style="overflow:visible;"/>
				</clipPath>
				<g style="clip-path:url(#SVGID_00000147939476484281639710000010172328075683038601_);">
					<g transform="matrix(0.967195,0.396975,-0.381977,1.00517,-268.749,-339.737)">
						<path style="fill-rule:evenodd;clip-rule:evenodd;fill:#00C29B;" d="M304.919,256.856c-0.833-1.249,4.756-0.085,5.137,0.001
							c3.564,0.795,7.172,0.698,10.817,0.843c10.401,0.415,20.16-1.291,30.375-3.435c24.538-5.151,49.177-10.277,74.178-8.327
							c6.824,0.532,21.972,5.628,26.45,10.623c2.024,2.259,2.366,5.291,3.181,8.047c5.283,17.875-10.048,30.732-26.221,35.282
							c-12.786,3.597-25.118,8.355-38.536,9.473c-11.68,0.974-23.174-0.365-34.866,0.075c-16.042,0.603-37.085,0.916-50.721-8.707
							L304.919,256.856z"/>
					</g>
					<g transform="matrix(0.992274,0.577663,-0.773563,1.43518,-134.491,-542.094)">
						<path style="fill-rule:evenodd;clip-rule:evenodd;fill:#00AE87;" d="M316.926,310.836c1.787,1.64,4.597-1.549,6.885-2.352
							c7.878-2.765,15.846-5.29,23.613-8.352c23.244-9.164,45.981-22.528,71.183-25.814c6.317-0.823,12.731-0.533,19.101-0.664
							c11.986-0.245,20.615,1.957,21.979,15.39c1.598,15.738-7.22,28.345-19.787,36.98c-25.354,17.421-56.135,32.26-87.621,26.287
							c-19.419-3.684-41.306-19.191-36.181-42.143"/>
					</g>
				</g>
			</g>
		</g>
		<g transform="matrix(-0.277989,0.103067,-0.0988095,-0.266506,750.574,66.9705)">
			<path style="fill:#008A77;" d="M1302.425-25.216c0.66,0.106,0.79,1.015,1.46,1.716l0.09,0.139
				c6.25,13.811,9.13,28.952,9.77,44.14l0.25,0.639l0.13,0.888c-0.01,0.312-0.3,0.719-0.3,0.719c0.01,0.576,0.02,1.151,0.03,1.727
				c0.01,0.278,0.01,0.556,0.02,0.834c5.54,3.167,12.55,3.584,18.98,4.505c1.5,0.216,3,0.433,4.5,0.66
				c10.99,1.667,22.21,3.863,32.12,9.123c1.51,0.8,2.98,1.681,4.44,2.567c0,0,4.2,3.418,2.07,4.688
				c-1.36,0.819-1.73-0.046-3.47-0.42c-9.53-1.995-19.36-2.313-28.93-4.23c-10.78-2.16-21.47-6.161-29.71-13.645
				c0,0.341,0,0.682-0.01,1.023c-0.1,6.777-0.57,13.552-1.32,20.283c0,0,1.39,2.693,2.94,4.601
				c7.37,9.061,18.33,14.428,27.11,22.236c6.8,6.081,13.82,12.301,17.7,20.673c0,0,0.19,0.569,0.21,0.66
				c0.01,0.095,0.03,0.19,0.04,0.285c0.02,0.16,0.03,0.32,0.03,0.481c0.01,0.147,0,0.295-0.01,0.442
				c-0.06,0.712-0.34,1.635-1.22,1.695c-0.82,0.055-1.43-0.65-2.04-1.123c-12.38-9.45-26.55-16.898-37.53-28.654
				c-3.5-3.758-6.55-8.049-8.3-12.88c0,0-0.29,1.866-0.59,3.753c-1.11,6.855-2.48,13.668-3.96,20.462
				c6.35,11.703,16.32,20.802,24.66,31.072c4.34,5.345,8.68,10.73,12.68,16.276c2.89,4.007,5.5,8.333,6.32,13.188
				c0.11,0.8-0.19,1.41-0.19,1.41c-0.49,0.79-1.27,1.089-2.57,0.062c-1.43-1.126-2.4-2.738-3.74-4.02
				c-12-11.342-24.88-22.327-33.29-36.562c-2.57-4.361-4.78-9.048-5.5-14.045l-0.01-0.068c-1.72,7.574-3.53,15.146-5.34,22.712
				l-0.84,3.544c0.29,0.867-0.11,0.689,1.1,2.465c0.18,0.268,0.37,0.534,0.56,0.8c0.34,0.482,0.73,1.018,0.73,1.018
				c4.89,7.058,11.34,12.979,16.19,20.094c4.7,6.897,8.44,14.431,11.68,22.066c0.05,0.113,0.09,0.226,0.14,0.34
				c0.55,1.489,1.26,3.559-0.06,4.205c-1.06,0.522-2.16-0.864-2.75-2.013c-0.02-0.027-1.94-2.259-3.46-4.006
				c-10.34-11.845-21.99-23.292-25.41-39.112l-0.05-0.244c-2.14,9.081-4.24,18.205-6.07,27.383l-0.08,0.436
				c0.05,6.013,0.75,12.003,1.22,17.975c0.96,12.271,1.83,24.605,0.54,36.911c-0.23,2.281-0.65,4.539-1.28,6.741l-0.96,1.276
				c-0.29,0.127-0.35,0.677-1.12,0.505c-1.15-0.261-1.14-1.766-1.55-3.037c-6.22-19.068-7.47-39.922-2.74-59.391
				c1.43-5.752,2.95-11.627,5.9-16.813c0.22-0.915,0.43-1.829,0.65-2.743c0.21-0.907,0.51-2.132,0.51-2.132
				c-0.12,0.149-0.23,0.297-0.34,0.444c-8.57,11.112-21.26,18.399-33.85,25.175c-2.72,1.459-5.5,3.004-8.39,3.759
				c-0.48,0.123-1.02,0.084-1.36-0.28c-0.93-1.015-0.12-2.485,0.38-3.557c0.14-0.295,0.29-0.586,0.44-0.874
				c5.79-10.864,18.14-16.857,29.41-23.256c6.09-3.474,12.08-7.347,16.46-12.777l0.66-2.487c-0.1-0.358-0.42-0.624,0.15-1.089
				l0.13-0.055c1.32-5.247,2.64-10.494,3.93-15.753l0.08-0.331c-0.13,0.217-0.27,0.432-0.41,0.647
				c-5.57,8.364-14.02,14.874-22.83,19.312c-6.85,3.453-14.21,5.634-21.4,8.468c-0.51,0.21-0.66,0.386-1.65,0.757
				c-0.79,0.297-2.03,0.025-1.87-1.499c-0.03-1.761,0.33-1.494,0.88-2.404c1.23-1.977,2.86-3.66,4.54-5.278
				c9.71-9.324,20.91-17.071,32.54-23.943c5.04-2.998,10.07-6.273,13.68-11.005l0.06-0.087c1.14-5.121,2.21-10.251,3.16-15.399
				l0.11-0.596l0.1-0.537c-6.93,10.202-19.36,15.661-31.24,21.108c-2.52,1.157-5.05,2.311-7.59,3.42
				c-1.27,0.554-2.54,1.097-3.83,1.623c-1.38,0.567-2.66,1.28-4.04,1.94c-0.88,0.426-2.28,0.141-2.44-1.317l-0.03-0.945
				c0.08-0.496,0.18-0.606,0.27-0.835c2.7-6.993,10.2-11.428,16.41-15.314c8.72-5.461,18.1-9.8,26.47-15.753
				c3.1-2.208,6.11-4.651,8.19-7.833l0.02-0.032c0.88-6.739,1.48-13.511,1.74-20.289c0,0-0.95,1.785-1.89,3.145
				c-4.4,6.409-10.94,11.158-17.45,15.286c-8.18,5.181-16.73,9.73-24.97,14.745c-0.85,0.517-2,1.279-2,1.279
				c-0.57,0.287-1.5,0.126-1.62-0.641c-0.14-0.822,0.69-1.853,0.64-1.887c10.09-12.95,22.38-23.875,35.96-33.026
				c3.89-2.615,7.97-5.022,11.12-8.457l0.25-0.283c-0.43-15.166-3.32-30.453-9.32-44.541l-0.18-0.775
				c-0.09-0.904-0.19-0.388-0.09-1.608C1301.805-24.879,1301.735-25.224,1302.425-25.216z"/>
		</g>
		<g transform="matrix(0.113786,0.103835,-0.110996,0.119831,295.165,14.9695)">
			<path style="fill:#008A77;" d="M1314.122,306.953c-0.6-0.142-1.24-0.381-1.84-0.779c-2.19-1.479-4.35-3.01-6.45-4.615
				l-0.25-0.194c-10.02-7.997-17.82-18.56-21.61-31.145c-3.58-11.927-4.19-24.628-4.67-36.564c-0.07-1.625-0.19-3.541,2.76-3.526
				c2.88,0.065,5.55,1.738,8.1,3.336c0,0,2.21,1.565,3.68,2.733c9.89,7.857,18.37,17.938,22.56,30.517
				c4.6,13.797,4.18,28.682,4.05,43.197l-0.14,1.145l-0.13,0.933c0.66,2.447,1.27,4.913,1.83,7.393
				c3.43-19.411,11.88-38.332,26.56-51.516c4.04-3.629,8.64-6.703,14.05-8.032c0.17-0.042,0.34-0.082,0.51-0.118
				c0.13-0.026,0.25-0.05,0.38-0.071c1.06-0.177,2.29-0.184,2.78,1.587c1.29,4.712-0.11,9.953-1.21,15.073c0,0-0.86,3.81-1.46,6.397
				c-3.65,15.395-11.89,30.124-24.89,39.121c-4.51,3.122-9.52,5.465-14.8,6.996c2.36,13.01,3.74,26.256,5.32,39.154
				c6.3-19.599,20.76-36.79,38.61-46.787c4.68-2.621,9.58-4.645,15.22-5.088c0.1-0.008,0.21-0.001,0.31-0.001
				c0.31,0.004,0.62,0.01,0.93,0.023c0.19,0.008,0.39,0.019,0.58,0.033c0.14,0.01,0.28,0.022,0.42,0.037
				c1.09,0.117,2.37,0.277,2.38,2.228c-0.03,5.801-2.37,11.384-4.18,17.092c-4.06,12.707-11.06,24.527-21.59,32.763
				c-8.19,6.408-18.3,10.255-28.71,10.546c-0.85,0.023-1.7,0.003-2.56-0.043c0.15,1.061,0.3,2.118,0.46,3.172
				c2.4,16.018,5.87,31.868,11,47.089c0.68-2.732,1.32-3.733,2.03-5.412c6.98-16.637,19.26-31.054,34.67-40.381
				c6.51-3.94,13.75-7,21.38-7.109c0.09,0,0.09,0.003,0.18,0.007c2.12,0.125,4.66,1.001,4.66,1.001c1.98,1.445,1.13,0.433,0.5,2.783
				c-5.2,18.785-16.66,36.004-32.49,47.744c-7.51,5.567-16.84,8.814-26.05,8.331c-0.83-0.044-1.66-0.127-2.49-0.246
				c4.62,12.316,10.41,24.164,17.71,35.29c8.6,13.13,19.03,24.937,31.27,34.781c2.64,2.247,5.38,4.38,8.18,6.422l0.89,2.172
				c-0.46,0.095-0.47,0.038-0.93-0.01l-1.25,0.133c-3.03-1.892-5.98-3.888-8.87-5.975l-0.11-0.078
				c-18.03-13.843-32.74-32.354-42.75-52.105c-0.21-0.421-0.43-0.843-0.64-1.265c-17.68,16.825-47.47,19.296-69.53,5.957
				c-4.51-2.726-8.98-5.678-12.77-9.118c-1.81-1.646,0.18-4.565,2.97-7.071c5.77-5.191,14.08-7.249,21.99-8.921
				c9.97-2.105,20.42-2.798,30,0.835c8.63,3.277,16,9.004,24.59,12.465c-6.39-14.286-10.72-29.35-14-44.715
				c-4.81,4.406-10.81,7.415-17.28,8.684c-22.99,4.511-47.73-10.048-59.43-23.811c-0.45-0.527-6.41-6.762-1.71-9.118
				c4.09-2.048,9.21-1.699,13.78-1.684c16.21,0.11,33.2,0.393,46.78,7.247c6.39,3.222,11.91,7.973,16.76,13.33
				c-3.54-17.923-5.8-36.178-8.35-54.023c-1.06,0.899-2.34,1.454-3.6,2.116c-20.49,10.837-49.46-0.798-60.13-21.17
				c-2.31-4.411-5.21-11.445,1.31-10.888c8.73,0.747,17.78,2.943,26.71,4.863c9.18,1.994,18.18,4.955,25.99,10.418
				c3.14,2.195,5.96,4.747,8.67,7.417c-0.05-0.343-0.1-0.686-0.16-1.029C1319.082,326.783,1316.972,316.67,1314.122,306.953z"/>
		</g>
		<g transform="matrix(-0.201853,0.0125782,-0.0115437,-0.202147,367.546,192.444)">
			<path style="fill:#006C77;" d="M1300.51-24.228c0.66,0.106,0.79,1.015,1.46,1.716l0.09,0.139c6.25,13.811,9.13,28.952,9.77,44.14
				l0.25,0.639l0.13,0.888c-0.01,0.312-0.3,0.719-0.3,0.719c0.01,0.576,0.02,1.151,0.03,1.727c0.01,0.278,0.01,0.556,0.02,0.834
				c5.54,3.167,12.55,3.584,18.98,4.505c1.5,0.216,3,0.433,4.5,0.66c10.99,1.667,22.21,3.863,32.12,9.123
				c1.51,0.8,2.98,1.681,4.44,2.567c0,0,4.2,3.418,2.07,4.688c-1.36,0.819-1.73-0.046-3.47-0.42c-9.53-1.995-19.36-2.313-28.93-4.23
				c-10.78-2.16-21.47-6.161-29.71-13.645c0,0.341,0,0.682-0.01,1.023c-0.1,6.777-0.57,13.552-1.32,20.283
				c0,0,1.39,2.693,2.94,4.601c7.37,9.061,18.33,14.428,27.11,22.236c6.8,6.081,13.82,12.301,17.7,20.673c0,0,0.19,0.569,0.21,0.66
				c0.01,0.095,0.03,0.19,0.04,0.285c0.02,0.16,0.03,0.32,0.03,0.481c0.01,0.147,0,0.295-0.01,0.442
				c-0.06,0.712-0.34,1.635-1.22,1.695c-0.82,0.055-1.43-0.65-2.04-1.123c-12.38-9.45-26.55-16.898-37.53-28.654
				c-3.5-3.758-6.55-8.049-8.3-12.88c0,0-0.29,1.866-0.59,3.753c-1.11,6.855-2.48,13.668-3.96,20.462
				c6.35,11.703,16.32,20.802,24.66,31.072c4.34,5.345,8.68,10.73,12.68,16.276c2.89,4.007,5.5,8.333,6.32,13.188
				c0.11,0.8-0.19,1.41-0.19,1.41c-0.49,0.79-1.27,1.089-2.57,0.062c-1.43-1.126-2.4-2.738-3.74-4.02
				c-12-11.342-24.88-22.327-33.29-36.562c-2.57-4.361-4.78-9.048-5.5-14.045l-0.01-0.068c-1.72,7.574-3.53,15.146-5.34,22.712
				l-0.84,3.544c0.29,0.867-0.11,0.689,1.1,2.465c0.18,0.268,0.37,0.534,0.56,0.8c0.34,0.482,0.73,1.018,0.73,1.018
				c4.89,7.058,11.34,12.979,16.19,20.094c4.7,6.897,8.44,14.431,11.68,22.066c0.05,0.113,0.09,0.226,0.14,0.34
				c0.55,1.489,1.26,3.559-0.06,4.205c-1.06,0.522-2.16-0.864-2.75-2.013c-0.02-0.027-1.94-2.259-3.46-4.006
				c-10.34-11.845-21.99-23.292-25.41-39.112l-0.05-0.244c-2.14,9.081-4.24,18.205-6.07,27.383l-0.08,0.436
				c0.05,6.013,0.75,12.003,1.22,17.975c0.96,12.271,1.83,24.605,0.54,36.911c-0.23,2.281-0.65,4.539-1.28,6.741l-0.96,1.276
				c-0.29,0.127-0.35,0.677-1.12,0.505c-1.15-0.261-1.14-1.766-1.55-3.037c-6.22-19.068-7.47-39.922-2.74-59.391
				c1.43-5.752,2.95-11.627,5.9-16.813c0.22-0.915,0.43-1.829,0.65-2.743c0.21-0.907,0.51-2.132,0.51-2.132
				c-0.12,0.149-0.23,0.297-0.34,0.444c-8.57,11.112-21.26,18.399-33.85,25.175c-2.72,1.459-5.5,3.004-8.39,3.759
				c-0.48,0.123-1.02,0.084-1.36-0.28c-0.93-1.015-0.12-2.485,0.38-3.557c0.14-0.295,0.29-0.586,0.44-0.874
				c5.79-10.864,18.14-16.857,29.41-23.256c6.09-3.474,12.08-7.347,16.46-12.777l0.66-2.487c-0.1-0.358-0.42-0.624,0.15-1.089
				l0.13-0.055c1.32-5.247,2.64-10.494,3.93-15.753l0.08-0.331c-0.13,0.217-0.27,0.432-0.41,0.647
				c-5.57,8.364-14.02,14.874-22.83,19.312c-6.85,3.453-14.21,5.634-21.4,8.468c-0.51,0.21-0.66,0.386-1.65,0.757
				c-0.79,0.297-2.03,0.025-1.87-1.499c-0.03-1.761,0.33-1.494,0.88-2.404c1.23-1.977,2.86-3.66,4.54-5.278
				c9.71-9.324,20.91-17.071,32.54-23.943c5.04-2.998,10.07-6.273,13.68-11.005l0.06-0.087c1.14-5.121,2.21-10.251,3.16-15.399
				l0.11-0.596l0.1-0.537c-6.93,10.202-19.36,15.661-31.24,21.108c-2.52,1.157-5.05,2.311-7.59,3.42
				c-1.27,0.554-2.54,1.097-3.83,1.623c-1.38,0.567-2.66,1.28-4.04,1.94c-0.88,0.426-2.28,0.141-2.44-1.317l-0.03-0.945
				c0.08-0.496,0.18-0.606,0.27-0.835c2.7-6.993,10.2-11.428,16.41-15.314c8.72-5.461,18.1-9.8,26.47-15.753
				c3.1-2.208,6.11-4.651,8.19-7.833l0.02-0.032c0.88-6.739,1.48-13.511,1.74-20.289c0,0-0.95,1.785-1.89,3.145
				c-4.4,6.409-10.94,11.158-17.45,15.286c-8.18,5.181-16.73,9.73-24.97,14.745c-0.85,0.517-2,1.279-2,1.279
				c-0.57,0.287-1.5,0.126-1.62-0.641c-0.14-0.822,0.69-1.853,0.64-1.887c10.09-12.95,22.38-23.875,35.96-33.026
				c3.89-2.615,7.97-5.022,11.12-8.457l0.25-0.283c-0.43-15.166-3.32-30.453-9.32-44.541l-0.18-0.775
				c-0.09-0.904-0.19-0.388-0.09-1.608C1299.89-23.891,1299.82-24.236,1300.51-24.228z"/>
		</g>
		<g transform="matrix(0.0536221,0.0943788,-0.0962217,0.0586485,89.5487,45.6142)">
			<path style="fill:#006C77;" d="M1314.157,303.071c-0.6-0.142-1.24-0.381-1.84-0.779c-2.19-1.479-4.35-3.01-6.45-4.615
				l-0.25-0.194c-10.02-7.997-17.82-18.56-21.61-31.145c-3.58-11.927-4.19-24.628-4.67-36.564c-0.07-1.625-0.19-3.541,2.76-3.526
				c2.88,0.065,5.55,1.738,8.1,3.336c0,0,2.21,1.565,3.68,2.733c9.89,7.857,18.37,17.938,22.56,30.517
				c4.6,13.797,4.18,28.682,4.05,43.197l-0.14,1.145l-0.13,0.933c0.66,2.447,1.27,4.913,1.83,7.393
				c3.43-19.411,11.88-38.332,26.56-51.516c4.04-3.629,8.64-6.703,14.05-8.032c0.17-0.042,0.34-0.082,0.51-0.118
				c0.13-0.026,0.25-0.05,0.38-0.071c1.06-0.177,2.29-0.184,2.78,1.587c1.29,4.712-0.11,9.953-1.21,15.073c0,0-0.86,3.81-1.46,6.397
				c-3.65,15.395-11.89,30.124-24.89,39.121c-4.51,3.122-9.52,5.465-14.8,6.996c2.36,13.01,3.74,26.256,5.32,39.154
				c6.3-19.599,20.76-36.79,38.61-46.787c4.68-2.621,9.58-4.645,15.22-5.088c0.1-0.008,0.21-0.001,0.31-0.001
				c0.31,0.004,0.62,0.01,0.93,0.023c0.19,0.008,0.39,0.019,0.58,0.033c0.14,0.01,0.28,0.022,0.42,0.037
				c1.09,0.117,2.37,0.277,2.38,2.228c-0.03,5.801-2.37,11.384-4.18,17.092c-4.06,12.707-11.06,24.527-21.59,32.763
				c-8.19,6.408-18.3,10.255-28.71,10.546c-0.85,0.023-1.7,0.003-2.56-0.043c0.15,1.061,0.3,2.118,0.46,3.172
				c2.4,16.018,5.87,31.868,11,47.089c0.68-2.732,1.32-3.733,2.03-5.412c6.98-16.637,19.26-31.054,34.67-40.381
				c6.51-3.94,13.75-7,21.38-7.109c0.09,0,0.09,0.003,0.18,0.007c2.12,0.125,4.66,1.001,4.66,1.001c1.98,1.445,1.13,0.433,0.5,2.783
				c-5.2,18.785-16.66,36.004-32.49,47.744c-7.51,5.567-16.84,8.814-26.05,8.331c-0.83-0.044-1.66-0.127-2.49-0.246
				c4.62,12.316,10.41,24.164,17.71,35.29c8.6,13.13,19.03,24.937,31.27,34.781c2.64,2.247,5.38,4.38,8.18,6.422l0.89,2.172
				c-0.46,0.095-0.47,0.038-0.93-0.01l-1.25,0.133c-3.03-1.892-5.98-3.888-8.87-5.975l-0.11-0.078
				c-18.03-13.843-32.74-32.354-42.75-52.105c-0.21-0.421-0.43-0.843-0.64-1.265c-17.68,16.825-47.47,19.296-69.53,5.957
				c-4.51-2.726-8.98-5.678-12.77-9.118c-1.81-1.646,0.18-4.565,2.97-7.071c5.77-5.191,14.08-7.249,21.99-8.921
				c9.97-2.105,20.42-2.798,30,0.835c8.63,3.277,16,9.004,24.59,12.465c-6.39-14.286-10.72-29.35-14-44.715
				c-4.81,4.406-10.81,7.415-17.28,8.684c-22.99,4.511-47.73-10.048-59.43-23.811c-0.45-0.527-6.41-6.762-1.71-9.118
				c4.09-2.048,9.21-1.699,13.78-1.684c16.21,0.11,33.2,0.393,46.78,7.247c6.39,3.222,11.91,7.973,16.76,13.33
				c-3.54-17.923-5.8-36.178-8.35-54.023c-1.06,0.899-2.34,1.454-3.6,2.116c-20.49,10.837-49.46-0.798-60.13-21.17
				c-2.31-4.411-5.21-11.445,1.31-10.888c8.73,0.747,17.78,2.943,26.71,4.863c9.18,1.994,18.18,4.955,25.99,10.418
				c3.14,2.195,5.96,4.747,8.67,7.417c-0.05-0.343-0.1-0.686-0.16-1.029C1319.117,322.901,1317.007,312.788,1314.157,303.071z"/>
		</g>
		<g transform="matrix(0.812984,0.21056,-0.23879,0.921982,122.209,-13.3902)">
			<path style="fill-rule:evenodd;clip-rule:evenodd;fill:#0098A7;" d="M202.565,291.47c0,0,2.935-17.804,18.32-16.823
				c8.348,0.532,7.248,10.015-1.187,9.477C214.71,283.806,209.496,283.192,202.565,291.47z"/>
		</g>
		<g transform="matrix(0.828052,-0.449292,0.518803,0.956161,-101.624,105.443)">
			<path style="fill-rule:evenodd;clip-rule:evenodd;fill:#00B3C5;" d="M197.841,291.112c0,0,4.702-16.398,20.173-15.67
				c10.952,0.515,9.881,9.977,1.446,9.439C214.472,284.563,205.205,282.751,197.841,291.112z"/>
		</g>
		<g transform="matrix(0.504956,0.0587858,-0.0655482,0.563043,108.52,95.5428)">
			<g transform="matrix(0.293906,0,0,0.293906,135.94,278.695)">
				<path style="fill:#2E2E2E;" d="M7.177,40.25c0,0,8.699-38.607,40.51-45.833C59.59-7.938,34.544,7.438,54.9,47.438L7.177,40.25z"
					/>
			</g>
			<g transform="matrix(0.293906,0,0,0.293906,107.352,326.281)">
				<path style="fill:#2E2E2E;" d="M7.177-69.309C-0.019-58.949-4.548-35.001-4.008-30.185C-3.364-24.449,9.414,0.237,17.624,0.733
					c8.211,0.497,25.113-14.458,28.594-19.9C49.7-24.609,19.489-63.34,20.549-66.699C20.549-66.699,8.552-71.289,7.177-69.309"/>
			</g>
			<g transform="matrix(0.293906,0,0,0.293906,85.7419,336.159)">
				<path style="fill:#2E2E2E;" d="M7.177-96.823c-3.668-8.622,9.281-75.718,180.543-65.084
					c96.367,7.969,159.619,99.759,174.728,152.037c45.77-3.32,73.049,22.974,73.049,22.974s-83.332-11.75-105.289,61.865
					c-9.62-40.884,16.418-75.574,16.418-75.574s-8.158-30.325-57.853-39.396c-32.607-8.371-151.561-17.225-171.676-27.293
					C96.981-77.362,14.465-79.69,7.177-96.823"/>
			</g>
			<g transform="matrix(0.293906,0,0,0.293906,167.225,306.005)">
				<path style="fill:#FFFFFF;" d="M7.177,51.775c-30.197-5.134-32.708-14.208-25.054-16.707
					c14.628-4.433,49.164,14.895,47.179,3.331C27.317,26.836-6.923-0.822-28.86,5.935C-50.796,12.691-45.557,32.9-62.858,40.47
					c-42.908,18.733-106.407-50.245-139.113-55.254c-26.238-4.018-55.87,15.147-66.571,22.888
					c2.526,14.697,81.259,34.82,102.335,38.706c28.361,5.227,141.357,0.975,201.354,23.017
					C30.674,62.071,22.465,54.374,7.177,51.775"/>
			</g>
			<g transform="matrix(0.293906,0,0,0.293906,123.111,300.283)">
				<path style="fill:#FFFFFF;" d="M7.177-17.201c0,0-19.42,2.432-27.634,0.643c-8.214-1.79-30.226,3.435-30.841,7.096
					C-51.912-5.8-50.272-1.527-33.695,1.254C-17.118,4.036-5.294,0.28,1.375-0.477C13.766-1.884,28.946-21.987,7.177-17.201"/>
			</g>
			<g transform="matrix(0.293906,0,0,0.293906,116.393,323.994)">
				<path style="fill:#2E2E2E;" d="M7.177-65.051C1.328-56,12.688-24.462,16.2-19.881C19.711-15.3,43.398-0.75,50.686-4.563
					c7.289-3.812,14.047-25.345,14.22-31.803c0.173-6.458-45.693-24.039-46.519-27.463L7.177-65.051z"/>
			</g>
			<g transform="matrix(0.102243,-0.275548,-0.275548,-0.102243,110.462,297.131)">
				<path style="fill:#2E2E2E;" d="M-1.629-9.827c-2.845,0-5.151,2.306-5.152,5.151c0,2.845,2.306,5.151,5.152,5.151
					c2.844,0.001,5.15-2.306,5.151-5.15C3.522-7.521,1.215-9.828-1.629-9.827"/>
			</g>
		</g>
		<g transform="matrix(0.668584,0,0,0.668584,138.551,79.5428)">
			<g transform="matrix(1.12296,0,0,1.46345,418.672,300.425)">
				<path style="fill:#F0ECE5;" d="M1.438-49.743c-0.068-0.196-0.137-0.392-0.2-0.58c-0.789,0.173-1.621,0.168-2.44-0.032
					L-2.67,0.612h5.557L1.438-49.743z"/>
			</g>
			<g transform="matrix(1,0,0,1,414.487,216.289)">
				<path style="fill:#347A91;" d="M1.615,4.227c0.317-0.774,0.979-1.298,1.734-1.481C3.311,1.944,3.294,0.948,3.324-0.217
					C1.419,0-0.312,1.221-1.089,3.12c-0.084,0.207-0.15,0.415-0.208,0.625c1.125,0.239,2.081,0.482,2.849,0.699
					C1.573,4.372,1.586,4.298,1.615,4.227"/>
			</g>
			<g transform="matrix(1,0,0,1,418.363,221.862)">
				<path style="fill:#347A91;" d="M1.615-2.346c0.847,0.677,1.194,1.844,0.763,2.897C2.362,0.588,2.339,0.619,2.322,0.655
					C3.048,1.046,3.9,1.537,4.855,2.142c0.083-0.156,0.159-0.318,0.228-0.485C5.985-0.55,5.324-3.004,3.621-4.488
					C2.863-3.625,2.191-2.921,1.615-2.346"/>
			</g>
			<g transform="matrix(1,0,0,1,417.967,223.006)">
				<path style="fill:#347A91;" d="M1.615,3.759C1.249,2.672,0.972,1.725,0.761,0.934C0.349,0.986-0.08,0.946-0.493,0.777
					c-0.49-0.2-0.879-0.539-1.148-0.95c-0.678,0.426-1.519,0.921-2.53,1.459C-3.589,2.24-2.713,3.027-1.6,3.482
					c0.256,0.105,0.515,0.181,0.776,0.245C-0.006,3.927,0.826,3.932,1.615,3.759"/>
			</g>
			<g transform="matrix(1,0,0,1,416.222,174.257)">
				<path style="fill:#F0EBE5;" d="M1.615,44.778c0.494-0.12,1.027-0.097,1.533,0.11c0.228,0.094,0.426,0.225,0.609,0.371
					c0.576-0.575,1.248-1.279,2.005-2.142c3.059-3.481,7.342-9.328,10.799-17.777c4.506-11.013,4.702-25.821,4.702-25.821
					S12.198,8.442,6.12,22.195c-3.531,7.988-4.411,15.076-4.53,19.62C1.559,42.98,1.577,43.976,1.615,44.778"/>
			</g>
			<g transform="matrix(1,0,0,1,417.113,260.585)">
				<path style="fill:#F0EBE5;" d="M1.615-36.645c0.211,0.792,0.487,1.738,0.854,2.825c0.063,0.188,0.131,0.384,0.2,0.58
					c1.535,4.386,4.417,10.731,9.706,17.612c7.252,9.434,19.953,17.05,19.953,17.05s-3.151-12.321-11.983-24.493
					c-4.936-6.806-10.39-11.071-14.24-13.51c-0.955-0.605-1.807-1.096-2.533-1.486C3.197-37.262,2.447-36.749,1.615-36.645"/>
			</g>
			<g transform="matrix(1,0,0,1,414.424,228.975)">
				<path style="fill:#F0EBE5;" d="M1.615-8.242c-0.768-0.217-1.724-0.46-2.849-0.699c-4.522-0.96-11.819-1.847-21.038-0.658
					c-11.8,1.523-24.77,8.67-24.77,8.67s12.234,3.475,27.195,1.964c8.644-0.872,15.204-3.581,19.219-5.717
					c1.011-0.539,1.852-1.034,2.53-1.46C1.508-6.748,1.391-7.513,1.615-8.242"/>
			</g>
			<g transform="matrix(1,0,0,1,419.07,220.39)">
				<path style="fill:#FFFFFF;" d="M1.615,2.128c0.017-0.036,0.04-0.067,0.056-0.104c0.431-1.053,0.084-2.221-0.763-2.897
					C0.725-1.019,0.527-1.151,0.3-1.244c-0.506-0.207-1.039-0.23-1.534-0.11c-0.755,0.182-1.417,0.706-1.734,1.481
					C-2.997,0.198-3.01,0.271-3.031,0.343c-0.224,0.729-0.108,1.494,0.287,2.1c0.268,0.412,0.658,0.75,1.147,0.951
					c0.413,0.169,0.843,0.208,1.255,0.156C0.49,3.446,1.24,2.933,1.615,2.128"/>
			</g>
		</g>
		<g transform="matrix(0.696252,0,0,0.696252,82.2449,85.871)">
			<g transform="matrix(1.12296,0,0,1.46345,418.672,300.425)">
				<path style="fill:#F0ECE5;" d="M1.381-49.743c-0.068-0.196-0.137-0.392-0.2-0.58c-0.789,0.173-1.621,0.168-2.44-0.032
					L-2.727,0.612H2.83L1.381-49.743z"/>
			</g>
			<g transform="matrix(0.327062,0.945003,-0.945003,0.327062,421.776,222.756)">
				<path style="fill:#347A91;" d="M0.507,2.762c0.317-0.774,0.979-1.298,1.734-1.481C2.203,0.479,2.186-0.517,2.216-1.682
					C0.311-1.465-1.42-0.244-2.197,1.655C-2.281,1.862-2.347,2.07-2.405,2.28c1.125,0.239,2.081,0.482,2.849,0.699
					C0.465,2.907,0.478,2.833,0.507,2.762"/>
			</g>
			<g transform="matrix(0.327062,0.945003,-0.945003,0.327062,417.777,228.241)">
				<path style="fill:#347A91;" d="M0.507-3.811C1.354-3.134,1.701-1.967,1.27-0.914C1.254-0.877,1.231-0.846,1.214-0.81
					C1.94-0.419,2.792,0.072,3.747,0.677C3.83,0.521,3.906,0.359,3.975,0.192c0.902-2.207,0.241-4.661-1.462-6.145
					C1.755-5.09,1.083-4.386,0.507-3.811"/>
			</g>
			<g transform="matrix(0.327062,0.945003,-0.945003,0.327062,416.566,228.241)">
				<path style="fill:#347A91;" d="M0.507,2.294C0.141,1.207-0.136,0.26-0.347-0.531c-0.412,0.052-0.841,0.012-1.254-0.157
					c-0.49-0.2-0.879-0.539-1.148-0.95c-0.678,0.426-1.519,0.921-2.53,1.459c0.582,0.954,1.458,1.741,2.571,2.196
					c0.256,0.105,0.515,0.181,0.776,0.245C-1.114,2.462-0.282,2.467,0.507,2.294"/>
			</g>
			<g transform="matrix(0.327062,0.945003,-0.945003,0.327062,462.063,210.648)">
				<path style="fill:#F0EBE5;" d="M0.507,43.313c0.494-0.12,1.027-0.097,1.533,0.11c0.228,0.094,0.426,0.225,0.609,0.371
					c0.576-0.575,1.248-1.279,2.005-2.142c3.059-3.481,7.342-9.328,10.799-17.777c4.506-11.013,4.702-25.821,4.702-25.821
					S11.09,6.977,5.012,20.73c-3.531,7.988-4.411,15.076-4.53,19.62C0.451,41.515,0.469,42.511,0.507,43.313"/>
			</g>
			<g transform="matrix(0.327062,0.945003,-0.945003,0.327062,380.775,239.725)">
				<path style="fill:#F0EBE5;" d="M0.507-38.11c0.211,0.792,0.487,1.738,0.854,2.825c0.063,0.188,0.131,0.384,0.2,0.58
					c1.535,4.386,4.417,10.731,9.706,17.612C18.519-7.659,31.22-0.043,31.22-0.043s-3.151-12.321-11.983-24.493
					c-4.936-6.806-10.39-11.071-14.24-13.51c-0.955-0.605-1.807-1.096-2.533-1.486C2.089-38.727,1.339-38.214,0.507-38.11"/>
			</g>
			<g transform="matrix(0.327062,0.945003,-0.945003,0.327062,409.767,226.845)">
				<path style="fill:#F0EBE5;" d="M0.507-9.707c-0.768-0.217-1.724-0.46-2.849-0.699c-4.522-0.96-11.819-1.847-21.038-0.658
					c-11.8,1.523-24.77,8.67-24.77,8.67s12.234,3.475,27.195,1.964c8.644-0.872,15.204-3.581,19.219-5.717
					c1.011-0.539,1.852-1.034,2.53-1.46C0.4-8.213,0.283-8.978,0.507-9.707"/>
			</g>
			<g transform="matrix(0.327062,0.945003,-0.945003,0.327062,419.4,228.428)">
				<path style="fill:#FFFFFF;" d="M0.507,0.663c0.017-0.036,0.04-0.067,0.056-0.104C0.994-0.494,0.647-1.662-0.2-2.338
					c-0.183-0.146-0.381-0.278-0.608-0.371c-0.506-0.207-1.039-0.23-1.534-0.11c-0.755,0.182-1.417,0.706-1.734,1.481
					c-0.029,0.071-0.042,0.144-0.063,0.216c-0.224,0.729-0.108,1.494,0.287,2.1c0.268,0.412,0.658,0.75,1.147,0.951
					c0.413,0.169,0.843,0.208,1.255,0.156C-0.618,1.981,0.132,1.468,0.507,0.663"/>
			</g>
		</g>
		<g transform="matrix(1,0,0,1,244.479,254.184)">
			<path style="fill:#F4DE9F;" d="M13.748,17.737h10.53c0.998,0,1.891,0.428,2.525,1.102c0.533-1.368,0.834-3.093,0.834-5.272
				c0-8.481,17.219-14.41,17.219-34.329c0-15.898-12.888-28.786-28.786-28.786c-15.897,0-28.786,12.888-28.786,28.786
				c0,20.304,17.221,26.234,17.221,34.329c0,1.928,0.261,3.505,0.723,4.804c0.564-0.397,1.248-0.634,1.99-0.634H13.748z"/>
		</g>
		<path style="fill-rule:evenodd;clip-rule:evenodd;fill:#FFFFFF;" d="M259.081,207.128l0.191,0.004l0.192,0.005l0.192,0.008
			l0.177,0.008l0.18,0.015l0.179,0.026l0.177,0.037l0.175,0.048l0.171,0.058l0.167,0.07l0.162,0.08l0.157,0.09l0.151,0.099
			l0.145,0.109l0.137,0.118l0.13,0.126l0.122,0.134l0.112,0.141l0.104,0.149l0.095,0.154l0.084,0.16l0.074,0.165l0.064,0.169
			l0.053,0.174l0.042,0.175l0.03,0.179l0.02,0.18l0.008,0.18l-0.003,0.181l-0.014,0.181l-0.026,0.179l-0.037,0.177l-0.048,0.174
			l-0.059,0.171l-0.07,0.167l-0.079,0.163l-0.09,0.157l-0.1,0.151l-0.109,0.144l-0.118,0.138l-0.126,0.129l-0.134,0.122
			l-0.141,0.113l-0.148,0.104l-0.155,0.094l-0.16,0.084l-0.165,0.074l-0.169,0.064l-0.173,0.053l-0.176,0.042l-0.178,0.031
			l-0.18,0.019l-0.181,0.009l-0.181-0.004l-0.148-0.007l-0.132-0.005l-0.133-0.004l-0.132-0.002l-0.131-0.001h-0.132l-0.131,0.002
			l-0.13,0.003l-0.131,0.004l-0.13,0.006l-0.129,0.007l-0.13,0.008l-0.129,0.01l-0.128,0.011l-0.129,0.012l-0.128,0.013
			l-0.128,0.015l-0.127,0.016l-0.127,0.017l-0.127,0.019l-0.126,0.02l-0.127,0.021l-0.126,0.022l-0.125,0.023l-0.126,0.025
			l-0.125,0.026l-0.125,0.027l-0.124,0.028l-0.124,0.03l-0.124,0.031l-0.124,0.032l-0.123,0.033l-0.123,0.034l-0.123,0.036
			l-0.122,0.037l-0.123,0.037l-0.121,0.04l-0.122,0.04l-0.121,0.041l-0.121,0.043l-0.121,0.044l-0.12,0.045l-0.12,0.046l-0.12,0.047
			l-0.12,0.048l-0.119,0.05l-0.119,0.05l-0.118,0.052l-0.119,0.053l-0.117,0.054l-0.118,0.055l-0.117,0.056l-0.117,0.058
			l-0.117,0.058l-0.116,0.059l-0.116,0.061l-0.116,0.062l-0.115,0.063l-0.115,0.064l-0.114,0.064l-0.114,0.066l-0.115,0.067
			l-0.113,0.069l-0.113,0.069l-0.113,0.07l-0.112,0.071l-0.112,0.072l-0.111,0.074l-0.112,0.074l-0.111,0.075l-0.11,0.077
			l-0.11,0.077l-0.109,0.078l-0.109,0.08l-0.109,0.08l-0.108,0.082l-0.108,0.082l-0.107,0.083l-0.107,0.084l-0.107,0.085
			l-0.106,0.087l-0.105,0.087l-0.105,0.088l-0.105,0.088l-0.104,0.09l-0.104,0.091l-0.103,0.092l-0.102,0.092l-0.102,0.094
			l-0.102,0.094l-0.101,0.095l-0.101,0.096l-0.1,0.097l-0.099,0.098l-0.099,0.099l-0.099,0.099l-0.097,0.101l-0.098,0.101
			l-0.097,0.102l-0.096,0.102l-0.095,0.104l-0.096,0.104l-0.094,0.105l-0.094,0.106l-0.093,0.107l-0.093,0.107l-0.092,0.109
			l-0.091,0.108l-0.091,0.11l-0.091,0.11l-0.089,0.111l-0.089,0.112l-0.088,0.113l-0.088,0.113l-0.087,0.114l-0.087,0.114
			l-0.085,0.116l-0.085,0.115l-0.085,0.117l-0.084,0.117l-0.083,0.118l-0.082,0.118l-0.082,0.119l-0.081,0.12l-0.08,0.12
			l-0.08,0.121l-0.078,0.121l-0.079,0.122l-0.077,0.122l-0.077,0.123l-0.076,0.124l-0.075,0.124l-0.075,0.125l-0.073,0.125
			l-0.073,0.125l-0.073,0.126l-0.071,0.127l-0.071,0.127l-0.07,0.128l-0.069,0.128l-0.068,0.128l-0.068,0.129l-0.067,0.129
			l-0.066,0.13l-0.065,0.13l-0.065,0.13l-0.063,0.131l-0.063,0.131l-0.062,0.132l-0.062,0.132l-0.06,0.132l-0.06,0.133l-0.058,0.133
			l-0.058,0.133l-0.057,0.134l-0.057,0.134l-0.055,0.134l-0.055,0.134l-0.053,0.135l-0.053,0.135l-0.052,0.135l-0.051,0.136
			l-0.05,0.135l-0.05,0.136l-0.048,0.136l-0.048,0.137l-0.047,0.136l-0.046,0.137l-0.044,0.137l-0.044,0.137l-0.044,0.137
			l-0.042,0.137l-0.041,0.138l-0.041,0.137l-0.039,0.138l-0.039,0.138l-0.038,0.138l-0.036,0.138l-0.036,0.138l-0.035,0.138
			l-0.034,0.138l-0.033,0.138l-0.032,0.138l-0.031,0.139l-0.031,0.138l-0.029,0.138l-0.028,0.138l-0.028,0.138l-0.026,0.138
			l-0.026,0.139l-0.024,0.138l-0.024,0.138l-0.022,0.138l-0.022,0.138l-0.021,0.137l-0.019,0.138l-0.019,0.138l-0.018,0.137
			l-0.016,0.138l-0.016,0.137l-0.015,0.137l-0.014,0.137l-0.013,0.137l-0.012,0.136l-0.01,0.136l-0.01,0.137l-0.009,0.136
			l-0.008,0.135l-0.007,0.136l-0.006,0.135l-0.005,0.135l-0.004,0.135l-0.003,0.134l-0.001,0.135L241.851,233v0.134l0.001,0.133
			l0.002,0.133l0.003,0.133l0.004,0.132l0.005,0.132l0.007,0.132l0.007,0.132l0.008,0.131l0.009,0.13l0.01,0.131l0.012,0.13
			l0.012,0.129l0.013,0.129l0.014,0.129l0.016,0.128l0.016,0.128l0.017,0.128l0.019,0.127l0.019,0.126l0.021,0.127l0.021,0.125
			l0.022,0.125l0.024,0.125l0.024,0.124l0.026,0.124l0.026,0.123l0.028,0.123l0.029,0.122l0.029,0.122l0.031,0.121l0.031,0.121
			l0.033,0.12l0.034,0.12l0.034,0.119l0.036,0.118l0.037,0.118l0.038,0.118l0.038,0.117l0.04,0.116l0.046,0.128l0.055,0.173
			l0.043,0.175l0.033,0.178l0.022,0.18l0.01,0.181l-0.001,0.18l-0.012,0.181l-0.024,0.179l-0.035,0.178l-0.046,0.175l-0.057,0.171
			l-0.068,0.168l-0.078,0.164l-0.088,0.158l-0.098,0.152l-0.107,0.145l-0.116,0.139l-0.125,0.131l-0.133,0.123l-0.14,0.115
			l-0.147,0.105l-0.153,0.096l-0.159,0.086l-0.164,0.077l-0.169,0.065l-0.172,0.055l-0.176,0.044l-0.178,0.033l-0.179,0.021
			l-0.181,0.011L239.869,242l-0.18-0.012l-0.18-0.024l-0.177-0.035l-0.175-0.046l-0.172-0.057l-0.168-0.067l-0.163-0.078
			l-0.158-0.089l-0.152-0.097l-0.146-0.108l-0.139-0.116l-0.131-0.124l-0.123-0.133l-0.114-0.14l-0.106-0.147l-0.096-0.154
			l-0.086-0.159l-0.076-0.164l-0.066-0.168l-0.054-0.155l-0.057-0.167l-0.056-0.169l-0.054-0.168l-0.053-0.169l-0.051-0.169
			l-0.05-0.17l-0.048-0.17l-0.046-0.171l-0.045-0.171l-0.043-0.171l-0.042-0.171l-0.04-0.172l-0.038-0.172l-0.038-0.173
			l-0.035-0.173l-0.034-0.173l-0.033-0.173l-0.031-0.174l-0.03-0.174l-0.028-0.174l-0.026-0.175l-0.026-0.174l-0.024-0.175
			l-0.022-0.175l-0.021-0.175l-0.019-0.176l-0.018-0.175l-0.017-0.176l-0.015-0.176l-0.014-0.176l-0.012-0.176l-0.011-0.177
			l-0.01-0.176l-0.008-0.176l-0.007-0.177l-0.006-0.177l-0.004-0.177l-0.003-0.177l-0.001-0.177v-0.177l0.001-0.177l0.002-0.177
			l0.004-0.177l0.005-0.177l0.007-0.177l0.007-0.178l0.009-0.177l0.011-0.177l0.011-0.177l0.013-0.177l0.014-0.178l0.016-0.177
			l0.016-0.177l0.018-0.177l0.019-0.177l0.021-0.176l0.021-0.178l0.023-0.176l0.024-0.177l0.025-0.176l0.027-0.177l0.027-0.176
			l0.029-0.176l0.03-0.176l0.032-0.176l0.032-0.176l0.034-0.176l0.034-0.175l0.036-0.176l0.037-0.175l0.039-0.175l0.039-0.174
			l0.041-0.175l0.041-0.174l0.043-0.175l0.044-0.174l0.045-0.173l0.047-0.174l0.047-0.173l0.048-0.173l0.05-0.173l0.051-0.172
			l0.051-0.172l0.053-0.172l0.054-0.172l0.055-0.171l0.057-0.172l0.057-0.17l0.058-0.171l0.06-0.17l0.06-0.169l0.062-0.17
			l0.062-0.169l0.064-0.169l0.065-0.168l0.066-0.168l0.066-0.168l0.068-0.167l0.069-0.167l0.07-0.167l0.071-0.166l0.072-0.165
			l0.073-0.165l0.074-0.165l0.075-0.165l0.076-0.164l0.077-0.163l0.079-0.163l0.079-0.163l0.08-0.162l0.081-0.162l0.082-0.161
			l0.083-0.16l0.084-0.16l0.085-0.16l0.086-0.159l0.087-0.159l0.088-0.158l0.089-0.157l0.09-0.157l0.091-0.157l0.092-0.156
			l0.093-0.155l0.094-0.154l0.094-0.154l0.096-0.154l0.097-0.153l0.097-0.152l0.099-0.152l0.099-0.151l0.101-0.15l0.101-0.15
			l0.103-0.149l0.103-0.148l0.104-0.148l0.105-0.147l0.106-0.146l0.107-0.146l0.108-0.145l0.109-0.144l0.109-0.143l0.111-0.143
			l0.112-0.142l0.112-0.141l0.113-0.141l0.115-0.14l0.115-0.138l0.116-0.139l0.117-0.137l0.117-0.137l0.119-0.135l0.12-0.135
			l0.12-0.134l0.122-0.134l0.122-0.132l0.123-0.132l0.124-0.13l0.125-0.13l0.126-0.129l0.127-0.128l0.127-0.127l0.128-0.126
			l0.13-0.125l0.13-0.125l0.131-0.123l0.132-0.122l0.132-0.122l0.134-0.121l0.134-0.119l0.136-0.118l0.136-0.118l0.137-0.116
			l0.138-0.116l0.138-0.114l0.14-0.113l0.14-0.113l0.141-0.111l0.142-0.11l0.143-0.109l0.144-0.108l0.144-0.107l0.146-0.106
			l0.146-0.104l0.147-0.104l0.148-0.102l0.148-0.101l0.15-0.1l0.15-0.099l0.151-0.097l0.152-0.097l0.153-0.095l0.153-0.094
			l0.155-0.092l0.154-0.092l0.156-0.09l0.157-0.089l0.157-0.087l0.159-0.086l0.159-0.085l0.159-0.084l0.161-0.082l0.161-0.081
			l0.162-0.079l0.163-0.078l0.163-0.077l0.165-0.075l0.165-0.074l0.166-0.072l0.166-0.071l0.168-0.069l0.168-0.068l0.168-0.067
			l0.17-0.065l0.17-0.063l0.17-0.062l0.172-0.061l0.172-0.059l0.173-0.057l0.174-0.055l0.174-0.055l0.175-0.052l0.176-0.051
			l0.176-0.049l0.177-0.048l0.177-0.046l0.178-0.044l0.179-0.042l0.179-0.041l0.18-0.039l0.181-0.038l0.181-0.036l0.182-0.034
			l0.182-0.032l0.183-0.03l0.183-0.029l0.184-0.027l0.185-0.025l0.185-0.023l0.185-0.021l0.186-0.02l0.187-0.017l0.186-0.016
			l0.188-0.014l0.188-0.012l0.188-0.01l0.189-0.008l0.189-0.007l0.19-0.004l0.19-0.003h0.19L259.081,207.128z"/>
		<path style="fill-rule:evenodd;clip-rule:evenodd;fill:#FFFFFF;" d="M244.063,245.652l0.068,0.002l0.067,0.004l0.067,0.004
			l0.067,0.007l0.068,0.008l0.066,0.01l0.067,0.011l0.066,0.013l0.066,0.014l0.066,0.016l0.065,0.018l0.065,0.019l0.064,0.02
			l0.064,0.022l0.063,0.023l0.063,0.025l0.062,0.027l0.062,0.028l0.061,0.029l0.06,0.031l0.059,0.032l0.059,0.033l0.058,0.035
			l0.057,0.036l0.056,0.038l0.055,0.039l0.054,0.04l0.054,0.041l0.052,0.043l0.051,0.044l0.051,0.045l0.049,0.046l0.048,0.047
			l0.047,0.049l0.046,0.049l0.045,0.051l0.043,0.052l0.042,0.052l0.041,0.054l0.04,0.054l0.039,0.056l0.037,0.056l0.036,0.057
			l0.034,0.059l0.033,0.058l0.032,0.06l0.03,0.06l0.029,0.061l0.027,0.062l0.026,0.062l0.025,0.063l0.049,0.129l0.046,0.121
			l0.046,0.119l0.046,0.117l0.047,0.116l0.047,0.113l0.047,0.112l0.047,0.111l0.048,0.108l0.048,0.107l0.048,0.106l0.049,0.104
			l0.049,0.102l0.049,0.101l0.051,0.099l0.05,0.097l0.051,0.096l0.052,0.095l0.053,0.093l0.053,0.092l0.054,0.091l0.054,0.09
			l0.056,0.088l0.056,0.087l0.057,0.086l0.059,0.085l0.059,0.084l0.06,0.083l0.062,0.083l0.063,0.081l0.064,0.081l0.079,0.097
			l0.042,0.052l0.041,0.054l0.039,0.055l0.039,0.055l0.037,0.057l0.035,0.057l0.035,0.058l0.032,0.059l0.032,0.06l0.03,0.06
			l0.029,0.061l0.027,0.062l0.026,0.063l0.024,0.063l0.023,0.063l0.022,0.064l0.019,0.065l0.019,0.065l0.017,0.065l0.015,0.066
			l0.014,0.066l0.012,0.066l0.01,0.067l0.009,0.067l0.008,0.067l0.006,0.067l0.004,0.068l0.003,0.067l0.001,0.068v0.067
			l-0.002,0.068l-0.004,0.067l-0.005,0.067l-0.007,0.068l-0.008,0.067l-0.01,0.066l-0.011,0.067l-0.013,0.066l-0.015,0.066
			l-0.016,0.066l-0.018,0.065l-0.019,0.065l-0.021,0.064l-0.022,0.064l-0.023,0.063l-0.025,0.063l-0.027,0.062l-0.028,0.061
			l-0.03,0.061l-0.03,0.06l-0.033,0.059l-0.033,0.059l-0.035,0.057l-0.037,0.057l-0.038,0.056l-0.039,0.055l-0.04,0.055
			l-0.041,0.053l-0.043,0.052l-0.044,0.051l-0.045,0.051l-0.047,0.049l-0.047,0.048l-0.049,0.047l-0.049,0.045l-0.051,0.045
			l-0.052,0.043l-0.053,0.042l-0.053,0.041l-0.055,0.04l-0.056,0.038l-0.056,0.037l-0.057,0.036l-0.059,0.034l-0.059,0.033
			l-0.059,0.032l-0.061,0.03l-0.061,0.028l-0.062,0.028l-0.062,0.025l-0.063,0.025l-0.063,0.023l-0.064,0.021l-0.065,0.02
			l-0.065,0.018l-0.065,0.017l-0.066,0.015l-0.066,0.014l-0.067,0.012l-0.066,0.011l-0.067,0.009l-0.067,0.007l-0.068,0.006
			l-0.067,0.005l-0.067,0.002l-0.068,0.002l-0.068-0.001l-0.067-0.002l-0.067-0.003l-0.068-0.006l-0.067-0.006l-0.067-0.009
			l-0.067-0.01l-0.066-0.011l-0.067-0.013l-0.065-0.015l-0.066-0.016l-0.065-0.017l-0.065-0.019l-0.064-0.021l-0.064-0.022
			l-0.063-0.024l-0.063-0.025l-0.062-0.027l-0.061-0.028l-0.061-0.029l-0.06-0.031l-0.06-0.032l-0.058-0.034l-0.058-0.035
			l-0.057-0.036l-0.056-0.038l-0.055-0.039l-0.054-0.04l-0.053-0.042l-0.052-0.043l-0.052-0.044l-0.05-0.045l-0.049-0.046
			l-0.048-0.048l-0.047-0.048l-0.046-0.05l-0.044-0.051l-0.043-0.051l-0.106-0.129l-0.116-0.147l-0.113-0.147l-0.111-0.147
			l-0.107-0.149l-0.105-0.148l-0.103-0.15l-0.1-0.15l-0.097-0.15l-0.094-0.151l-0.093-0.151l-0.09-0.152l-0.087-0.151l-0.085-0.152
			l-0.083-0.152l-0.081-0.152l-0.079-0.152l-0.077-0.152l-0.075-0.152l-0.073-0.151l-0.071-0.153l-0.07-0.151l-0.068-0.152
			l-0.066-0.151l-0.065-0.151l-0.063-0.152l-0.062-0.151l-0.061-0.15l-0.06-0.151l-0.058-0.15l-0.058-0.15l-0.054-0.143
			l-0.023-0.064l-0.021-0.064l-0.02-0.064l-0.019-0.065l-0.017-0.065l-0.015-0.066l-0.014-0.066l-0.013-0.067l-0.01-0.066
			l-0.01-0.067l-0.007-0.067l-0.006-0.067l-0.005-0.068l-0.003-0.067l-0.001-0.068v-0.067l0.002-0.068l0.003-0.067l0.005-0.068
			l0.007-0.067l0.008-0.067l0.01-0.067l0.011-0.066l0.013-0.067l0.014-0.065l0.016-0.066l0.017-0.065l0.019-0.065l0.021-0.064
			l0.022-0.064l0.023-0.064l0.025-0.062l0.027-0.063l0.027-0.061l0.03-0.061l0.03-0.06l0.033-0.059l0.033-0.059l0.035-0.058
			l0.036-0.057l0.038-0.056l0.038-0.055l0.041-0.054l0.041-0.054l0.043-0.052l0.043-0.052l0.045-0.05l0.047-0.049l0.047-0.048
			l0.048-0.047l0.05-0.046l0.051-0.045l0.051-0.043l0.053-0.043l0.054-0.041l0.054-0.039l0.056-0.039l0.056-0.037l0.057-0.036
			l0.058-0.034l0.059-0.033l0.06-0.032l0.06-0.03l0.061-0.029l0.062-0.028l0.062-0.026l0.063-0.024l0.063-0.023l0.064-0.022
			l0.065-0.02l0.065-0.018l0.065-0.017l0.066-0.016l0.066-0.014l0.066-0.012l0.067-0.011l0.067-0.009l0.067-0.008l0.067-0.006
			l0.068-0.005l0.067-0.003l0.068-0.001H244.063z"/>
		<g transform="matrix(0.144383,0,0,0.160523,398.61,139.372)">
			<path style="fill:#FFFFFF;" d="M7.478,24.123c-2.604-0.174-5.23-0.262-7.878-0.262c-13.583,0-26.622,2.32-38.745,6.583
				c-24.349,8.562-51.455,0.523-66.221-20.646c-25.427-36.45-67.656-60.301-115.473-60.301c-46.928,0-88.472,22.971-114.038,58.279
				c-14.546,20.09-39.958,28.756-63.635,21.366c-10.989-3.431-22.677-5.281-34.799-5.281c-2.648,0-5.274,0.088-7.878,0.262
				c-32.775,2.182-49.827,25.533-51.989,50.503H59.467C57.305,49.656,40.254,26.305,7.478,24.123"/>
		</g>
		<g transform="matrix(0.144383,0,0,0.160523,115.64,256.419)">
			<path style="fill:#FFFFFF;" d="M7.478,24.123c-2.604-0.174-5.23-0.262-7.878-0.262c-13.583,0-26.622,2.32-38.745,6.583
				c-24.349,8.562-51.455,0.523-66.221-20.646c-25.427-36.45-67.656-60.301-115.473-60.301c-46.928,0-88.472,22.971-114.038,58.279
				c-14.546,20.09-39.958,28.756-63.635,21.366c-10.989-3.431-22.677-5.281-34.799-5.281c-2.648,0-5.274,0.088-7.878,0.262
				c-32.775,2.182-49.827,25.533-51.989,50.503H59.467C57.305,49.656,40.254,26.305,7.478,24.123"/>
		</g>
		<g transform="matrix(0.132205,0,0,0.146984,355.982,104.8)">
			<path style="fill:#FFFFFF;" d="M8.167,24.123c-2.604-0.173-5.23-0.261-7.878-0.261c-13.582,0-26.622,2.319-38.746,6.582
				c-24.347,8.562-51.454,0.523-66.22-20.645c-25.428-36.451-67.656-60.302-115.473-60.302c-46.928,0-88.473,22.972-114.038,58.279
				c-14.546,20.09-39.958,28.757-63.635,21.366c-10.99-3.431-22.677-5.28-34.799-5.28c-2.648,0-5.274,0.088-7.878,0.261
				c-32.776,2.183-49.827,25.534-51.989,50.503H60.156C57.995,49.657,40.943,26.306,8.167,24.123"/>
		</g>
		<g transform="matrix(0.132205,0,0,0.146984,165.537,214.37)">
			<path style="fill:#FFFFFF;" d="M8.167,24.123c-2.604-0.173-5.23-0.261-7.878-0.261c-13.582,0-26.622,2.319-38.746,6.582
				c-24.347,8.562-51.454,0.523-66.22-20.645c-25.428-36.451-67.656-60.302-115.473-60.302c-46.928,0-88.473,22.972-114.038,58.279
				c-14.546,20.09-39.958,28.757-63.635,21.366c-10.99-3.431-22.677-5.28-34.799-5.28c-2.648,0-5.274,0.088-7.878,0.261
				c-32.776,2.183-49.827,25.534-51.989,50.503H60.156C57.995,49.657,40.943,26.306,8.167,24.123"/>
		</g>
		<g transform="matrix(1,0,0,1,259.469,288.921)">
			<path style="fill:#003C3C;" d="M1.08,6.443c3.979,0,7.311-2.746,8.225-6.443H-7.144C-6.23,3.697-2.899,6.443,1.08,6.443"/>
		</g>
		<g transform="matrix(1,0,0,1,257.927,225.69)">
			<path style="fill:#00C29B;" d="M1.08,52.231h10.41c0.502,0,0.976,0.115,1.406,0.304c0.848-0.633,1.404-1.635,1.404-2.774v-0.06
				c0-0.918-0.364-1.747-0.946-2.368c-0.633-0.675-1.526-1.102-2.524-1.102H4.3V22.639c2-6.611,9.185-4.626,11.499-23.132
				c0,0-11.215,6.554-12.757,18.506c0,0-0.402-5.783-11.198-11.566c0,0,3.264,6.554,4.035,10.409S0.3,22.639,0.3,22.639v23.592
				h-6.531c-0.741,0-1.425,0.237-1.989,0.633c-0.893,0.628-1.48,1.662-1.48,2.837v0.06c0,1.262,0.68,2.356,1.688,2.963
				c0.519-0.298,1.119-0.493,1.767-0.493H1.08z"/>
		</g>
		<g transform="matrix(1,0,0,1,271.806,280.921)">
			<path style="fill:#003C3C;" d="M1.08,0c0-1.022-0.849-2.166-2.063-2.696C-1.413-2.885-1.887-3-2.389-3h-7.326h-3.084h-7.325
				c-0.648,0-1.248,0.195-1.767,0.493C-22.906-1.923-23.593-0.916-23.593,0c0,1.384,1.553,3,3.469,3h17.735
				C-0.473,3,1.08,1.384,1.08,0"/>
		</g>
		<g transform="matrix(1,0,0,1,250.603,288.921)">
			<path style="fill:#00C29B;" d="M1.08-5c-1.917,0-3.47,1.116-3.47,2.5S-0.837,0,1.08,0h17.735c1.915,0,3.469-1.116,3.469-2.5
				S20.73-5,18.815-5H1.08z"/>
		</g>
	</g>
</g>
<!-- <g id="DESIGNED_BY_FREEPIK">
	<g>
		<g id="XMLID_29_">
			<g id="XMLID_48_">
				<path id="XMLID_56_" style="fill:#1D262D;" d="M260.104,465.465c-0.433,0.443-0.804,0.932-1.108,1.453l-0.465-0.241
					c-0.067-0.297-0.35-0.502-0.659-0.466c-0.331,0.039-0.567,0.339-0.529,0.67c0.039,0.331,0.339,0.567,0.67,0.528
					c0.065-0.007,0.127-0.025,0.184-0.052l0.451,0.234c-0.251,0.554-0.433,1.139-0.539,1.743l0.747,0.132
					c0.229-1.306,0.85-2.507,1.792-3.473L260.104,465.465z"/>
				<path id="XMLID_55_" style="fill:#1D262D;" d="M265.592,463.163c-0.171,0-0.341,0.006-0.509,0.017l-0.074-0.626
					c0.188-0.149,0.296-0.389,0.266-0.645c-0.046-0.393-0.402-0.674-0.795-0.628c-0.393,0.046-0.675,0.402-0.628,0.796
					c0.03,0.254,0.189,0.461,0.404,0.563l0.073,0.624c-0.714,0.116-1.402,0.332-2.06,0.645l0.327,0.685
					c0.935-0.447,1.941-0.674,2.995-0.674c0.497,0,0.993,0.053,1.476,0.158l0.16-0.741
					C266.692,463.222,266.143,463.163,265.592,463.163z"/>
				<path id="XMLID_54_" style="fill:#1D262D;" d="M272.194,465.71c0.331-0.04,0.566-0.341,0.525-0.672
					c-0.04-0.331-0.341-0.566-0.672-0.525c-0.31,0.038-0.535,0.304-0.53,0.608l-0.416,0.363c-0.418-0.43-0.89-0.813-1.407-1.14
					l-0.404,0.642c1.135,0.715,2.02,1.727,2.563,2.925l0.69-0.313c-0.251-0.554-0.567-1.071-0.942-1.545l0.402-0.351
					C272.065,465.715,272.129,465.719,272.194,465.71z"/>
				<path id="XMLID_53_" style="fill:#1D262D;" d="M265.045,473.371c-0.386,0.023-0.775,0.035-1.157,0.035
					c-0.88,0-1.733-0.061-2.479-0.18c-0.391-0.061-0.846-0.154-1.27-0.292c1.047,1.861,3.069,3.125,5.389,3.125
					c2.856,0,5.263-1.916,5.949-4.503c-0.682,0.449-1.505,0.825-2.458,1.122C267.839,473.047,266.464,473.286,265.045,473.371z"/>
				<path id="XMLID_49_" style="fill:#1D262D;" d="M265.592,464.68c-3.352,0-6.079,2.666-6.079,5.943
					c0,0.425,0.046,0.849,0.137,1.261c0.674,0.483,2.706,0.891,5.348,0.731c2.88-0.174,5.297-0.958,6.672-2.159
					c-0.005-0.194-0.021-0.39-0.045-0.581C271.244,466.913,268.65,464.68,265.592,464.68z M263.433,471.194
					c-1.02,0-1.85-0.83-1.85-1.85c0-1.021,0.83-1.85,1.85-1.85c1.02,0,1.85,0.83,1.85,1.85
					C265.282,470.364,264.452,471.194,263.433,471.194z M268.17,470.286c-0.75,0-1.36-0.61-1.36-1.36s0.61-1.36,1.36-1.36
					s1.36,0.61,1.36,1.36S268.92,470.286,268.17,470.286z"/>
			</g>
			<path id="XMLID_46_" style="fill:#1D262D;" d="M281.596,466.547c-0.295-0.116-0.806-0.31-1.383-0.238
				c-0.551,0.069-0.844,0.341-0.844,1.007v0.866h2.228v1.717h-2.228v5.455h-1.932v-5.455h-1.339v-1.717h1.339v-0.889
				c0-1.68,0.896-2.782,2.568-2.782c0.643,0,1.157,0.121,1.59,0.308V466.547z"/>
			<path id="XMLID_44_" style="fill:#1D262D;" d="M286.298,469.878c-0.177-0.029-0.357-0.046-0.525-0.046
				c-0.895,0-1.51,0.548-1.51,1.613v3.908h-1.933v-7.172h1.873v0.784c0.451-0.673,1.14-0.977,2.021-0.977
				c0.414,0,0.848,0.128,1.095,0.337L286.298,469.878z"/>
			<path id="XMLID_41_" style="fill:#1D262D;" d="M293.966,471.757c0,0.222-0.016,0.488-0.037,0.651h-5.085
				c0.207,1.036,0.933,1.487,1.843,1.487c0.622,0,1.295-0.252,1.813-0.689l1.133,1.243c-0.814,0.748-1.851,1.089-3.057,1.089
				c-2.198,0-3.724-1.496-3.724-3.753c0-2.258,1.48-3.797,3.627-3.797C292.544,467.989,293.958,469.522,293.966,471.757z
				 M288.852,471.091h3.175c-0.178-0.918-0.732-1.436-1.562-1.436C289.555,469.654,289.021,470.202,288.852,471.091z"/>
			<path id="XMLID_38_" style="fill:#1D262D;" d="M301.619,471.757c0,0.222-0.016,0.488-0.037,0.651h-5.085
				c0.207,1.036,0.933,1.487,1.843,1.487c0.622,0,1.296-0.252,1.814-0.689l1.133,1.243c-0.815,0.748-1.851,1.089-3.058,1.089
				c-2.198,0-3.723-1.496-3.723-3.753c0-2.258,1.48-3.797,3.627-3.797C300.197,467.989,301.611,469.522,301.619,471.757z
				 M296.505,471.091h3.175c-0.178-0.918-0.733-1.436-1.561-1.436C297.208,469.654,296.675,470.202,296.505,471.091z"/>
			<path id="XMLID_35_" style="fill:#1D262D;" d="M309.965,471.764c0,2.154-1.495,3.775-3.472,3.775
				c-0.962,0-1.643-0.378-2.109-0.933v3.708h-1.925v-10.133h1.888v0.792c0.467-0.585,1.154-0.984,2.139-0.984
				C308.47,467.989,309.965,469.61,309.965,471.764z M304.287,471.764c0,1.133,0.748,1.977,1.844,1.977
				c1.14,0,1.85-0.881,1.85-1.977c0-1.095-0.71-1.976-1.85-1.976C305.035,469.788,304.287,470.632,304.287,471.764z"/>
			<path id="XMLID_32_" style="fill:#1D262D;" d="M313.068,465.835c0,0.696-0.541,1.23-1.236,1.23c-0.696,0-1.229-0.533-1.229-1.23
				c0-0.695,0.532-1.243,1.229-1.243C312.527,464.592,313.068,465.14,313.068,465.835z M312.809,475.353h-1.932v-7.172h1.932
				V475.353z"/>
			<path id="XMLID_30_" style="fill:#1D262D;" d="M316.032,470.735l2.702-2.554h2.368l-3.479,3.375l3.501,3.797h-2.376l-2.717-2.901
				v2.901h-1.932v-10.658h1.932V470.735z"/>
		</g>
		<g>
			<path style="fill:#1D262D;" d="M184.413,475.289v-1.055c-0.527,0.718-1.391,1.23-2.387,1.23c-1.846,0-3.149-1.406-3.149-3.706
				c0-2.256,1.289-3.721,3.149-3.721c0.952,0,1.816,0.469,2.387,1.245v-3.765h1.099v9.771H184.413z M184.413,473.37v-3.208
				c-0.395-0.615-1.245-1.143-2.124-1.143c-1.42,0-2.27,1.172-2.27,2.739c0,1.567,0.85,2.725,2.27,2.725
				C183.168,474.483,184.018,473.985,184.413,473.37z"/>
			<path style="fill:#1D262D;" d="M186.932,471.744c0-2.051,1.465-3.706,3.486-3.706c2.139,0,3.398,1.67,3.398,3.794v0.278h-5.727
				c0.088,1.333,1.025,2.446,2.549,2.446c0.806,0,1.626-0.322,2.182-0.894l0.527,0.718c-0.703,0.703-1.655,1.084-2.812,1.084
				C188.441,475.465,186.932,473.956,186.932,471.744z M190.404,468.946c-1.509,0-2.256,1.274-2.314,2.358h4.644
				C192.718,470.25,192.015,468.946,190.404,468.946z"/>
			<path style="fill:#1D262D;" d="M194.607,474.352l0.571-0.791c0.469,0.542,1.362,1.011,2.329,1.011c1.084,0,1.67-0.513,1.67-1.216
				c0-1.714-4.38-0.659-4.38-3.281c0-1.099,0.952-2.036,2.636-2.036c1.202,0,2.051,0.454,2.623,1.025l-0.513,0.762
				c-0.424-0.513-1.201-0.893-2.109-0.893c-0.966,0-1.567,0.483-1.567,1.113c0,1.553,4.379,0.527,4.379,3.281
				c0,1.186-0.952,2.139-2.783,2.139C196.307,475.465,195.325,475.113,194.607,474.352z"/>
			<path style="fill:#1D262D;" d="M201.478,466.471c0-0.41,0.337-0.747,0.732-0.747c0.41,0,0.747,0.337,0.747,0.747
				c0,0.41-0.337,0.732-0.747,0.732C201.814,467.203,201.478,466.881,201.478,466.471z M201.667,475.289v-7.075h1.099v7.075H201.667
				z"/>
			<path style="fill:#1D262D;" d="M204.583,477.105l0.556-0.82c0.586,0.703,1.289,0.967,2.3,0.967c1.172,0,2.271-0.571,2.271-2.124
				v-1.011c-0.513,0.718-1.377,1.26-2.373,1.26c-1.846,0-3.149-1.377-3.149-3.662c0-2.271,1.289-3.677,3.149-3.677
				c0.952,0,1.802,0.469,2.373,1.245v-1.069h1.099v6.87c0,2.344-1.641,3.076-3.369,3.076
				C206.237,478.16,205.417,477.925,204.583,477.105z M209.709,473.253v-3.091c-0.381-0.615-1.23-1.143-2.109-1.143
				c-1.421,0-2.27,1.128-2.27,2.695c0,1.553,0.849,2.695,2.27,2.695C208.479,474.41,209.328,473.868,209.709,473.253z"/>
			<path style="fill:#1D262D;" d="M217.414,475.289v-4.629c0-1.245-0.63-1.641-1.582-1.641c-0.864,0-1.685,0.527-2.094,1.099v5.171
				h-1.099v-7.075h1.099v1.025c0.497-0.586,1.464-1.201,2.519-1.201c1.479,0,2.256,0.747,2.256,2.285v4.966H217.414z"/>
			<path style="fill:#1D262D;" d="M219.933,471.744c0-2.051,1.465-3.706,3.486-3.706c2.139,0,3.398,1.67,3.398,3.794v0.278h-5.727
				c0.088,1.333,1.025,2.446,2.548,2.446c0.806,0,1.626-0.322,2.183-0.894l0.527,0.718c-0.703,0.703-1.655,1.084-2.813,1.084
				C221.442,475.465,219.933,473.956,219.933,471.744z M223.404,468.946c-1.509,0-2.256,1.274-2.314,2.358h4.643
				C225.719,470.25,225.016,468.946,223.404,468.946z"/>
			<path style="fill:#1D262D;" d="M233.351,475.289v-1.055c-0.527,0.718-1.392,1.23-2.388,1.23c-1.845,0-3.149-1.406-3.149-3.706
				c0-2.256,1.289-3.721,3.149-3.721c0.952,0,1.817,0.469,2.388,1.245v-3.765h1.098v9.771H233.351z M233.351,473.37v-3.208
				c-0.396-0.615-1.245-1.143-2.124-1.143c-1.421,0-2.271,1.172-2.271,2.739c0,1.567,0.85,2.725,2.271,2.725
				C232.105,474.483,232.955,473.985,233.351,473.37z"/>
			<path style="fill:#1D262D;" d="M239.692,475.289v-9.771h1.099v3.765c0.571-0.776,1.421-1.245,2.388-1.245
				c1.845,0,3.149,1.465,3.149,3.721c0,2.3-1.304,3.706-3.149,3.706c-0.996,0-1.86-0.513-2.388-1.23v1.055H239.692z M242.9,474.483
				c1.436,0,2.285-1.157,2.285-2.725c0-1.567-0.85-2.739-2.285-2.739c-0.864,0-1.729,0.527-2.109,1.143v3.208
				C241.172,473.985,242.036,474.483,242.9,474.483z"/>
			<path style="fill:#1D262D;" d="M247.529,477.061c0.161,0.073,0.425,0.117,0.601,0.117c0.483,0,0.806-0.161,1.055-0.747
				l0.469-1.069l-2.959-7.148h1.186l2.358,5.801l2.344-5.801h1.2l-3.545,8.511c-0.425,1.024-1.143,1.421-2.08,1.436
				c-0.234,0-0.6-0.044-0.806-0.103L247.529,477.061z"/>
		</g>
	</g>
</g> -->
</svg>
