<?xml version="1.0" encoding="UTF-8" standalone="no"?><!DOCTYPE svg PUBLIC "-//W3C//DTD SVG 1.1//EN" "http://www.w3.org/Graphics/SVG/1.1/DTD/svg11.dtd"><svg width="100%" height="100%" viewBox="0 0 4459 4459" version="1.1" xmlns="http://www.w3.org/2000/svg" xmlns:xlink="http://www.w3.org/1999/xlink" xml:space="preserve" xmlns:serif="http://www.serif.com/" style="fill-rule:evenodd;clip-rule:evenodd;stroke-linejoin:round;stroke-miterlimit:2;"><g><path d="M3733.79,716.024c-117.003,133.767 -835.98,823.19 -866.025,876.791c-225.553,-227.313 -804.081,-443.044 -1303.36,0c-201.549,-219.225 -480.757,-477.051 -872.203,-876.791c1003.62,-970.198 2404.12,-636.433 3041.59,-0Z" style="fill:#00140b;"/></g><g><path d="M104.338,1730.12c173.785,37.178 1125.85,330.109 1187.3,330.294c-88.926,307.632 3.933,918.052 633.868,1138.84c-93.532,282.725 -183.025,652.079 -341.933,1188.52c-1335.83,-405.093 -1725.31,-1791.14 -1479.23,-2657.65Z"/></g><g><path d="M2853.62,4377.24c-59.917,-167.312 -312.287,-1130.92 -344.49,-1183.25c308.347,-86.414 778.356,-486.821 634.299,-1138.6c289.599,-69.382 650.714,-187.819 1190.42,-335.242c359.127,1348.91 -614.024,2409.95 -1480.23,2657.09Z"/></g></svg>